<?xml version='1.0' encoding='utf-8'?>
<mlt title="Anonymous Submission" LC_NUMERIC="en_US.UTF-8" producer="main bin" version="6.4.1" root="/home/kyan">
 <profile frame_rate_num="30000" sample_aspect_num="1" display_aspect_den="3" colorspace="601" progressive="1" description="VGA NTSC" display_aspect_num="4" frame_rate_den="1001" width="640" height="480" sample_aspect_den="1"/>
 <producer title="Anonymous Submission" id="2" in="0" out="9804">
  <property name="length">00:05:27;05</property>
  <property name="eof">pause</property>
  <property name="resource">/run/media/kyan/Windows/Users/Elliot/Desktop/IMG_1935.MOV</property>
  <property name="audio_index">1</property>
  <property name="video_index">0</property>
  <property name="mute_on_pause">1</property>
  <property name="mlt_service">avformat-novalidate</property>
  <property name="meta.media.nb_streams">2</property>
  <property name="meta.media.0.stream.type">video</property>
  <property name="meta.media.0.stream.frame_rate">29.9587</property>
  <property name="meta.media.0.stream.sample_aspect_ratio">0</property>
  <property name="meta.media.0.codec.width">640</property>
  <property name="meta.media.0.codec.height">480</property>
  <property name="meta.media.0.codec.rotate">180</property>
  <property name="meta.media.0.codec.frame_rate">600</property>
  <property name="meta.media.0.codec.pix_fmt">yuv420p</property>
  <property name="meta.media.0.codec.sample_aspect_ratio">0</property>
  <property name="meta.media.0.codec.colorspace">601</property>
  <property name="meta.media.0.codec.color_trc">1</property>
  <property name="meta.media.0.codec.name">h264</property>
  <property name="meta.media.0.codec.long_name">H.264 / AVC / MPEG-4 AVC / MPEG-4 part 10</property>
  <property name="meta.media.0.codec.bit_rate">3525881</property>
  <property name="meta.attr.0.stream.rotate.markup">180</property>
  <property name="meta.attr.0.stream.creation_time.markup">2017-10-04T18:33:41.000000Z</property>
  <property name="meta.attr.0.stream.handler_name.markup">Core Media Data Handler</property>
  <property name="meta.attr.0.stream.encoder.markup">H.264</property>
  <property name="meta.media.1.stream.type">audio</property>
  <property name="meta.media.1.codec.sample_fmt">fltp</property>
  <property name="meta.media.1.codec.sample_rate">44100</property>
  <property name="meta.media.1.codec.channels">1</property>
  <property name="meta.media.1.codec.name">aac</property>
  <property name="meta.media.1.codec.long_name">AAC (Advanced Audio Coding)</property>
  <property name="meta.media.1.codec.bit_rate">63999</property>
  <property name="meta.attr.1.stream.creation_time.markup">2017-10-04T18:33:42.000000Z</property>
  <property name="meta.attr.1.stream.handler_name.markup">Core Media Data Handler</property>
  <property name="meta.attr.major_brand.markup">qt  </property>
  <property name="meta.attr.minor_version.markup">0</property>
  <property name="meta.attr.compatible_brands.markup">qt  </property>
  <property name="meta.attr.creation_time.markup">2017-10-04T18:33:41.000000Z</property>
  <property name="meta.attr.model.markup">iPhone 3GS</property>
  <property name="meta.attr.model-eng.markup">iPhone 3GS</property>
  <property name="meta.attr.encoder.markup">6.1.6</property>
  <property name="meta.attr.encoder-eng.markup">6.1.6</property>
  <property name="meta.attr.date.markup">2017-10-04T14:33:41-0400</property>
  <property name="meta.attr.date-eng.markup">2017-10-04T14:33:41-0400</property>
  <property name="meta.attr.location.markup">+44.8989-068.6688+041.067/</property>
  <property name="meta.attr.location-eng.markup">+44.8989-068.6688+041.067/</property>
  <property name="meta.attr.make.markup">Apple</property>
  <property name="meta.attr.make-eng.markup">Apple</property>
  <property name="meta.attr.com.apple.quicktime.make.markup">Apple</property>
  <property name="meta.attr.com.apple.quicktime.creationdate.markup">2017-10-04T14:33:41-0400</property>
  <property name="meta.attr.com.apple.quicktime.location.ISO6709.markup">+44.8989-068.6688+041.067/</property>
  <property name="meta.attr.com.apple.quicktime.software.markup">6.1.6</property>
  <property name="meta.attr.com.apple.quicktime.model.markup">iPhone 3GS</property>
  <property name="seekable">1</property>
  <property name="meta.media.sample_aspect_num">1</property>
  <property name="meta.media.sample_aspect_den">1</property>
  <property name="aspect_ratio">1</property>
  <property name="kdenlive:file_size">147111309</property>
  <property name="kdenlive:file_hash">5a79abf35436072a68974d7044147998</property>
  <property name="global_feed">1</property>
  <property name="meta.media.frame_rate_num">588120</property>
  <property name="meta.media.frame_rate_den">19631</property>
  <property name="meta.media.colorspace">601</property>
  <property name="meta.media.color_trc">1</property>
  <property name="meta.media.width">640</property>
  <property name="meta.media.height">480</property>
  <property name="meta.media.top_field_first">0</property>
  <property name="meta.media.progressive">1</property>
 </producer>
 <producer title="Anonymous Submission" id="3" in="0" out="2402">
  <property name="length">00:01:20;05</property>
  <property name="eof">pause</property>
  <property name="resource">/run/media/kyan/Windows/Users/Elliot/Desktop/IMG_1936.MOV</property>
  <property name="audio_index">1</property>
  <property name="video_index">0</property>
  <property name="mute_on_pause">1</property>
  <property name="mlt_service">avformat-novalidate</property>
  <property name="meta.media.nb_streams">2</property>
  <property name="meta.media.0.stream.type">video</property>
  <property name="meta.media.0.stream.frame_rate">29.9751</property>
  <property name="meta.media.0.stream.sample_aspect_ratio">0</property>
  <property name="meta.media.0.codec.width">640</property>
  <property name="meta.media.0.codec.height">480</property>
  <property name="meta.media.0.codec.rotate">90</property>
  <property name="meta.media.0.codec.frame_rate">600</property>
  <property name="meta.media.0.codec.pix_fmt">yuv420p</property>
  <property name="meta.media.0.codec.sample_aspect_ratio">0</property>
  <property name="meta.media.0.codec.colorspace">601</property>
  <property name="meta.media.0.codec.color_trc">1</property>
  <property name="meta.media.0.codec.name">h264</property>
  <property name="meta.media.0.codec.long_name">H.264 / AVC / MPEG-4 AVC / MPEG-4 part 10</property>
  <property name="meta.media.0.codec.bit_rate">3542056</property>
  <property name="meta.attr.0.stream.rotate.markup">90</property>
  <property name="meta.attr.0.stream.creation_time.markup">2017-10-04T18:39:19.000000Z</property>
  <property name="meta.attr.0.stream.handler_name.markup">Core Media Data Handler</property>
  <property name="meta.attr.0.stream.encoder.markup">H.264</property>
  <property name="meta.media.1.stream.type">audio</property>
  <property name="meta.media.1.codec.sample_fmt">fltp</property>
  <property name="meta.media.1.codec.sample_rate">44100</property>
  <property name="meta.media.1.codec.channels">1</property>
  <property name="meta.media.1.codec.name">aac</property>
  <property name="meta.media.1.codec.long_name">AAC (Advanced Audio Coding)</property>
  <property name="meta.media.1.codec.bit_rate">63999</property>
  <property name="meta.attr.1.stream.creation_time.markup">2017-10-04T18:39:19.000000Z</property>
  <property name="meta.attr.1.stream.handler_name.markup">Core Media Data Handler</property>
  <property name="meta.attr.major_brand.markup">qt  </property>
  <property name="meta.attr.minor_version.markup">0</property>
  <property name="meta.attr.compatible_brands.markup">qt  </property>
  <property name="meta.attr.creation_time.markup">2017-10-04T18:39:19.000000Z</property>
  <property name="meta.attr.model.markup">iPhone 3GS</property>
  <property name="meta.attr.model-eng.markup">iPhone 3GS</property>
  <property name="meta.attr.encoder.markup">6.1.6</property>
  <property name="meta.attr.encoder-eng.markup">6.1.6</property>
  <property name="meta.attr.date.markup">2017-10-04T14:39:19-0400</property>
  <property name="meta.attr.date-eng.markup">2017-10-04T14:39:19-0400</property>
  <property name="meta.attr.location.markup">+44.8966-068.6707+041.067/</property>
  <property name="meta.attr.location-eng.markup">+44.8966-068.6707+041.067/</property>
  <property name="meta.attr.make.markup">Apple</property>
  <property name="meta.attr.make-eng.markup">Apple</property>
  <property name="meta.attr.com.apple.quicktime.make.markup">Apple</property>
  <property name="meta.attr.com.apple.quicktime.creationdate.markup">2017-10-04T14:39:19-0400</property>
  <property name="meta.attr.com.apple.quicktime.location.ISO6709.markup">+44.8966-068.6707+041.067/</property>
  <property name="meta.attr.com.apple.quicktime.software.markup">6.1.6</property>
  <property name="meta.attr.com.apple.quicktime.model.markup">iPhone 3GS</property>
  <property name="seekable">1</property>
  <property name="meta.media.sample_aspect_num">1</property>
  <property name="meta.media.sample_aspect_den">1</property>
  <property name="aspect_ratio">1</property>
  <property name="kdenlive:file_size">36227379</property>
  <property name="kdenlive:file_hash">bb5a8fccd9c63a4c0472473c7b7e2626</property>
  <property name="global_feed">1</property>
  <property name="meta.media.frame_rate_num">12020</property>
  <property name="meta.media.frame_rate_den">401</property>
  <property name="meta.media.colorspace">601</property>
  <property name="meta.media.color_trc">1</property>
  <property name="meta.media.width">640</property>
  <property name="meta.media.height">480</property>
  <property name="meta.media.top_field_first">0</property>
  <property name="meta.media.progressive">1</property>
 </producer>
 <producer title="Anonymous Submission" id="4" in="0" out="1656">
  <property name="length">00:00:55;07</property>
  <property name="eof">pause</property>
  <property name="resource">/run/media/kyan/Windows/Users/Elliot/Desktop/IMG_1939.MOV</property>
  <property name="audio_index">1</property>
  <property name="video_index">0</property>
  <property name="mute_on_pause">1</property>
  <property name="mlt_service">avformat-novalidate</property>
  <property name="meta.media.nb_streams">2</property>
  <property name="meta.media.0.stream.type">video</property>
  <property name="meta.media.0.stream.frame_rate">29.963</property>
  <property name="meta.media.0.stream.sample_aspect_ratio">0</property>
  <property name="meta.media.0.codec.width">640</property>
  <property name="meta.media.0.codec.height">480</property>
  <property name="meta.media.0.codec.rotate">90</property>
  <property name="meta.media.0.codec.frame_rate">600</property>
  <property name="meta.media.0.codec.pix_fmt">yuv420p</property>
  <property name="meta.media.0.codec.sample_aspect_ratio">0</property>
  <property name="meta.media.0.codec.colorspace">601</property>
  <property name="meta.media.0.codec.color_trc">1</property>
  <property name="meta.media.0.codec.name">h264</property>
  <property name="meta.media.0.codec.long_name">H.264 / AVC / MPEG-4 AVC / MPEG-4 part 10</property>
  <property name="meta.media.0.codec.bit_rate">3501984</property>
  <property name="meta.attr.0.stream.rotate.markup">90</property>
  <property name="meta.attr.0.stream.creation_time.markup">2017-10-04T18:42:11.000000Z</property>
  <property name="meta.attr.0.stream.handler_name.markup">Core Media Data Handler</property>
  <property name="meta.attr.0.stream.encoder.markup">H.264</property>
  <property name="meta.media.1.stream.type">audio</property>
  <property name="meta.media.1.codec.sample_fmt">fltp</property>
  <property name="meta.media.1.codec.sample_rate">44100</property>
  <property name="meta.media.1.codec.channels">1</property>
  <property name="meta.media.1.codec.name">aac</property>
  <property name="meta.media.1.codec.long_name">AAC (Advanced Audio Coding)</property>
  <property name="meta.media.1.codec.bit_rate">63998</property>
  <property name="meta.attr.1.stream.creation_time.markup">2017-10-04T18:42:11.000000Z</property>
  <property name="meta.attr.1.stream.handler_name.markup">Core Media Data Handler</property>
  <property name="meta.attr.major_brand.markup">qt  </property>
  <property name="meta.attr.minor_version.markup">0</property>
  <property name="meta.attr.compatible_brands.markup">qt  </property>
  <property name="meta.attr.creation_time.markup">2017-10-04T18:42:11.000000Z</property>
  <property name="meta.attr.model.markup">iPhone 3GS</property>
  <property name="meta.attr.model-eng.markup">iPhone 3GS</property>
  <property name="meta.attr.encoder.markup">6.1.6</property>
  <property name="meta.attr.encoder-eng.markup">6.1.6</property>
  <property name="meta.attr.date.markup">2017-10-04T14:42:11-0400</property>
  <property name="meta.attr.date-eng.markup">2017-10-04T14:42:11-0400</property>
  <property name="meta.attr.location.markup">+44.8988-068.6687+082.067/</property>
  <property name="meta.attr.location-eng.markup">+44.8988-068.6687+082.067/</property>
  <property name="meta.attr.make.markup">Apple</property>
  <property name="meta.attr.make-eng.markup">Apple</property>
  <property name="meta.attr.com.apple.quicktime.make.markup">Apple</property>
  <property name="meta.attr.com.apple.quicktime.creationdate.markup">2017-10-04T14:42:11-0400</property>
  <property name="meta.attr.com.apple.quicktime.location.ISO6709.markup">+44.8988-068.6687+082.067/</property>
  <property name="meta.attr.com.apple.quicktime.software.markup">6.1.6</property>
  <property name="meta.attr.com.apple.quicktime.model.markup">iPhone 3GS</property>
  <property name="seekable">1</property>
  <property name="meta.media.sample_aspect_num">1</property>
  <property name="meta.media.sample_aspect_den">1</property>
  <property name="aspect_ratio">1</property>
  <property name="kdenlive:file_size">24767854</property>
  <property name="kdenlive:file_hash">ed11901e66f881f12f356947aa840f0d</property>
  <property name="global_feed">1</property>
  <property name="meta.media.frame_rate_num">332200</property>
  <property name="meta.media.frame_rate_den">11087</property>
  <property name="meta.media.colorspace">601</property>
  <property name="meta.media.color_trc">1</property>
  <property name="meta.media.width">640</property>
  <property name="meta.media.height">480</property>
  <property name="meta.media.top_field_first">0</property>
  <property name="meta.media.progressive">1</property>
 </producer>
 <producer title="Anonymous Submission" id="5" in="0" out="41">
  <property name="length">00:00:01;12</property>
  <property name="eof">pause</property>
  <property name="resource">/run/media/kyan/Windows/Users/Elliot/Desktop/IMG_1940.MOV</property>
  <property name="audio_index">1</property>
  <property name="video_index">0</property>
  <property name="mute_on_pause">1</property>
  <property name="mlt_service">avformat-novalidate</property>
  <property name="meta.media.nb_streams">2</property>
  <property name="meta.media.0.stream.type">video</property>
  <property name="meta.media.0.stream.frame_rate">22.695</property>
  <property name="meta.media.0.stream.sample_aspect_ratio">0</property>
  <property name="meta.media.0.codec.width">640</property>
  <property name="meta.media.0.codec.height">480</property>
  <property name="meta.media.0.codec.rotate">0</property>
  <property name="meta.media.0.codec.frame_rate">600</property>
  <property name="meta.media.0.codec.pix_fmt">yuv420p</property>
  <property name="meta.media.0.codec.sample_aspect_ratio">0</property>
  <property name="meta.media.0.codec.colorspace">601</property>
  <property name="meta.media.0.codec.color_trc">1</property>
  <property name="meta.media.0.codec.name">h264</property>
  <property name="meta.media.0.codec.long_name">H.264 / AVC / MPEG-4 AVC / MPEG-4 part 10</property>
  <property name="meta.media.0.codec.bit_rate">3085310</property>
  <property name="meta.attr.0.stream.creation_time.markup">2017-10-04T18:43:14.000000Z</property>
  <property name="meta.attr.0.stream.handler_name.markup">Core Media Data Handler</property>
  <property name="meta.attr.0.stream.encoder.markup">H.264</property>
  <property name="meta.media.1.stream.type">audio</property>
  <property name="meta.media.1.codec.sample_fmt">fltp</property>
  <property name="meta.media.1.codec.sample_rate">44100</property>
  <property name="meta.media.1.codec.channels">1</property>
  <property name="meta.media.1.codec.name">aac</property>
  <property name="meta.media.1.codec.long_name">AAC (Advanced Audio Coding)</property>
  <property name="meta.media.1.codec.bit_rate">65296</property>
  <property name="meta.attr.1.stream.creation_time.markup">2017-10-04T18:43:14.000000Z</property>
  <property name="meta.attr.1.stream.handler_name.markup">Core Media Data Handler</property>
  <property name="meta.attr.major_brand.markup">qt  </property>
  <property name="meta.attr.minor_version.markup">0</property>
  <property name="meta.attr.compatible_brands.markup">qt  </property>
  <property name="meta.attr.creation_time.markup">2017-10-04T18:43:14.000000Z</property>
  <property name="meta.attr.model.markup">iPhone 3GS</property>
  <property name="meta.attr.model-eng.markup">iPhone 3GS</property>
  <property name="meta.attr.encoder.markup">6.1.6</property>
  <property name="meta.attr.encoder-eng.markup">6.1.6</property>
  <property name="meta.attr.date.markup">2017-10-04T14:43:14-0400</property>
  <property name="meta.attr.date-eng.markup">2017-10-04T14:43:14-0400</property>
  <property name="meta.attr.location.markup">+44.8988-068.6687+082.067/</property>
  <property name="meta.attr.location-eng.markup">+44.8988-068.6687+082.067/</property>
  <property name="meta.attr.make.markup">Apple</property>
  <property name="meta.attr.make-eng.markup">Apple</property>
  <property name="meta.attr.com.apple.quicktime.make.markup">Apple</property>
  <property name="meta.attr.com.apple.quicktime.creationdate.markup">2017-10-04T14:43:14-0400</property>
  <property name="meta.attr.com.apple.quicktime.location.ISO6709.markup">+44.8988-068.6687+082.067/</property>
  <property name="meta.attr.com.apple.quicktime.software.markup">6.1.6</property>
  <property name="meta.attr.com.apple.quicktime.model.markup">iPhone 3GS</property>
  <property name="seekable">1</property>
  <property name="meta.media.sample_aspect_num">1</property>
  <property name="meta.media.sample_aspect_den">1</property>
  <property name="aspect_ratio">1</property>
  <property name="kdenlive:file_size">551602</property>
  <property name="kdenlive:file_hash">23b82787089968727c08279d83821e3f</property>
  <property name="global_feed">1</property>
  <property name="meta.media.frame_rate_num">3200</property>
  <property name="meta.media.frame_rate_den">141</property>
  <property name="meta.media.colorspace">601</property>
  <property name="meta.media.color_trc">1</property>
  <property name="meta.media.width">640</property>
  <property name="meta.media.height">480</property>
  <property name="meta.media.top_field_first">0</property>
  <property name="meta.media.progressive">1</property>
 </producer>
 <producer title="Anonymous Submission" id="6" in="0" out="30">
  <property name="length">00:00:01;01</property>
  <property name="eof">pause</property>
  <property name="resource">/run/media/kyan/Windows/Users/Elliot/Desktop/IMG_1941.MOV</property>
  <property name="audio_index">1</property>
  <property name="video_index">0</property>
  <property name="mute_on_pause">1</property>
  <property name="mlt_service">avformat-novalidate</property>
  <property name="meta.media.nb_streams">2</property>
  <property name="meta.media.0.stream.type">video</property>
  <property name="meta.media.0.stream.frame_rate">29.9517</property>
  <property name="meta.media.0.stream.sample_aspect_ratio">0</property>
  <property name="meta.media.0.codec.width">640</property>
  <property name="meta.media.0.codec.height">480</property>
  <property name="meta.media.0.codec.rotate">180</property>
  <property name="meta.media.0.codec.frame_rate">600</property>
  <property name="meta.media.0.codec.pix_fmt">yuv420p</property>
  <property name="meta.media.0.codec.sample_aspect_ratio">0</property>
  <property name="meta.media.0.codec.colorspace">601</property>
  <property name="meta.media.0.codec.color_trc">1</property>
  <property name="meta.media.0.codec.name">h264</property>
  <property name="meta.media.0.codec.long_name">H.264 / AVC / MPEG-4 AVC / MPEG-4 part 10</property>
  <property name="meta.media.0.codec.bit_rate">4057749</property>
  <property name="meta.attr.0.stream.rotate.markup">180</property>
  <property name="meta.attr.0.stream.creation_time.markup">2017-10-04T18:43:22.000000Z</property>
  <property name="meta.attr.0.stream.handler_name.markup">Core Media Data Handler</property>
  <property name="meta.attr.0.stream.encoder.markup">H.264</property>
  <property name="meta.media.1.stream.type">audio</property>
  <property name="meta.media.1.codec.sample_fmt">fltp</property>
  <property name="meta.media.1.codec.sample_rate">44100</property>
  <property name="meta.media.1.codec.channels">1</property>
  <property name="meta.media.1.codec.name">aac</property>
  <property name="meta.media.1.codec.long_name">AAC (Advanced Audio Coding)</property>
  <property name="meta.media.1.codec.bit_rate">66113</property>
  <property name="meta.attr.1.stream.creation_time.markup">2017-10-04T18:43:22.000000Z</property>
  <property name="meta.attr.1.stream.handler_name.markup">Core Media Data Handler</property>
  <property name="meta.attr.major_brand.markup">qt  </property>
  <property name="meta.attr.minor_version.markup">0</property>
  <property name="meta.attr.compatible_brands.markup">qt  </property>
  <property name="meta.attr.creation_time.markup">2017-10-04T18:43:22.000000Z</property>
  <property name="meta.attr.model.markup">iPhone 3GS</property>
  <property name="meta.attr.model-eng.markup">iPhone 3GS</property>
  <property name="meta.attr.encoder.markup">6.1.6</property>
  <property name="meta.attr.encoder-eng.markup">6.1.6</property>
  <property name="meta.attr.date.markup">2017-10-04T14:43:22-0400</property>
  <property name="meta.attr.date-eng.markup">2017-10-04T14:43:22-0400</property>
  <property name="meta.attr.location.markup">+44.8988-068.6687+029.067/</property>
  <property name="meta.attr.location-eng.markup">+44.8988-068.6687+029.067/</property>
  <property name="meta.attr.make.markup">Apple</property>
  <property name="meta.attr.make-eng.markup">Apple</property>
  <property name="meta.attr.com.apple.quicktime.make.markup">Apple</property>
  <property name="meta.attr.com.apple.quicktime.creationdate.markup">2017-10-04T14:43:22-0400</property>
  <property name="meta.attr.com.apple.quicktime.location.ISO6709.markup">+44.8988-068.6687+029.067/</property>
  <property name="meta.attr.com.apple.quicktime.software.markup">6.1.6</property>
  <property name="meta.attr.com.apple.quicktime.model.markup">iPhone 3GS</property>
  <property name="seekable">1</property>
  <property name="meta.media.sample_aspect_num">1</property>
  <property name="meta.media.sample_aspect_den">1</property>
  <property name="aspect_ratio">1</property>
  <property name="kdenlive:file_size">537425</property>
  <property name="kdenlive:file_hash">bdfe2b26c1c49d2ae4d4a8edcea8bb68</property>
  <property name="global_feed">1</property>
  <property name="meta.media.frame_rate_num">6200</property>
  <property name="meta.media.frame_rate_den">207</property>
  <property name="meta.media.colorspace">601</property>
  <property name="meta.media.color_trc">1</property>
  <property name="meta.media.width">640</property>
  <property name="meta.media.height">480</property>
  <property name="meta.media.top_field_first">0</property>
  <property name="meta.media.progressive">1</property>
 </producer>
 <producer title="Anonymous Submission" id="7" in="0" out="1110">
  <property name="length">00:00:37;01</property>
  <property name="eof">pause</property>
  <property name="resource">/run/media/kyan/Windows/Users/Elliot/Desktop/IMG_1942.MOV</property>
  <property name="audio_index">1</property>
  <property name="video_index">0</property>
  <property name="mute_on_pause">1</property>
  <property name="mlt_service">avformat-novalidate</property>
  <property name="meta.media.nb_streams">2</property>
  <property name="meta.media.0.stream.type">video</property>
  <property name="meta.media.0.stream.frame_rate">29.9677</property>
  <property name="meta.media.0.stream.sample_aspect_ratio">0</property>
  <property name="meta.media.0.codec.width">640</property>
  <property name="meta.media.0.codec.height">480</property>
  <property name="meta.media.0.codec.rotate">90</property>
  <property name="meta.media.0.codec.frame_rate">600</property>
  <property name="meta.media.0.codec.pix_fmt">yuv420p</property>
  <property name="meta.media.0.codec.sample_aspect_ratio">0</property>
  <property name="meta.media.0.codec.colorspace">601</property>
  <property name="meta.media.0.codec.color_trc">1</property>
  <property name="meta.media.0.codec.name">h264</property>
  <property name="meta.media.0.codec.long_name">H.264 / AVC / MPEG-4 AVC / MPEG-4 part 10</property>
  <property name="meta.media.0.codec.bit_rate">3537503</property>
  <property name="meta.attr.0.stream.rotate.markup">90</property>
  <property name="meta.attr.0.stream.creation_time.markup">2017-10-04T18:44:04.000000Z</property>
  <property name="meta.attr.0.stream.handler_name.markup">Core Media Data Handler</property>
  <property name="meta.attr.0.stream.encoder.markup">H.264</property>
  <property name="meta.media.1.stream.type">audio</property>
  <property name="meta.media.1.codec.sample_fmt">fltp</property>
  <property name="meta.media.1.codec.sample_rate">44100</property>
  <property name="meta.media.1.codec.channels">1</property>
  <property name="meta.media.1.codec.name">aac</property>
  <property name="meta.media.1.codec.long_name">AAC (Advanced Audio Coding)</property>
  <property name="meta.media.1.codec.bit_rate">63960</property>
  <property name="meta.attr.1.stream.creation_time.markup">2017-10-04T18:44:04.000000Z</property>
  <property name="meta.attr.1.stream.handler_name.markup">Core Media Data Handler</property>
  <property name="meta.attr.major_brand.markup">qt  </property>
  <property name="meta.attr.minor_version.markup">0</property>
  <property name="meta.attr.compatible_brands.markup">qt  </property>
  <property name="meta.attr.creation_time.markup">2017-10-04T18:44:04.000000Z</property>
  <property name="meta.attr.model.markup">iPhone 3GS</property>
  <property name="meta.attr.model-eng.markup">iPhone 3GS</property>
  <property name="meta.attr.encoder.markup">6.1.6</property>
  <property name="meta.attr.encoder-eng.markup">6.1.6</property>
  <property name="meta.attr.date.markup">2017-10-04T14:44:04-0400</property>
  <property name="meta.attr.date-eng.markup">2017-10-04T14:44:04-0400</property>
  <property name="meta.attr.location.markup">+44.8993-068.6688+073.066/</property>
  <property name="meta.attr.location-eng.markup">+44.8993-068.6688+073.066/</property>
  <property name="meta.attr.make.markup">Apple</property>
  <property name="meta.attr.make-eng.markup">Apple</property>
  <property name="meta.attr.com.apple.quicktime.make.markup">Apple</property>
  <property name="meta.attr.com.apple.quicktime.creationdate.markup">2017-10-04T14:44:04-0400</property>
  <property name="meta.attr.com.apple.quicktime.location.ISO6709.markup">+44.8993-068.6688+073.066/</property>
  <property name="meta.attr.com.apple.quicktime.software.markup">6.1.6</property>
  <property name="meta.attr.com.apple.quicktime.model.markup">iPhone 3GS</property>
  <property name="seekable">1</property>
  <property name="meta.media.sample_aspect_num">1</property>
  <property name="meta.media.sample_aspect_den">1</property>
  <property name="aspect_ratio">1</property>
  <property name="kdenlive:file_size">16761631</property>
  <property name="kdenlive:file_hash">682cba979a2fee4f613eb356b6f746f7</property>
  <property name="global_feed">1</property>
  <property name="meta.media.frame_rate_num">18550</property>
  <property name="meta.media.frame_rate_den">619</property>
  <property name="meta.media.colorspace">601</property>
  <property name="meta.media.color_trc">1</property>
  <property name="meta.media.width">640</property>
  <property name="meta.media.height">480</property>
  <property name="meta.media.top_field_first">0</property>
  <property name="meta.media.progressive">1</property>
 </producer>
 <producer title="Anonymous Submission" id="8" in="0" out="2922">
  <property name="length">00:01:37;15</property>
  <property name="eof">pause</property>
  <property name="resource">/run/media/kyan/Windows/Users/Elliot/Desktop/IMG_1943.MOV</property>
  <property name="audio_index">1</property>
  <property name="video_index">0</property>
  <property name="mute_on_pause">1</property>
  <property name="mlt_service">avformat-novalidate</property>
  <property name="meta.media.nb_streams">2</property>
  <property name="meta.media.0.stream.type">video</property>
  <property name="meta.media.0.stream.frame_rate">29.9693</property>
  <property name="meta.media.0.stream.sample_aspect_ratio">0</property>
  <property name="meta.media.0.codec.width">640</property>
  <property name="meta.media.0.codec.height">480</property>
  <property name="meta.media.0.codec.rotate">90</property>
  <property name="meta.media.0.codec.frame_rate">600</property>
  <property name="meta.media.0.codec.pix_fmt">yuv420p</property>
  <property name="meta.media.0.codec.sample_aspect_ratio">0</property>
  <property name="meta.media.0.codec.colorspace">601</property>
  <property name="meta.media.0.codec.color_trc">1</property>
  <property name="meta.media.0.codec.name">h264</property>
  <property name="meta.media.0.codec.long_name">H.264 / AVC / MPEG-4 AVC / MPEG-4 part 10</property>
  <property name="meta.media.0.codec.bit_rate">3558017</property>
  <property name="meta.attr.0.stream.rotate.markup">90</property>
  <property name="meta.attr.0.stream.creation_time.markup">2017-10-04T18:46:46.000000Z</property>
  <property name="meta.attr.0.stream.handler_name.markup">Core Media Data Handler</property>
  <property name="meta.attr.0.stream.encoder.markup">H.264</property>
  <property name="meta.media.1.stream.type">audio</property>
  <property name="meta.media.1.codec.sample_fmt">fltp</property>
  <property name="meta.media.1.codec.sample_rate">44100</property>
  <property name="meta.media.1.codec.channels">1</property>
  <property name="meta.media.1.codec.name">aac</property>
  <property name="meta.media.1.codec.long_name">AAC (Advanced Audio Coding)</property>
  <property name="meta.media.1.codec.bit_rate">63999</property>
  <property name="meta.attr.1.stream.creation_time.markup">2017-10-04T18:46:46.000000Z</property>
  <property name="meta.attr.1.stream.handler_name.markup">Core Media Data Handler</property>
  <property name="meta.attr.major_brand.markup">qt  </property>
  <property name="meta.attr.minor_version.markup">0</property>
  <property name="meta.attr.compatible_brands.markup">qt  </property>
  <property name="meta.attr.creation_time.markup">2017-10-04T18:46:46.000000Z</property>
  <property name="meta.attr.model.markup">iPhone 3GS</property>
  <property name="meta.attr.model-eng.markup">iPhone 3GS</property>
  <property name="meta.attr.encoder.markup">6.1.6</property>
  <property name="meta.attr.encoder-eng.markup">6.1.6</property>
  <property name="meta.attr.date.markup">2017-10-04T14:46:46-0400</property>
  <property name="meta.attr.date-eng.markup">2017-10-04T14:46:46-0400</property>
  <property name="meta.attr.location.markup">+44.8967-068.6707+073.066/</property>
  <property name="meta.attr.location-eng.markup">+44.8967-068.6707+073.066/</property>
  <property name="meta.attr.make.markup">Apple</property>
  <property name="meta.attr.make-eng.markup">Apple</property>
  <property name="meta.attr.com.apple.quicktime.make.markup">Apple</property>
  <property name="meta.attr.com.apple.quicktime.creationdate.markup">2017-10-04T14:46:46-0400</property>
  <property name="meta.attr.com.apple.quicktime.location.ISO6709.markup">+44.8967-068.6707+073.066/</property>
  <property name="meta.attr.com.apple.quicktime.software.markup">6.1.6</property>
  <property name="meta.attr.com.apple.quicktime.model.markup">iPhone 3GS</property>
  <property name="seekable">1</property>
  <property name="meta.media.sample_aspect_num">1</property>
  <property name="meta.media.sample_aspect_den">1</property>
  <property name="aspect_ratio">1</property>
  <property name="kdenlive:file_size">44283401</property>
  <property name="kdenlive:file_hash">da4da1fb7b8c73b998747b5d77fd4fb5</property>
  <property name="global_feed">1</property>
  <property name="meta.media.frame_rate_num">14625</property>
  <property name="meta.media.frame_rate_den">488</property>
  <property name="meta.media.colorspace">601</property>
  <property name="meta.media.color_trc">1</property>
  <property name="meta.media.width">640</property>
  <property name="meta.media.height">480</property>
  <property name="meta.media.top_field_first">0</property>
  <property name="meta.media.progressive">1</property>
 </producer>
 <producer title="Anonymous Submission" id="9" in="0" out="1824">
  <property name="length">00:01:00;27</property>
  <property name="eof">pause</property>
  <property name="resource">/run/media/kyan/Windows/Users/Elliot/Desktop/IMG_1944.MOV</property>
  <property name="audio_index">1</property>
  <property name="video_index">0</property>
  <property name="mute_on_pause">1</property>
  <property name="mlt_service">avformat-novalidate</property>
  <property name="meta.media.nb_streams">2</property>
  <property name="meta.media.0.stream.type">video</property>
  <property name="meta.media.0.stream.frame_rate">29.9778</property>
  <property name="meta.media.0.stream.sample_aspect_ratio">0</property>
  <property name="meta.media.0.codec.width">640</property>
  <property name="meta.media.0.codec.height">480</property>
  <property name="meta.media.0.codec.rotate">90</property>
  <property name="meta.media.0.codec.frame_rate">600</property>
  <property name="meta.media.0.codec.pix_fmt">yuv420p</property>
  <property name="meta.media.0.codec.sample_aspect_ratio">0</property>
  <property name="meta.media.0.codec.colorspace">601</property>
  <property name="meta.media.0.codec.color_trc">1</property>
  <property name="meta.media.0.codec.name">h264</property>
  <property name="meta.media.0.codec.long_name">H.264 / AVC / MPEG-4 AVC / MPEG-4 part 10</property>
  <property name="meta.media.0.codec.bit_rate">3618546</property>
  <property name="meta.attr.0.stream.rotate.markup">90</property>
  <property name="meta.attr.0.stream.creation_time.markup">2017-10-04T18:49:03.000000Z</property>
  <property name="meta.attr.0.stream.handler_name.markup">Core Media Data Handler</property>
  <property name="meta.attr.0.stream.encoder.markup">H.264</property>
  <property name="meta.media.1.stream.type">audio</property>
  <property name="meta.media.1.codec.sample_fmt">fltp</property>
  <property name="meta.media.1.codec.sample_rate">44100</property>
  <property name="meta.media.1.codec.channels">1</property>
  <property name="meta.media.1.codec.name">aac</property>
  <property name="meta.media.1.codec.long_name">AAC (Advanced Audio Coding)</property>
  <property name="meta.media.1.codec.bit_rate">63999</property>
  <property name="meta.attr.1.stream.creation_time.markup">2017-10-04T18:49:03.000000Z</property>
  <property name="meta.attr.1.stream.handler_name.markup">Core Media Data Handler</property>
  <property name="meta.attr.major_brand.markup">qt  </property>
  <property name="meta.attr.minor_version.markup">0</property>
  <property name="meta.attr.compatible_brands.markup">qt  </property>
  <property name="meta.attr.creation_time.markup">2017-10-04T18:49:03.000000Z</property>
  <property name="meta.attr.model.markup">iPhone 3GS</property>
  <property name="meta.attr.model-eng.markup">iPhone 3GS</property>
  <property name="meta.attr.encoder.markup">6.1.6</property>
  <property name="meta.attr.encoder-eng.markup">6.1.6</property>
  <property name="meta.attr.date.markup">2017-10-04T14:49:02-0400</property>
  <property name="meta.attr.date-eng.markup">2017-10-04T14:49:02-0400</property>
  <property name="meta.attr.location.markup">+44.8997-068.6687+062.066/</property>
  <property name="meta.attr.location-eng.markup">+44.8997-068.6687+062.066/</property>
  <property name="meta.attr.make.markup">Apple</property>
  <property name="meta.attr.make-eng.markup">Apple</property>
  <property name="meta.attr.com.apple.quicktime.make.markup">Apple</property>
  <property name="meta.attr.com.apple.quicktime.creationdate.markup">2017-10-04T14:49:02-0400</property>
  <property name="meta.attr.com.apple.quicktime.location.ISO6709.markup">+44.8997-068.6687+062.066/</property>
  <property name="meta.attr.com.apple.quicktime.software.markup">6.1.6</property>
  <property name="meta.attr.com.apple.quicktime.model.markup">iPhone 3GS</property>
  <property name="seekable">1</property>
  <property name="meta.media.sample_aspect_num">1</property>
  <property name="meta.media.sample_aspect_den">1</property>
  <property name="aspect_ratio">1</property>
  <property name="kdenlive:file_size">28098073</property>
  <property name="kdenlive:file_hash">1562572ef5d0eeb9721f2c128c2ada50</property>
  <property name="global_feed">1</property>
  <property name="meta.media.frame_rate_num">1095600</property>
  <property name="meta.media.frame_rate_den">36547</property>
  <property name="meta.media.colorspace">601</property>
  <property name="meta.media.color_trc">1</property>
  <property name="meta.media.width">640</property>
  <property name="meta.media.height">480</property>
  <property name="meta.media.top_field_first">0</property>
  <property name="meta.media.progressive">1</property>
 </producer>
 <producer title="Anonymous Submission" id="10" in="0" out="650">
  <property name="length">00:00:21;21</property>
  <property name="eof">pause</property>
  <property name="resource">/run/media/kyan/Windows/Users/Elliot/Desktop/IMG_1945.MOV</property>
  <property name="audio_index">1</property>
  <property name="video_index">0</property>
  <property name="mute_on_pause">1</property>
  <property name="mlt_service">avformat-novalidate</property>
  <property name="meta.media.nb_streams">2</property>
  <property name="meta.media.0.stream.type">video</property>
  <property name="meta.media.0.stream.frame_rate">29.9748</property>
  <property name="meta.media.0.stream.sample_aspect_ratio">0</property>
  <property name="meta.media.0.codec.width">640</property>
  <property name="meta.media.0.codec.height">480</property>
  <property name="meta.media.0.codec.rotate">90</property>
  <property name="meta.media.0.codec.frame_rate">600</property>
  <property name="meta.media.0.codec.pix_fmt">yuv420p</property>
  <property name="meta.media.0.codec.sample_aspect_ratio">0</property>
  <property name="meta.media.0.codec.colorspace">601</property>
  <property name="meta.media.0.codec.color_trc">1</property>
  <property name="meta.media.0.codec.name">h264</property>
  <property name="meta.media.0.codec.long_name">H.264 / AVC / MPEG-4 AVC / MPEG-4 part 10</property>
  <property name="meta.media.0.codec.bit_rate">3450447</property>
  <property name="meta.attr.0.stream.rotate.markup">90</property>
  <property name="meta.attr.0.stream.creation_time.markup">2017-10-04T18:50:12.000000Z</property>
  <property name="meta.attr.0.stream.handler_name.markup">Core Media Data Handler</property>
  <property name="meta.attr.0.stream.encoder.markup">H.264</property>
  <property name="meta.media.1.stream.type">audio</property>
  <property name="meta.media.1.codec.sample_fmt">fltp</property>
  <property name="meta.media.1.codec.sample_rate">44100</property>
  <property name="meta.media.1.codec.channels">1</property>
  <property name="meta.media.1.codec.name">aac</property>
  <property name="meta.media.1.codec.long_name">AAC (Advanced Audio Coding)</property>
  <property name="meta.media.1.codec.bit_rate">63932</property>
  <property name="meta.attr.1.stream.creation_time.markup">2017-10-04T18:50:12.000000Z</property>
  <property name="meta.attr.1.stream.handler_name.markup">Core Media Data Handler</property>
  <property name="meta.attr.major_brand.markup">qt  </property>
  <property name="meta.attr.minor_version.markup">0</property>
  <property name="meta.attr.compatible_brands.markup">qt  </property>
  <property name="meta.attr.creation_time.markup">2017-10-04T18:50:12.000000Z</property>
  <property name="meta.attr.model.markup">iPhone 3GS</property>
  <property name="meta.attr.model-eng.markup">iPhone 3GS</property>
  <property name="meta.attr.encoder.markup">6.1.6</property>
  <property name="meta.attr.encoder-eng.markup">6.1.6</property>
  <property name="meta.attr.date.markup">2017-10-04T14:50:12-0400</property>
  <property name="meta.attr.date-eng.markup">2017-10-04T14:50:12-0400</property>
  <property name="meta.attr.location.markup">+44.8997-068.6686+029.066/</property>
  <property name="meta.attr.location-eng.markup">+44.8997-068.6686+029.066/</property>
  <property name="meta.attr.make.markup">Apple</property>
  <property name="meta.attr.make-eng.markup">Apple</property>
  <property name="meta.attr.com.apple.quicktime.make.markup">Apple</property>
  <property name="meta.attr.com.apple.quicktime.creationdate.markup">2017-10-04T14:50:12-0400</property>
  <property name="meta.attr.com.apple.quicktime.location.ISO6709.markup">+44.8997-068.6686+029.066/</property>
  <property name="meta.attr.com.apple.quicktime.software.markup">6.1.6</property>
  <property name="meta.attr.com.apple.quicktime.model.markup">iPhone 3GS</property>
  <property name="seekable">1</property>
  <property name="meta.media.sample_aspect_num">1</property>
  <property name="meta.media.sample_aspect_den">1</property>
  <property name="aspect_ratio">1</property>
  <property name="kdenlive:file_size">9612582</property>
  <property name="kdenlive:file_hash">1780d327403b60abf7ee3c5362653c33</property>
  <property name="global_feed">1</property>
  <property name="meta.media.frame_rate_num">392400</property>
  <property name="meta.media.frame_rate_den">13091</property>
  <property name="meta.media.colorspace">601</property>
  <property name="meta.media.color_trc">1</property>
  <property name="meta.media.width">640</property>
  <property name="meta.media.height">480</property>
  <property name="meta.media.top_field_first">0</property>
  <property name="meta.media.progressive">1</property>
 </producer>
 <producer title="Anonymous Submission" id="11" in="0" out="230">
  <property name="length">00:00:07;21</property>
  <property name="eof">pause</property>
  <property name="resource">/run/media/kyan/Windows/Users/Elliot/Desktop/IMG_1946.MOV</property>
  <property name="audio_index">1</property>
  <property name="video_index">0</property>
  <property name="mute_on_pause">1</property>
  <property name="mlt_service">avformat-novalidate</property>
  <property name="meta.media.nb_streams">2</property>
  <property name="meta.media.0.stream.type">video</property>
  <property name="meta.media.0.stream.frame_rate">29.987</property>
  <property name="meta.media.0.stream.sample_aspect_ratio">0</property>
  <property name="meta.media.0.codec.width">640</property>
  <property name="meta.media.0.codec.height">480</property>
  <property name="meta.media.0.codec.rotate">90</property>
  <property name="meta.media.0.codec.frame_rate">600</property>
  <property name="meta.media.0.codec.pix_fmt">yuv420p</property>
  <property name="meta.media.0.codec.sample_aspect_ratio">0</property>
  <property name="meta.media.0.codec.colorspace">601</property>
  <property name="meta.media.0.codec.color_trc">1</property>
  <property name="meta.media.0.codec.name">h264</property>
  <property name="meta.media.0.codec.long_name">H.264 / AVC / MPEG-4 AVC / MPEG-4 part 10</property>
  <property name="meta.media.0.codec.bit_rate">3615642</property>
  <property name="meta.attr.0.stream.rotate.markup">90</property>
  <property name="meta.attr.0.stream.creation_time.markup">2017-10-04T18:50:46.000000Z</property>
  <property name="meta.attr.0.stream.handler_name.markup">Core Media Data Handler</property>
  <property name="meta.attr.0.stream.encoder.markup">H.264</property>
  <property name="meta.media.1.stream.type">audio</property>
  <property name="meta.media.1.codec.sample_fmt">fltp</property>
  <property name="meta.media.1.codec.sample_rate">44100</property>
  <property name="meta.media.1.codec.channels">1</property>
  <property name="meta.media.1.codec.name">aac</property>
  <property name="meta.media.1.codec.long_name">AAC (Advanced Audio Coding)</property>
  <property name="meta.media.1.codec.bit_rate">64126</property>
  <property name="meta.attr.1.stream.creation_time.markup">2017-10-04T18:50:46.000000Z</property>
  <property name="meta.attr.1.stream.handler_name.markup">Core Media Data Handler</property>
  <property name="meta.attr.major_brand.markup">qt  </property>
  <property name="meta.attr.minor_version.markup">0</property>
  <property name="meta.attr.compatible_brands.markup">qt  </property>
  <property name="meta.attr.creation_time.markup">2017-10-04T18:50:46.000000Z</property>
  <property name="meta.attr.model.markup">iPhone 3GS</property>
  <property name="meta.attr.model-eng.markup">iPhone 3GS</property>
  <property name="meta.attr.encoder.markup">6.1.6</property>
  <property name="meta.attr.encoder-eng.markup">6.1.6</property>
  <property name="meta.attr.date.markup">2017-10-04T14:50:46-0400</property>
  <property name="meta.attr.date-eng.markup">2017-10-04T14:50:46-0400</property>
  <property name="meta.attr.location.markup">+44.8998-068.6686+058.066/</property>
  <property name="meta.attr.location-eng.markup">+44.8998-068.6686+058.066/</property>
  <property name="meta.attr.make.markup">Apple</property>
  <property name="meta.attr.make-eng.markup">Apple</property>
  <property name="meta.attr.com.apple.quicktime.make.markup">Apple</property>
  <property name="meta.attr.com.apple.quicktime.creationdate.markup">2017-10-04T14:50:46-0400</property>
  <property name="meta.attr.com.apple.quicktime.location.ISO6709.markup">+44.8998-068.6686+058.066/</property>
  <property name="meta.attr.com.apple.quicktime.software.markup">6.1.6</property>
  <property name="meta.attr.com.apple.quicktime.model.markup">iPhone 3GS</property>
  <property name="seekable">1</property>
  <property name="meta.media.sample_aspect_num">1</property>
  <property name="meta.media.sample_aspect_den">1</property>
  <property name="aspect_ratio">1</property>
  <property name="kdenlive:file_size">3545278</property>
  <property name="kdenlive:file_hash">d3799330349018cd19f6b1c1546ecc8d</property>
  <property name="global_feed">1</property>
  <property name="meta.media.frame_rate_num">69300</property>
  <property name="meta.media.frame_rate_den">2311</property>
  <property name="meta.media.colorspace">601</property>
  <property name="meta.media.color_trc">1</property>
  <property name="meta.media.width">640</property>
  <property name="meta.media.height">480</property>
  <property name="meta.media.top_field_first">0</property>
  <property name="meta.media.progressive">1</property>
 </producer>
 <producer title="Anonymous Submission" id="12" in="0" out="1772">
  <property name="length">00:00:59;03</property>
  <property name="eof">pause</property>
  <property name="resource">/run/media/kyan/Windows/Users/Elliot/Desktop/IMG_1947.MOV</property>
  <property name="audio_index">1</property>
  <property name="video_index">0</property>
  <property name="mute_on_pause">1</property>
  <property name="mlt_service">avformat-novalidate</property>
  <property name="meta.media.nb_streams">2</property>
  <property name="meta.media.0.stream.type">video</property>
  <property name="meta.media.0.stream.frame_rate">29.9739</property>
  <property name="meta.media.0.stream.sample_aspect_ratio">0</property>
  <property name="meta.media.0.codec.width">640</property>
  <property name="meta.media.0.codec.height">480</property>
  <property name="meta.media.0.codec.rotate">90</property>
  <property name="meta.media.0.codec.frame_rate">600</property>
  <property name="meta.media.0.codec.pix_fmt">yuv420p</property>
  <property name="meta.media.0.codec.sample_aspect_ratio">0</property>
  <property name="meta.media.0.codec.colorspace">601</property>
  <property name="meta.media.0.codec.color_trc">1</property>
  <property name="meta.media.0.codec.name">h264</property>
  <property name="meta.media.0.codec.long_name">H.264 / AVC / MPEG-4 AVC / MPEG-4 part 10</property>
  <property name="meta.media.0.codec.bit_rate">3446611</property>
  <property name="meta.attr.0.stream.rotate.markup">90</property>
  <property name="meta.attr.0.stream.creation_time.markup">2017-10-04T18:51:27.000000Z</property>
  <property name="meta.attr.0.stream.handler_name.markup">Core Media Data Handler</property>
  <property name="meta.attr.0.stream.encoder.markup">H.264</property>
  <property name="meta.media.1.stream.type">audio</property>
  <property name="meta.media.1.codec.sample_fmt">fltp</property>
  <property name="meta.media.1.codec.sample_rate">44100</property>
  <property name="meta.media.1.codec.channels">1</property>
  <property name="meta.media.1.codec.name">aac</property>
  <property name="meta.media.1.codec.long_name">AAC (Advanced Audio Coding)</property>
  <property name="meta.media.1.codec.bit_rate">63998</property>
  <property name="meta.attr.1.stream.creation_time.markup">2017-10-04T18:51:27.000000Z</property>
  <property name="meta.attr.1.stream.handler_name.markup">Core Media Data Handler</property>
  <property name="meta.attr.major_brand.markup">qt  </property>
  <property name="meta.attr.minor_version.markup">0</property>
  <property name="meta.attr.compatible_brands.markup">qt  </property>
  <property name="meta.attr.creation_time.markup">2017-10-04T18:51:27.000000Z</property>
  <property name="meta.attr.model.markup">iPhone 3GS</property>
  <property name="meta.attr.model-eng.markup">iPhone 3GS</property>
  <property name="meta.attr.encoder.markup">6.1.6</property>
  <property name="meta.attr.encoder-eng.markup">6.1.6</property>
  <property name="meta.attr.date.markup">2017-10-04T14:51:27-0400</property>
  <property name="meta.attr.date-eng.markup">2017-10-04T14:51:27-0400</property>
  <property name="meta.attr.location.markup">+44.8998-068.6689+061.066/</property>
  <property name="meta.attr.location-eng.markup">+44.8998-068.6689+061.066/</property>
  <property name="meta.attr.make.markup">Apple</property>
  <property name="meta.attr.make-eng.markup">Apple</property>
  <property name="meta.attr.com.apple.quicktime.make.markup">Apple</property>
  <property name="meta.attr.com.apple.quicktime.creationdate.markup">2017-10-04T14:51:27-0400</property>
  <property name="meta.attr.com.apple.quicktime.location.ISO6709.markup">+44.8998-068.6689+061.066/</property>
  <property name="meta.attr.com.apple.quicktime.software.markup">6.1.6</property>
  <property name="meta.attr.com.apple.quicktime.model.markup">iPhone 3GS</property>
  <property name="seekable">1</property>
  <property name="meta.media.sample_aspect_num">1</property>
  <property name="meta.media.sample_aspect_den">1</property>
  <property name="aspect_ratio">1</property>
  <property name="kdenlive:file_size">26088393</property>
  <property name="kdenlive:file_hash">141dfa27020c306be2873e938b4b48c0</property>
  <property name="global_feed">1</property>
  <property name="meta.media.frame_rate_num">1066800</property>
  <property name="meta.media.frame_rate_den">35591</property>
  <property name="meta.media.colorspace">601</property>
  <property name="meta.media.color_trc">1</property>
  <property name="meta.media.width">640</property>
  <property name="meta.media.height">480</property>
  <property name="meta.media.top_field_first">0</property>
  <property name="meta.media.progressive">1</property>
 </producer>
 <producer title="Anonymous Submission" id="13" in="0" out="2225">
  <property name="length">00:01:14;08</property>
  <property name="eof">pause</property>
  <property name="resource">/run/media/kyan/Windows/Users/Elliot/Desktop/IMG_1948.MOV</property>
  <property name="audio_index">1</property>
  <property name="video_index">0</property>
  <property name="mute_on_pause">1</property>
  <property name="mlt_service">avformat-novalidate</property>
  <property name="meta.media.nb_streams">2</property>
  <property name="meta.media.0.stream.type">video</property>
  <property name="meta.media.0.stream.frame_rate">29.9812</property>
  <property name="meta.media.0.stream.sample_aspect_ratio">0</property>
  <property name="meta.media.0.codec.width">640</property>
  <property name="meta.media.0.codec.height">480</property>
  <property name="meta.media.0.codec.rotate">0</property>
  <property name="meta.media.0.codec.frame_rate">600</property>
  <property name="meta.media.0.codec.pix_fmt">yuv420p</property>
  <property name="meta.media.0.codec.sample_aspect_ratio">0</property>
  <property name="meta.media.0.codec.colorspace">601</property>
  <property name="meta.media.0.codec.color_trc">1</property>
  <property name="meta.media.0.codec.name">h264</property>
  <property name="meta.media.0.codec.long_name">H.264 / AVC / MPEG-4 AVC / MPEG-4 part 10</property>
  <property name="meta.media.0.codec.bit_rate">3468710</property>
  <property name="meta.attr.0.stream.creation_time.markup">2017-10-04T18:52:43.000000Z</property>
  <property name="meta.attr.0.stream.handler_name.markup">Core Media Data Handler</property>
  <property name="meta.attr.0.stream.encoder.markup">H.264</property>
  <property name="meta.media.1.stream.type">audio</property>
  <property name="meta.media.1.codec.sample_fmt">fltp</property>
  <property name="meta.media.1.codec.sample_rate">44100</property>
  <property name="meta.media.1.codec.channels">1</property>
  <property name="meta.media.1.codec.name">aac</property>
  <property name="meta.media.1.codec.long_name">AAC (Advanced Audio Coding)</property>
  <property name="meta.media.1.codec.bit_rate">63998</property>
  <property name="meta.attr.1.stream.creation_time.markup">2017-10-04T18:52:43.000000Z</property>
  <property name="meta.attr.1.stream.handler_name.markup">Core Media Data Handler</property>
  <property name="meta.attr.major_brand.markup">qt  </property>
  <property name="meta.attr.minor_version.markup">0</property>
  <property name="meta.attr.compatible_brands.markup">qt  </property>
  <property name="meta.attr.creation_time.markup">2017-10-04T18:52:43.000000Z</property>
  <property name="meta.attr.model.markup">iPhone 3GS</property>
  <property name="meta.attr.model-eng.markup">iPhone 3GS</property>
  <property name="meta.attr.encoder.markup">6.1.6</property>
  <property name="meta.attr.encoder-eng.markup">6.1.6</property>
  <property name="meta.attr.date.markup">2017-10-04T14:52:43-0400</property>
  <property name="meta.attr.date-eng.markup">2017-10-04T14:52:43-0400</property>
  <property name="meta.attr.location.markup">+44.9009-068.6704+061.066/</property>
  <property name="meta.attr.location-eng.markup">+44.9009-068.6704+061.066/</property>
  <property name="meta.attr.make.markup">Apple</property>
  <property name="meta.attr.make-eng.markup">Apple</property>
  <property name="meta.attr.com.apple.quicktime.make.markup">Apple</property>
  <property name="meta.attr.com.apple.quicktime.creationdate.markup">2017-10-04T14:52:43-0400</property>
  <property name="meta.attr.com.apple.quicktime.location.ISO6709.markup">+44.9009-068.6704+061.066/</property>
  <property name="meta.attr.com.apple.quicktime.software.markup">6.1.6</property>
  <property name="meta.attr.com.apple.quicktime.model.markup">iPhone 3GS</property>
  <property name="seekable">1</property>
  <property name="meta.media.sample_aspect_num">1</property>
  <property name="meta.media.sample_aspect_den">1</property>
  <property name="aspect_ratio">1</property>
  <property name="kdenlive:file_size">32877151</property>
  <property name="kdenlive:file_hash">1e8a813091e4324176f7b53548550c75</property>
  <property name="global_feed">1</property>
  <property name="meta.media.frame_rate_num">55675</property>
  <property name="meta.media.frame_rate_den">1857</property>
  <property name="meta.media.colorspace">601</property>
  <property name="meta.media.color_trc">1</property>
  <property name="meta.media.width">640</property>
  <property name="meta.media.height">480</property>
  <property name="meta.media.top_field_first">0</property>
  <property name="meta.media.progressive">1</property>
 </producer>
 <producer title="Anonymous Submission" id="14" in="0" out="829">
  <property name="length">00:00:27;20</property>
  <property name="eof">pause</property>
  <property name="resource">/run/media/kyan/Windows/Users/Elliot/Desktop/IMG_1949.MOV</property>
  <property name="audio_index">1</property>
  <property name="video_index">0</property>
  <property name="mute_on_pause">1</property>
  <property name="mlt_service">avformat-novalidate</property>
  <property name="meta.media.nb_streams">2</property>
  <property name="meta.media.0.stream.type">video</property>
  <property name="meta.media.0.stream.frame_rate">29.9712</property>
  <property name="meta.media.0.stream.sample_aspect_ratio">0</property>
  <property name="meta.media.0.codec.width">640</property>
  <property name="meta.media.0.codec.height">480</property>
  <property name="meta.media.0.codec.rotate">0</property>
  <property name="meta.media.0.codec.frame_rate">600</property>
  <property name="meta.media.0.codec.pix_fmt">yuv420p</property>
  <property name="meta.media.0.codec.sample_aspect_ratio">0</property>
  <property name="meta.media.0.codec.colorspace">601</property>
  <property name="meta.media.0.codec.color_trc">1</property>
  <property name="meta.media.0.codec.name">h264</property>
  <property name="meta.media.0.codec.long_name">H.264 / AVC / MPEG-4 AVC / MPEG-4 part 10</property>
  <property name="meta.media.0.codec.bit_rate">3587315</property>
  <property name="meta.attr.0.stream.creation_time.markup">2017-10-04T18:54:13.000000Z</property>
  <property name="meta.attr.0.stream.handler_name.markup">Core Media Data Handler</property>
  <property name="meta.attr.0.stream.encoder.markup">H.264</property>
  <property name="meta.media.1.stream.type">audio</property>
  <property name="meta.media.1.codec.sample_fmt">fltp</property>
  <property name="meta.media.1.codec.sample_rate">44100</property>
  <property name="meta.media.1.codec.channels">1</property>
  <property name="meta.media.1.codec.name">aac</property>
  <property name="meta.media.1.codec.long_name">AAC (Advanced Audio Coding)</property>
  <property name="meta.media.1.codec.bit_rate">63996</property>
  <property name="meta.attr.1.stream.creation_time.markup">2017-10-04T18:54:13.000000Z</property>
  <property name="meta.attr.1.stream.handler_name.markup">Core Media Data Handler</property>
  <property name="meta.attr.major_brand.markup">qt  </property>
  <property name="meta.attr.minor_version.markup">0</property>
  <property name="meta.attr.compatible_brands.markup">qt  </property>
  <property name="meta.attr.creation_time.markup">2017-10-04T18:54:13.000000Z</property>
  <property name="meta.attr.model.markup">iPhone 3GS</property>
  <property name="meta.attr.model-eng.markup">iPhone 3GS</property>
  <property name="meta.attr.encoder.markup">6.1.6</property>
  <property name="meta.attr.encoder-eng.markup">6.1.6</property>
  <property name="meta.attr.date.markup">2017-10-04T14:54:13-0400</property>
  <property name="meta.attr.date-eng.markup">2017-10-04T14:54:13-0400</property>
  <property name="meta.attr.location.markup">+44.8998-068.6688+029.066/</property>
  <property name="meta.attr.location-eng.markup">+44.8998-068.6688+029.066/</property>
  <property name="meta.attr.make.markup">Apple</property>
  <property name="meta.attr.make-eng.markup">Apple</property>
  <property name="meta.attr.com.apple.quicktime.make.markup">Apple</property>
  <property name="meta.attr.com.apple.quicktime.creationdate.markup">2017-10-04T14:54:13-0400</property>
  <property name="meta.attr.com.apple.quicktime.location.ISO6709.markup">+44.8998-068.6688+029.066/</property>
  <property name="meta.attr.com.apple.quicktime.software.markup">6.1.6</property>
  <property name="meta.attr.com.apple.quicktime.model.markup">iPhone 3GS</property>
  <property name="seekable">1</property>
  <property name="meta.media.sample_aspect_num">1</property>
  <property name="meta.media.sample_aspect_den">1</property>
  <property name="aspect_ratio">1</property>
  <property name="kdenlive:file_size">12717214</property>
  <property name="kdenlive:file_hash">f2320203e2de5989a4b5fe9672bcc6c6</property>
  <property name="global_feed">1</property>
  <property name="meta.media.frame_rate_num">124950</property>
  <property name="meta.media.frame_rate_den">4169</property>
  <property name="meta.media.colorspace">601</property>
  <property name="meta.media.color_trc">1</property>
  <property name="meta.media.width">640</property>
  <property name="meta.media.height">480</property>
  <property name="meta.media.top_field_first">0</property>
  <property name="meta.media.progressive">1</property>
 </producer>
 <producer title="Anonymous Submission" id="15" in="0" out="3989">
  <property name="length">00:02:13;04</property>
  <property name="eof">pause</property>
  <property name="resource">/run/media/kyan/Windows/Users/Elliot/Desktop/IMG_1950.MOV</property>
  <property name="audio_index">1</property>
  <property name="video_index">0</property>
  <property name="mute_on_pause">1</property>
  <property name="mlt_service">avformat-novalidate</property>
  <property name="meta.media.nb_streams">2</property>
  <property name="meta.media.0.stream.type">video</property>
  <property name="meta.media.0.stream.frame_rate">29.9703</property>
  <property name="meta.media.0.stream.sample_aspect_ratio">0</property>
  <property name="meta.media.0.codec.width">640</property>
  <property name="meta.media.0.codec.height">480</property>
  <property name="meta.media.0.codec.rotate">90</property>
  <property name="meta.media.0.codec.frame_rate">600</property>
  <property name="meta.media.0.codec.pix_fmt">yuv420p</property>
  <property name="meta.media.0.codec.sample_aspect_ratio">0</property>
  <property name="meta.media.0.codec.colorspace">601</property>
  <property name="meta.media.0.codec.color_trc">1</property>
  <property name="meta.media.0.codec.name">h264</property>
  <property name="meta.media.0.codec.long_name">H.264 / AVC / MPEG-4 AVC / MPEG-4 part 10</property>
  <property name="meta.media.0.codec.bit_rate">3512528</property>
  <property name="meta.attr.0.stream.rotate.markup">90</property>
  <property name="meta.attr.0.stream.creation_time.markup">2017-10-04T18:56:27.000000Z</property>
  <property name="meta.attr.0.stream.handler_name.markup">Core Media Data Handler</property>
  <property name="meta.attr.0.stream.encoder.markup">H.264</property>
  <property name="meta.media.1.stream.type">audio</property>
  <property name="meta.media.1.codec.sample_fmt">fltp</property>
  <property name="meta.media.1.codec.sample_rate">44100</property>
  <property name="meta.media.1.codec.channels">1</property>
  <property name="meta.media.1.codec.name">aac</property>
  <property name="meta.media.1.codec.long_name">AAC (Advanced Audio Coding)</property>
  <property name="meta.media.1.codec.bit_rate">63998</property>
  <property name="meta.attr.1.stream.creation_time.markup">2017-10-04T18:56:27.000000Z</property>
  <property name="meta.attr.1.stream.handler_name.markup">Core Media Data Handler</property>
  <property name="meta.attr.major_brand.markup">qt  </property>
  <property name="meta.attr.minor_version.markup">0</property>
  <property name="meta.attr.compatible_brands.markup">qt  </property>
  <property name="meta.attr.creation_time.markup">2017-10-04T18:56:27.000000Z</property>
  <property name="meta.attr.model.markup">iPhone 3GS</property>
  <property name="meta.attr.model-eng.markup">iPhone 3GS</property>
  <property name="meta.attr.encoder.markup">6.1.6</property>
  <property name="meta.attr.encoder-eng.markup">6.1.6</property>
  <property name="meta.attr.date.markup">2017-10-04T14:56:27-0400</property>
  <property name="meta.attr.date-eng.markup">2017-10-04T14:56:27-0400</property>
  <property name="meta.attr.location.markup">+44.8993-068.6690+060.067/</property>
  <property name="meta.attr.location-eng.markup">+44.8993-068.6690+060.067/</property>
  <property name="meta.attr.make.markup">Apple</property>
  <property name="meta.attr.make-eng.markup">Apple</property>
  <property name="meta.attr.com.apple.quicktime.make.markup">Apple</property>
  <property name="meta.attr.com.apple.quicktime.creationdate.markup">2017-10-04T14:56:27-0400</property>
  <property name="meta.attr.com.apple.quicktime.location.ISO6709.markup">+44.8993-068.6690+060.067/</property>
  <property name="meta.attr.com.apple.quicktime.software.markup">6.1.6</property>
  <property name="meta.attr.com.apple.quicktime.model.markup">iPhone 3GS</property>
  <property name="seekable">1</property>
  <property name="meta.media.sample_aspect_num">1</property>
  <property name="meta.media.sample_aspect_den">1</property>
  <property name="aspect_ratio">1</property>
  <property name="kdenlive:file_size">59659615</property>
  <property name="kdenlive:file_hash">062ba99220c768f9cecdeb3b28ef535c</property>
  <property name="global_feed">1</property>
  <property name="meta.media.frame_rate_num">798200</property>
  <property name="meta.media.frame_rate_den">26633</property>
  <property name="meta.media.colorspace">601</property>
  <property name="meta.media.color_trc">1</property>
  <property name="meta.media.width">640</property>
  <property name="meta.media.height">480</property>
  <property name="meta.media.top_field_first">0</property>
  <property name="meta.media.progressive">1</property>
 </producer>
 <producer title="Anonymous Submission" id="16" in="0" out="23">
  <property name="length">00:00:00;24</property>
  <property name="eof">pause</property>
  <property name="resource">/run/media/kyan/Windows/Users/Elliot/Desktop/IMG_1951.MOV</property>
  <property name="audio_index">1</property>
  <property name="video_index">0</property>
  <property name="mute_on_pause">1</property>
  <property name="mlt_service">avformat-novalidate</property>
  <property name="meta.media.nb_streams">2</property>
  <property name="meta.media.0.stream.type">video</property>
  <property name="meta.media.0.stream.frame_rate">21.4286</property>
  <property name="meta.media.0.stream.sample_aspect_ratio">0</property>
  <property name="meta.media.0.codec.width">640</property>
  <property name="meta.media.0.codec.height">480</property>
  <property name="meta.media.0.codec.rotate">90</property>
  <property name="meta.media.0.codec.frame_rate">600</property>
  <property name="meta.media.0.codec.pix_fmt">yuv420p</property>
  <property name="meta.media.0.codec.sample_aspect_ratio">0</property>
  <property name="meta.media.0.codec.colorspace">601</property>
  <property name="meta.media.0.codec.color_trc">1</property>
  <property name="meta.media.0.codec.name">h264</property>
  <property name="meta.media.0.codec.long_name">H.264 / AVC / MPEG-4 AVC / MPEG-4 part 10</property>
  <property name="meta.media.0.codec.bit_rate">3670994</property>
  <property name="meta.attr.0.stream.rotate.markup">90</property>
  <property name="meta.attr.0.stream.creation_time.markup">2017-10-04T18:59:02.000000Z</property>
  <property name="meta.attr.0.stream.handler_name.markup">Core Media Data Handler</property>
  <property name="meta.attr.0.stream.encoder.markup">H.264</property>
  <property name="meta.media.1.stream.type">audio</property>
  <property name="meta.media.1.codec.sample_fmt">fltp</property>
  <property name="meta.media.1.codec.sample_rate">44100</property>
  <property name="meta.media.1.codec.channels">1</property>
  <property name="meta.media.1.codec.name">aac</property>
  <property name="meta.media.1.codec.long_name">AAC (Advanced Audio Coding)</property>
  <property name="meta.media.1.codec.bit_rate">64045</property>
  <property name="meta.attr.1.stream.creation_time.markup">2017-10-04T18:59:02.000000Z</property>
  <property name="meta.attr.1.stream.handler_name.markup">Core Media Data Handler</property>
  <property name="meta.attr.major_brand.markup">qt  </property>
  <property name="meta.attr.minor_version.markup">0</property>
  <property name="meta.attr.compatible_brands.markup">qt  </property>
  <property name="meta.attr.creation_time.markup">2017-10-04T18:59:02.000000Z</property>
  <property name="meta.attr.model.markup">iPhone 3GS</property>
  <property name="meta.attr.model-eng.markup">iPhone 3GS</property>
  <property name="meta.attr.encoder.markup">6.1.6</property>
  <property name="meta.attr.encoder-eng.markup">6.1.6</property>
  <property name="meta.attr.date.markup">2017-10-04T14:59:02-0400</property>
  <property name="meta.attr.date-eng.markup">2017-10-04T14:59:02-0400</property>
  <property name="meta.attr.location.markup">+44.8993-068.6689+029.067/</property>
  <property name="meta.attr.location-eng.markup">+44.8993-068.6689+029.067/</property>
  <property name="meta.attr.make.markup">Apple</property>
  <property name="meta.attr.make-eng.markup">Apple</property>
  <property name="meta.attr.com.apple.quicktime.make.markup">Apple</property>
  <property name="meta.attr.com.apple.quicktime.creationdate.markup">2017-10-04T14:59:02-0400</property>
  <property name="meta.attr.com.apple.quicktime.location.ISO6709.markup">+44.8993-068.6689+029.067/</property>
  <property name="meta.attr.com.apple.quicktime.software.markup">6.1.6</property>
  <property name="meta.attr.com.apple.quicktime.model.markup">iPhone 3GS</property>
  <property name="seekable">1</property>
  <property name="meta.media.sample_aspect_num">1</property>
  <property name="meta.media.sample_aspect_den">1</property>
  <property name="aspect_ratio">1</property>
  <property name="kdenlive:file_size">332371</property>
  <property name="kdenlive:file_hash">864bc3a2b77b6851f3fb9631f9f58ce9</property>
  <property name="global_feed">1</property>
  <property name="meta.media.frame_rate_num">150</property>
  <property name="meta.media.frame_rate_den">7</property>
  <property name="meta.media.colorspace">601</property>
  <property name="meta.media.color_trc">1</property>
  <property name="meta.media.width">640</property>
  <property name="meta.media.height">480</property>
  <property name="meta.media.top_field_first">0</property>
  <property name="meta.media.progressive">1</property>
 </producer>
 <producer title="Anonymous Submission" id="17" in="0" out="2205">
  <property name="length">00:01:13;18</property>
  <property name="eof">pause</property>
  <property name="resource">/run/media/kyan/Windows/Users/Elliot/Desktop/IMG_1952.MOV</property>
  <property name="audio_index">1</property>
  <property name="video_index">0</property>
  <property name="mute_on_pause">1</property>
  <property name="mlt_service">avformat-novalidate</property>
  <property name="meta.media.nb_streams">2</property>
  <property name="meta.media.0.stream.type">video</property>
  <property name="meta.media.0.stream.frame_rate">29.9708</property>
  <property name="meta.media.0.stream.sample_aspect_ratio">0</property>
  <property name="meta.media.0.codec.width">640</property>
  <property name="meta.media.0.codec.height">480</property>
  <property name="meta.media.0.codec.rotate">90</property>
  <property name="meta.media.0.codec.frame_rate">600</property>
  <property name="meta.media.0.codec.pix_fmt">yuv420p</property>
  <property name="meta.media.0.codec.sample_aspect_ratio">0</property>
  <property name="meta.media.0.codec.colorspace">601</property>
  <property name="meta.media.0.codec.color_trc">1</property>
  <property name="meta.media.0.codec.name">h264</property>
  <property name="meta.media.0.codec.long_name">H.264 / AVC / MPEG-4 AVC / MPEG-4 part 10</property>
  <property name="meta.media.0.codec.bit_rate">3552987</property>
  <property name="meta.attr.0.stream.rotate.markup">90</property>
  <property name="meta.attr.0.stream.creation_time.markup">2017-10-04T19:02:57.000000Z</property>
  <property name="meta.attr.0.stream.handler_name.markup">Core Media Data Handler</property>
  <property name="meta.attr.0.stream.encoder.markup">H.264</property>
  <property name="meta.media.1.stream.type">audio</property>
  <property name="meta.media.1.codec.sample_fmt">fltp</property>
  <property name="meta.media.1.codec.sample_rate">44100</property>
  <property name="meta.media.1.codec.channels">1</property>
  <property name="meta.media.1.codec.name">aac</property>
  <property name="meta.media.1.codec.long_name">AAC (Advanced Audio Coding)</property>
  <property name="meta.media.1.codec.bit_rate">63999</property>
  <property name="meta.attr.1.stream.creation_time.markup">2017-10-04T19:02:57.000000Z</property>
  <property name="meta.attr.1.stream.handler_name.markup">Core Media Data Handler</property>
  <property name="meta.attr.major_brand.markup">qt  </property>
  <property name="meta.attr.minor_version.markup">0</property>
  <property name="meta.attr.compatible_brands.markup">qt  </property>
  <property name="meta.attr.creation_time.markup">2017-10-04T19:02:57.000000Z</property>
  <property name="meta.attr.model.markup">iPhone 3GS</property>
  <property name="meta.attr.model-eng.markup">iPhone 3GS</property>
  <property name="meta.attr.encoder.markup">6.1.6</property>
  <property name="meta.attr.encoder-eng.markup">6.1.6</property>
  <property name="meta.attr.date.markup">2017-10-04T15:02:57-0400</property>
  <property name="meta.attr.date-eng.markup">2017-10-04T15:02:57-0400</property>
  <property name="meta.attr.location.markup">+44.8967-068.6707+029.067/</property>
  <property name="meta.attr.location-eng.markup">+44.8967-068.6707+029.067/</property>
  <property name="meta.attr.make.markup">Apple</property>
  <property name="meta.attr.make-eng.markup">Apple</property>
  <property name="meta.attr.com.apple.quicktime.make.markup">Apple</property>
  <property name="meta.attr.com.apple.quicktime.creationdate.markup">2017-10-04T15:02:57-0400</property>
  <property name="meta.attr.com.apple.quicktime.location.ISO6709.markup">+44.8967-068.6707+029.067/</property>
  <property name="meta.attr.com.apple.quicktime.software.markup">6.1.6</property>
  <property name="meta.attr.com.apple.quicktime.model.markup">iPhone 3GS</property>
  <property name="seekable">1</property>
  <property name="meta.media.sample_aspect_num">1</property>
  <property name="meta.media.sample_aspect_den">1</property>
  <property name="aspect_ratio">1</property>
  <property name="kdenlive:file_size">33351719</property>
  <property name="kdenlive:file_hash">0ef04466b24e93081a81be775440aca6</property>
  <property name="global_feed">1</property>
  <property name="meta.media.frame_rate_num">441200</property>
  <property name="meta.media.frame_rate_den">14721</property>
  <property name="meta.media.colorspace">601</property>
  <property name="meta.media.color_trc">1</property>
  <property name="meta.media.width">640</property>
  <property name="meta.media.height">480</property>
  <property name="meta.media.top_field_first">0</property>
  <property name="meta.media.progressive">1</property>
 </producer>
 <producer title="Anonymous Submission" id="18" in="0" out="718">
  <property name="length">00:00:23;29</property>
  <property name="eof">pause</property>
  <property name="resource">/run/media/kyan/Windows/Users/Elliot/Desktop/Files/IMG_1937.MOV</property>
  <property name="audio_index">1</property>
  <property name="video_index">0</property>
  <property name="mute_on_pause">1</property>
  <property name="mlt_service">avformat-novalidate</property>
  <property name="meta.media.nb_streams">2</property>
  <property name="meta.media.0.stream.type">video</property>
  <property name="meta.media.0.stream.frame_rate">29.9855</property>
  <property name="meta.media.0.stream.sample_aspect_ratio">0</property>
  <property name="meta.media.0.codec.width">640</property>
  <property name="meta.media.0.codec.height">480</property>
  <property name="meta.media.0.codec.rotate">180</property>
  <property name="meta.media.0.codec.frame_rate">600</property>
  <property name="meta.media.0.codec.pix_fmt">yuv420p</property>
  <property name="meta.media.0.codec.sample_aspect_ratio">0</property>
  <property name="meta.media.0.codec.colorspace">601</property>
  <property name="meta.media.0.codec.color_trc">1</property>
  <property name="meta.media.0.codec.name">h264</property>
  <property name="meta.media.0.codec.long_name">H.264 / AVC / MPEG-4 AVC / MPEG-4 part 10</property>
  <property name="meta.media.0.codec.bit_rate">3573304</property>
  <property name="meta.attr.0.stream.rotate.markup">180</property>
  <property name="meta.attr.0.stream.creation_time.markup">2017-10-04T18:41:25.000000Z</property>
  <property name="meta.attr.0.stream.handler_name.markup">Core Media Data Handler</property>
  <property name="meta.attr.0.stream.encoder.markup">H.264</property>
  <property name="meta.media.1.stream.type">audio</property>
  <property name="meta.media.1.codec.sample_fmt">fltp</property>
  <property name="meta.media.1.codec.sample_rate">44100</property>
  <property name="meta.media.1.codec.channels">1</property>
  <property name="meta.media.1.codec.name">aac</property>
  <property name="meta.media.1.codec.long_name">AAC (Advanced Audio Coding)</property>
  <property name="meta.media.1.codec.bit_rate">63938</property>
  <property name="meta.attr.1.stream.creation_time.markup">2017-10-04T18:41:25.000000Z</property>
  <property name="meta.attr.1.stream.handler_name.markup">Core Media Data Handler</property>
  <property name="meta.attr.major_brand.markup">qt  </property>
  <property name="meta.attr.minor_version.markup">0</property>
  <property name="meta.attr.compatible_brands.markup">qt  </property>
  <property name="meta.attr.creation_time.markup">2017-10-04T18:41:25.000000Z</property>
  <property name="meta.attr.model.markup">iPhone 3GS</property>
  <property name="meta.attr.model-eng.markup">iPhone 3GS</property>
  <property name="meta.attr.encoder.markup">6.1.6</property>
  <property name="meta.attr.encoder-eng.markup">6.1.6</property>
  <property name="meta.attr.date.markup">2017-10-04T14:41:25-0400</property>
  <property name="meta.attr.date-eng.markup">2017-10-04T14:41:25-0400</property>
  <property name="meta.attr.location.markup">+44.8990-068.6686+085.067/</property>
  <property name="meta.attr.location-eng.markup">+44.8990-068.6686+085.067/</property>
  <property name="meta.attr.make.markup">Apple</property>
  <property name="meta.attr.make-eng.markup">Apple</property>
  <property name="meta.attr.com.apple.quicktime.make.markup">Apple</property>
  <property name="meta.attr.com.apple.quicktime.creationdate.markup">2017-10-04T14:41:25-0400</property>
  <property name="meta.attr.com.apple.quicktime.location.ISO6709.markup">+44.8990-068.6686+085.067/</property>
  <property name="meta.attr.com.apple.quicktime.software.markup">6.1.6</property>
  <property name="meta.attr.com.apple.quicktime.model.markup">iPhone 3GS</property>
  <property name="seekable">1</property>
  <property name="meta.media.sample_aspect_num">1</property>
  <property name="meta.media.sample_aspect_den">1</property>
  <property name="aspect_ratio">1</property>
  <property name="kdenlive:file_size">10975545</property>
  <property name="kdenlive:file_hash">5258660c6fc9c051d9bf2dfbfb636811</property>
  <property name="global_feed">1</property>
  <property name="meta.media.frame_rate_num">433200</property>
  <property name="meta.media.frame_rate_den">14447</property>
  <property name="meta.media.colorspace">601</property>
  <property name="meta.media.color_trc">1</property>
  <property name="meta.media.width">640</property>
  <property name="meta.media.height">480</property>
  <property name="meta.media.top_field_first">0</property>
  <property name="meta.media.progressive">1</property>
 </producer>
 <producer title="Anonymous Submission" id="19" in="0" out="110">
  <property name="length">00:00:03;21</property>
  <property name="eof">pause</property>
  <property name="resource">/run/media/kyan/Windows/Users/Elliot/Desktop/Files/IMG_1938.MOV</property>
  <property name="audio_index">1</property>
  <property name="video_index">0</property>
  <property name="mute_on_pause">1</property>
  <property name="mlt_service">avformat-novalidate</property>
  <property name="meta.media.nb_streams">2</property>
  <property name="meta.media.0.stream.type">video</property>
  <property name="meta.media.0.stream.frame_rate">29.973</property>
  <property name="meta.media.0.stream.sample_aspect_ratio">0</property>
  <property name="meta.media.0.codec.width">640</property>
  <property name="meta.media.0.codec.height">480</property>
  <property name="meta.media.0.codec.rotate">90</property>
  <property name="meta.media.0.codec.frame_rate">600</property>
  <property name="meta.media.0.codec.pix_fmt">yuv420p</property>
  <property name="meta.media.0.codec.sample_aspect_ratio">0</property>
  <property name="meta.media.0.codec.colorspace">601</property>
  <property name="meta.media.0.codec.color_trc">1</property>
  <property name="meta.media.0.codec.name">h264</property>
  <property name="meta.media.0.codec.long_name">H.264 / AVC / MPEG-4 AVC / MPEG-4 part 10</property>
  <property name="meta.media.0.codec.bit_rate">3568762</property>
  <property name="meta.attr.0.stream.rotate.markup">90</property>
  <property name="meta.attr.0.stream.creation_time.markup">2017-10-04T18:42:03.000000Z</property>
  <property name="meta.attr.0.stream.handler_name.markup">Core Media Data Handler</property>
  <property name="meta.attr.0.stream.encoder.markup">H.264</property>
  <property name="meta.media.1.stream.type">audio</property>
  <property name="meta.media.1.codec.sample_fmt">fltp</property>
  <property name="meta.media.1.codec.sample_rate">44100</property>
  <property name="meta.media.1.codec.channels">1</property>
  <property name="meta.media.1.codec.name">aac</property>
  <property name="meta.media.1.codec.long_name">AAC (Advanced Audio Coding)</property>
  <property name="meta.media.1.codec.bit_rate">64621</property>
  <property name="meta.attr.1.stream.creation_time.markup">2017-10-04T18:42:03.000000Z</property>
  <property name="meta.attr.1.stream.handler_name.markup">Core Media Data Handler</property>
  <property name="meta.attr.major_brand.markup">qt  </property>
  <property name="meta.attr.minor_version.markup">0</property>
  <property name="meta.attr.compatible_brands.markup">qt  </property>
  <property name="meta.attr.creation_time.markup">2017-10-04T18:42:03.000000Z</property>
  <property name="meta.attr.model.markup">iPhone 3GS</property>
  <property name="meta.attr.model-eng.markup">iPhone 3GS</property>
  <property name="meta.attr.encoder.markup">6.1.6</property>
  <property name="meta.attr.encoder-eng.markup">6.1.6</property>
  <property name="meta.attr.date.markup">2017-10-04T14:42:03-0400</property>
  <property name="meta.attr.date-eng.markup">2017-10-04T14:42:03-0400</property>
  <property name="meta.attr.location.markup">+44.8988-068.6687+081.067/</property>
  <property name="meta.attr.location-eng.markup">+44.8988-068.6687+081.067/</property>
  <property name="meta.attr.make.markup">Apple</property>
  <property name="meta.attr.make-eng.markup">Apple</property>
  <property name="meta.attr.com.apple.quicktime.make.markup">Apple</property>
  <property name="meta.attr.com.apple.quicktime.creationdate.markup">2017-10-04T14:42:03-0400</property>
  <property name="meta.attr.com.apple.quicktime.location.ISO6709.markup">+44.8988-068.6687+081.067/</property>
  <property name="meta.attr.com.apple.quicktime.software.markup">6.1.6</property>
  <property name="meta.attr.com.apple.quicktime.model.markup">iPhone 3GS</property>
  <property name="seekable">1</property>
  <property name="meta.media.sample_aspect_num">1</property>
  <property name="meta.media.sample_aspect_den">1</property>
  <property name="aspect_ratio">1</property>
  <property name="kdenlive:file_size">1686946</property>
  <property name="kdenlive:file_hash">608646371dfb0e4a37353d155f46b6e3</property>
  <property name="global_feed">1</property>
  <property name="meta.media.frame_rate_num">33300</property>
  <property name="meta.media.frame_rate_den">1111</property>
  <property name="meta.media.colorspace">601</property>
  <property name="meta.media.color_trc">1</property>
  <property name="meta.media.width">640</property>
  <property name="meta.media.height">480</property>
  <property name="meta.media.top_field_first">0</property>
  <property name="meta.media.progressive">1</property>
 </producer>
 <producer title="Anonymous Submission" id="20" in="0" out="41">
  <property name="length">00:00:01;12</property>
  <property name="eof">pause</property>
  <property name="resource">/run/media/kyan/Windows/Users/Elliot/Desktop/Files/IMG_1940.MOV</property>
  <property name="audio_index">1</property>
  <property name="video_index">0</property>
  <property name="mute_on_pause">1</property>
  <property name="mlt_service">avformat-novalidate</property>
  <property name="meta.media.nb_streams">2</property>
  <property name="meta.media.0.stream.type">video</property>
  <property name="meta.media.0.stream.frame_rate">22.695</property>
  <property name="meta.media.0.stream.sample_aspect_ratio">0</property>
  <property name="meta.media.0.codec.width">640</property>
  <property name="meta.media.0.codec.height">480</property>
  <property name="meta.media.0.codec.rotate">0</property>
  <property name="meta.media.0.codec.frame_rate">600</property>
  <property name="meta.media.0.codec.pix_fmt">yuv420p</property>
  <property name="meta.media.0.codec.sample_aspect_ratio">0</property>
  <property name="meta.media.0.codec.colorspace">601</property>
  <property name="meta.media.0.codec.color_trc">1</property>
  <property name="meta.media.0.codec.name">h264</property>
  <property name="meta.media.0.codec.long_name">H.264 / AVC / MPEG-4 AVC / MPEG-4 part 10</property>
  <property name="meta.media.0.codec.bit_rate">3085310</property>
  <property name="meta.attr.0.stream.creation_time.markup">2017-10-04T18:43:14.000000Z</property>
  <property name="meta.attr.0.stream.handler_name.markup">Core Media Data Handler</property>
  <property name="meta.attr.0.stream.encoder.markup">H.264</property>
  <property name="meta.media.1.stream.type">audio</property>
  <property name="meta.media.1.codec.sample_fmt">fltp</property>
  <property name="meta.media.1.codec.sample_rate">44100</property>
  <property name="meta.media.1.codec.channels">1</property>
  <property name="meta.media.1.codec.name">aac</property>
  <property name="meta.media.1.codec.long_name">AAC (Advanced Audio Coding)</property>
  <property name="meta.media.1.codec.bit_rate">65296</property>
  <property name="meta.attr.1.stream.creation_time.markup">2017-10-04T18:43:14.000000Z</property>
  <property name="meta.attr.1.stream.handler_name.markup">Core Media Data Handler</property>
  <property name="meta.attr.major_brand.markup">qt  </property>
  <property name="meta.attr.minor_version.markup">0</property>
  <property name="meta.attr.compatible_brands.markup">qt  </property>
  <property name="meta.attr.creation_time.markup">2017-10-04T18:43:14.000000Z</property>
  <property name="meta.attr.model.markup">iPhone 3GS</property>
  <property name="meta.attr.model-eng.markup">iPhone 3GS</property>
  <property name="meta.attr.encoder.markup">6.1.6</property>
  <property name="meta.attr.encoder-eng.markup">6.1.6</property>
  <property name="meta.attr.date.markup">2017-10-04T14:43:14-0400</property>
  <property name="meta.attr.date-eng.markup">2017-10-04T14:43:14-0400</property>
  <property name="meta.attr.location.markup">+44.8988-068.6687+082.067/</property>
  <property name="meta.attr.location-eng.markup">+44.8988-068.6687+082.067/</property>
  <property name="meta.attr.make.markup">Apple</property>
  <property name="meta.attr.make-eng.markup">Apple</property>
  <property name="meta.attr.com.apple.quicktime.make.markup">Apple</property>
  <property name="meta.attr.com.apple.quicktime.creationdate.markup">2017-10-04T14:43:14-0400</property>
  <property name="meta.attr.com.apple.quicktime.location.ISO6709.markup">+44.8988-068.6687+082.067/</property>
  <property name="meta.attr.com.apple.quicktime.software.markup">6.1.6</property>
  <property name="meta.attr.com.apple.quicktime.model.markup">iPhone 3GS</property>
  <property name="seekable">1</property>
  <property name="meta.media.sample_aspect_num">1</property>
  <property name="meta.media.sample_aspect_den">1</property>
  <property name="aspect_ratio">1</property>
  <property name="kdenlive:file_size">551602</property>
  <property name="kdenlive:file_hash">23b82787089968727c08279d83821e3f</property>
  <property name="global_feed">1</property>
  <property name="meta.media.frame_rate_num">3200</property>
  <property name="meta.media.frame_rate_den">141</property>
  <property name="meta.media.colorspace">601</property>
  <property name="meta.media.color_trc">1</property>
  <property name="meta.media.width">640</property>
  <property name="meta.media.height">480</property>
  <property name="meta.media.top_field_first">0</property>
  <property name="meta.media.progressive">1</property>
 </producer>
 <producer title="Anonymous Submission" id="21" in="0" out="7190">
  <property name="length">00:03:59;27</property>
  <property name="eof">pause</property>
  <property name="resource">1. Guillemot.m4a</property>
  <property name="audio_index">0</property>
  <property name="video_index">-1</property>
  <property name="mute_on_pause">1</property>
  <property name="mlt_service">avformat-novalidate</property>
  <property name="meta.media.nb_streams">2</property>
  <property name="meta.media.0.stream.type">audio</property>
  <property name="meta.media.0.codec.sample_fmt">s32p</property>
  <property name="meta.media.0.codec.sample_rate">44100</property>
  <property name="meta.media.0.codec.channels">2</property>
  <property name="meta.media.0.codec.name">alac</property>
  <property name="meta.media.0.codec.long_name">ALAC (Apple Lossless Audio Codec)</property>
  <property name="meta.media.0.codec.bit_rate">1526057</property>
  <property name="meta.attr.0.stream.creation_time.markup">2015-05-26T16:35:35.000000Z</property>
  <property name="meta.media.1.stream.type">video</property>
  <property name="meta.media.1.stream.frame_rate">-nan</property>
  <property name="meta.media.1.stream.sample_aspect_ratio">0</property>
  <property name="meta.media.1.codec.width">1200</property>
  <property name="meta.media.1.codec.height">1200</property>
  <property name="meta.media.1.codec.rotate">0</property>
  <property name="meta.media.1.codec.frame_rate">90000</property>
  <property name="meta.media.1.codec.pix_fmt">rgba</property>
  <property name="meta.media.1.codec.sample_aspect_ratio">0</property>
  <property name="meta.media.1.codec.colorspace">709</property>
  <property name="meta.media.1.codec.name">png</property>
  <property name="meta.media.1.codec.long_name">PNG (Portable Network Graphics) image</property>
  <property name="meta.media.1.codec.bit_rate">0</property>
  <property name="meta.attr.major_brand.markup">M4A </property>
  <property name="meta.attr.minor_version.markup">0</property>
  <property name="meta.attr.compatible_brands.markup">M4A mp42isom</property>
  <property name="meta.attr.creation_time.markup">2015-05-26T16:35:35.000000Z</property>
  <property name="meta.attr.title.markup">Guillemot</property>
  <property name="meta.attr.artist.markup">Elliot Wallace</property>
  <property name="meta.attr.composer.markup">Elliot Chandler Wallace</property>
  <property name="meta.attr.album.markup">Infinite Universe: Electric Dream Redux</property>
  <property name="meta.attr.genre.markup">Electronic</property>
  <property name="meta.attr.track.markup">1/20</property>
  <property name="meta.attr.disc.markup">1/1</property>
  <property name="meta.attr.date.markup">2015</property>
  <property name="meta.attr.compilation.markup">0</property>
  <property name="meta.attr.gapless_playback.markup">0</property>
  <property name="meta.attr.encoder.markup">iTunes 12.1.2.27</property>
  <property name="meta.attr.Encoding Params.markup">vers</property>
  <property name="meta.attr.iTunNORM.markup"> 0000025F 00000242 00000E61 00000F46 0001CF37 0002DC9B 00007E87 000077DD 00022960 0002025F</property>
  <property name="meta.attr.album_artist.markup">Elliot Wallace</property>
  <property name="meta.attr.comment.markup">Finished 26 May 2015; to be released 27 May 2015. Copyright © ℗ 2015 Futuramerlin.</property>
  <property name="seekable">1</property>
  <property name="meta.media.sample_aspect_num">1</property>
  <property name="meta.media.sample_aspect_den">1</property>
  <property name="aspect_ratio">1</property>
  <property name="kdenlive:file_size">47104408</property>
  <property name="kdenlive:file_hash">4414fcab8fc1a74269d139912318859d</property>
  <property name="global_feed">1</property>
 </producer>
 <producer title="Anonymous Submission" id="22" in="0" out="7340">
  <property name="length">00:04:05;01</property>
  <property name="eof">pause</property>
  <property name="resource">6. The Crack in my Universe (Autumnfey's Mystic Lounge Remix) (by Debbizo).m4a</property>
  <property name="audio_index">0</property>
  <property name="video_index">-1</property>
  <property name="mute_on_pause">1</property>
  <property name="mlt_service">avformat-novalidate</property>
  <property name="meta.media.nb_streams">2</property>
  <property name="meta.media.0.stream.type">audio</property>
  <property name="meta.media.0.codec.sample_fmt">s32p</property>
  <property name="meta.media.0.codec.sample_rate">44100</property>
  <property name="meta.media.0.codec.channels">2</property>
  <property name="meta.media.0.codec.name">alac</property>
  <property name="meta.media.0.codec.long_name">ALAC (Apple Lossless Audio Codec)</property>
  <property name="meta.media.0.codec.bit_rate">1559160</property>
  <property name="meta.attr.0.stream.creation_time.markup">2015-05-26T16:36:10.000000Z</property>
  <property name="meta.media.1.stream.type">video</property>
  <property name="meta.media.1.stream.frame_rate">-nan</property>
  <property name="meta.media.1.stream.sample_aspect_ratio">0</property>
  <property name="meta.media.1.codec.width">1200</property>
  <property name="meta.media.1.codec.height">1200</property>
  <property name="meta.media.1.codec.rotate">0</property>
  <property name="meta.media.1.codec.frame_rate">90000</property>
  <property name="meta.media.1.codec.pix_fmt">rgba</property>
  <property name="meta.media.1.codec.sample_aspect_ratio">0</property>
  <property name="meta.media.1.codec.colorspace">709</property>
  <property name="meta.media.1.codec.name">png</property>
  <property name="meta.media.1.codec.long_name">PNG (Portable Network Graphics) image</property>
  <property name="meta.media.1.codec.bit_rate">0</property>
  <property name="meta.attr.major_brand.markup">M4A </property>
  <property name="meta.attr.minor_version.markup">0</property>
  <property name="meta.attr.compatible_brands.markup">M4A mp42isom</property>
  <property name="meta.attr.creation_time.markup">2015-05-26T16:36:10.000000Z</property>
  <property name="meta.attr.title.markup">The Crack in my Universe (Autumnfey's Mystic Lounge Remix) (by Debbizo)</property>
  <property name="meta.attr.artist.markup">Elliot Wallace</property>
  <property name="meta.attr.album.markup">Infinite Universe: Electric Dream Redux</property>
  <property name="meta.attr.genre.markup">Electronic</property>
  <property name="meta.attr.track.markup">6/20</property>
  <property name="meta.attr.disc.markup">1/1</property>
  <property name="meta.attr.date.markup">2015</property>
  <property name="meta.attr.compilation.markup">0</property>
  <property name="meta.attr.gapless_playback.markup">0</property>
  <property name="meta.attr.encoder.markup">iTunes 12.1.2.27</property>
  <property name="meta.attr.Encoding Params.markup">vers</property>
  <property name="meta.attr.iTunNORM.markup"> 000000FB 00000102 00001502 000013DD 0002D52A 0002DACA 000076FC 00007E87 0002E03C 0002F646</property>
  <property name="meta.attr.album_artist.markup">Elliot Wallace</property>
  <property name="meta.attr.comment.markup">Finished 26 May 2015; to be released 27 May 2015. Copyright © ℗ 2015 Futuramerlin. Copyright others. Creative Commons share-alike attribution non-commercial.</property>
  <property name="seekable">1</property>
  <property name="meta.media.sample_aspect_num">1</property>
  <property name="meta.media.sample_aspect_den">1</property>
  <property name="aspect_ratio">1</property>
  <property name="kdenlive:file_size">49064620</property>
  <property name="kdenlive:file_hash">1cb1e795d13d7a1a97a17b858d0c606c</property>
  <property name="global_feed">1</property>
 </producer>
 <producer title="Anonymous Submission" id="23" in="0" out="13712">
  <property name="length">00:07:37;17</property>
  <property name="eof">pause</property>
  <property name="resource">3. Take Me Home (EDM Remix) (by Tarida Gaol and Kizzylotus).m4a</property>
  <property name="audio_index">0</property>
  <property name="video_index">-1</property>
  <property name="mute_on_pause">1</property>
  <property name="mlt_service">avformat-novalidate</property>
  <property name="meta.media.nb_streams">2</property>
  <property name="meta.media.0.stream.type">audio</property>
  <property name="meta.media.0.codec.sample_fmt">s32p</property>
  <property name="meta.media.0.codec.sample_rate">44100</property>
  <property name="meta.media.0.codec.channels">2</property>
  <property name="meta.media.0.codec.name">alac</property>
  <property name="meta.media.0.codec.long_name">ALAC (Apple Lossless Audio Codec)</property>
  <property name="meta.media.0.codec.bit_rate">1578500</property>
  <property name="meta.attr.0.stream.creation_time.markup">2015-05-26T16:35:42.000000Z</property>
  <property name="meta.media.1.stream.type">video</property>
  <property name="meta.media.1.stream.frame_rate">-nan</property>
  <property name="meta.media.1.stream.sample_aspect_ratio">0</property>
  <property name="meta.media.1.codec.width">1200</property>
  <property name="meta.media.1.codec.height">1200</property>
  <property name="meta.media.1.codec.rotate">0</property>
  <property name="meta.media.1.codec.frame_rate">90000</property>
  <property name="meta.media.1.codec.pix_fmt">rgba</property>
  <property name="meta.media.1.codec.sample_aspect_ratio">0</property>
  <property name="meta.media.1.codec.colorspace">709</property>
  <property name="meta.media.1.codec.name">png</property>
  <property name="meta.media.1.codec.long_name">PNG (Portable Network Graphics) image</property>
  <property name="meta.media.1.codec.bit_rate">0</property>
  <property name="meta.attr.major_brand.markup">M4A </property>
  <property name="meta.attr.minor_version.markup">0</property>
  <property name="meta.attr.compatible_brands.markup">M4A mp42isom</property>
  <property name="meta.attr.creation_time.markup">2015-05-26T16:35:42.000000Z</property>
  <property name="meta.attr.title.markup">Take Me Home (EDM Remix) (by Tarida Gaol and Kizzylotus)</property>
  <property name="meta.attr.artist.markup">Elliot Wallace</property>
  <property name="meta.attr.album.markup">Infinite Universe: Electric Dream Redux</property>
  <property name="meta.attr.genre.markup">Electronic</property>
  <property name="meta.attr.track.markup">3/20</property>
  <property name="meta.attr.disc.markup">1/1</property>
  <property name="meta.attr.date.markup">2015</property>
  <property name="meta.attr.compilation.markup">0</property>
  <property name="meta.attr.gapless_playback.markup">0</property>
  <property name="meta.attr.encoder.markup">iTunes 12.1.2.27</property>
  <property name="meta.attr.Encoding Params.markup">vers</property>
  <property name="meta.attr.iTunNORM.markup"> 00000219 00000253 00002519 000015F6 000157DA 000157DA 00007E87 00007DEB 0004EBC5 0004C450</property>
  <property name="meta.attr.album_artist.markup">Elliot Wallace</property>
  <property name="meta.attr.comment.markup">Finished 26 May 2015; to be released 27 May 2015. Copyright © ℗ 2015 Futuramerlin. Copyright others. Creative Commons share-alike attribution non-commercial.</property>
  <property name="seekable">1</property>
  <property name="meta.media.sample_aspect_num">1</property>
  <property name="meta.media.sample_aspect_den">1</property>
  <property name="aspect_ratio">1</property>
  <property name="kdenlive:file_size">91619266</property>
  <property name="kdenlive:file_hash">1fd7e6bd2ab33aa8db2b1349bf4888f8</property>
  <property name="global_feed">1</property>
 </producer>
 <playlist id="main bin">
  <property name="kdenlive:docproperties.audiotargettrack">2</property>
  <property name="kdenlive:docproperties.dirtypreviewchunks"/>
  <property name="kdenlive:docproperties.disablepreview">0</property>
  <property name="kdenlive:docproperties.documentid">1507150588562</property>
  <property name="kdenlive:docproperties.enableproxy">0</property>
  <property name="kdenlive:docproperties.generateimageproxy">0</property>
  <property name="kdenlive:docproperties.generateproxy">0</property>
  <property name="kdenlive:docproperties.kdenliveversion">16.08.3</property>
  <property name="kdenlive:docproperties.position">7741</property>
  <property name="kdenlive:docproperties.previewchunks"/>
  <property name="kdenlive:docproperties.previewextension"/>
  <property name="kdenlive:docproperties.previewparameters"/>
  <property name="kdenlive:docproperties.profile">square_ntsc</property>
  <property name="kdenlive:docproperties.projectfolder">/Ember Library/Ember satellite projects/personal/2017oct04</property>
  <property name="kdenlive:docproperties.proxyextension">mpg</property>
  <property name="kdenlive:docproperties.proxyimageminsize">2000</property>
  <property name="kdenlive:docproperties.proxyminsize">1000</property>
  <property name="kdenlive:docproperties.proxyparams">-s 640x480 -g 5 -qscale 6 -ab 128k -vcodec mpeg2video -acodec mp2</property>
  <property name="kdenlive:docproperties.version">0.95</property>
  <property name="kdenlive:docproperties.verticalzoom">1</property>
  <property name="kdenlive:docproperties.videotargettrack">3</property>
  <property name="kdenlive:docproperties.zonein">0</property>
  <property name="kdenlive:docproperties.zoneout">0</property>
  <property name="kdenlive:docproperties.zoom">7</property>
  <property name="kdenlive:documentnotes"/>
  <property name="xml_retain">1</property>
  <entry producer="2" in="0" out="9804"/>
  <entry producer="3" in="0" out="2402"/>
  <entry producer="4" in="0" out="1656"/>
  <entry producer="5" in="0" out="41"/>
  <entry producer="6" in="0" out="30"/>
  <entry producer="7" in="0" out="1110"/>
  <entry producer="8" in="0" out="2922"/>
  <entry producer="9" in="0" out="1824"/>
  <entry producer="10" in="0" out="650"/>
  <entry producer="11" in="0" out="230"/>
  <entry producer="12" in="0" out="1772"/>
  <entry producer="13" in="0" out="2225"/>
  <entry producer="14" in="0" out="829"/>
  <entry producer="15" in="0" out="3989"/>
  <entry producer="16" in="0" out="23"/>
  <entry producer="17" in="0" out="2205"/>
  <entry producer="18" in="0" out="718"/>
  <entry producer="19" in="0" out="110"/>
  <entry producer="20" in="0" out="41"/>
  <entry producer="21" in="0" out="7190"/>
  <entry producer="22" in="0" out="7340"/>
  <entry producer="23" in="0" out="13712"/>
 </playlist>
 <producer id="black" in="0" out="34743">
  <property name="length">34744</property>
  <property name="eof">pause</property>
  <property name="resource">black</property>
  <property name="aspect_ratio">0</property>
  <property name="mlt_service">colour</property>
  <property name="set.test_audio">0</property>
 </producer>
 <playlist id="black_track">
  <entry producer="black" in="0" out="32193"/>
 </playlist>
 <producer title="Anonymous Submission" id="22_playlist1" in="0" out="7340">
  <property name="length">00:04:04;29</property>
  <property name="eof">pause</property>
  <property name="resource">6. The Crack in my Universe (Autumnfey's Mystic Lounge Remix) (by Debbizo).m4a</property>
  <property name="audio_index">0</property>
  <property name="video_index">-1</property>
  <property name="mute_on_pause">1</property>
  <property name="mlt_service">avformat-novalidate</property>
  <property name="seekable">1</property>
  <property name="aspect_ratio">1</property>
  <property name="kdenlive:file_size">49064620</property>
  <property name="kdenlive:file_hash">1cb1e795d13d7a1a97a17b858d0c606c</property>
  <property name="global_feed">1</property>
  <property name="xml">was here</property>
  <property name="meta.media.nb_streams">2</property>
  <property name="meta.media.0.stream.type">audio</property>
  <property name="meta.media.0.codec.sample_fmt">s32p</property>
  <property name="meta.media.0.codec.sample_rate">44100</property>
  <property name="meta.media.0.codec.channels">2</property>
  <property name="meta.media.0.codec.name">alac</property>
  <property name="meta.media.0.codec.long_name">ALAC (Apple Lossless Audio Codec)</property>
  <property name="meta.media.0.codec.bit_rate">1559160</property>
  <property name="meta.attr.0.stream.creation_time.markup">2015-05-26T16:36:10.000000Z</property>
  <property name="meta.media.1.stream.type">video</property>
  <property name="meta.media.1.stream.frame_rate">-nan</property>
  <property name="meta.media.1.stream.sample_aspect_ratio">0</property>
  <property name="meta.media.1.codec.width">1200</property>
  <property name="meta.media.1.codec.height">1200</property>
  <property name="meta.media.1.codec.rotate">0</property>
  <property name="meta.media.1.codec.frame_rate">90000</property>
  <property name="meta.media.1.codec.pix_fmt">rgba</property>
  <property name="meta.media.1.codec.sample_aspect_ratio">0</property>
  <property name="meta.media.1.codec.colorspace">709</property>
  <property name="meta.media.1.codec.name">png</property>
  <property name="meta.media.1.codec.long_name">PNG (Portable Network Graphics) image</property>
  <property name="meta.media.1.codec.bit_rate">0</property>
  <property name="meta.attr.major_brand.markup">M4A </property>
  <property name="meta.attr.minor_version.markup">0</property>
  <property name="meta.attr.compatible_brands.markup">M4A mp42isom</property>
  <property name="meta.attr.creation_time.markup">2015-05-26T16:36:10.000000Z</property>
  <property name="meta.attr.title.markup">The Crack in my Universe (Autumnfey's Mystic Lounge Remix) (by Debbizo)</property>
  <property name="meta.attr.artist.markup">Elliot Wallace</property>
  <property name="meta.attr.album.markup">Infinite Universe: Electric Dream Redux</property>
  <property name="meta.attr.genre.markup">Electronic</property>
  <property name="meta.attr.track.markup">6/20</property>
  <property name="meta.attr.disc.markup">1/1</property>
  <property name="meta.attr.date.markup">2015</property>
  <property name="meta.attr.compilation.markup">0</property>
  <property name="meta.attr.gapless_playback.markup">0</property>
  <property name="meta.attr.encoder.markup">iTunes 12.1.2.27</property>
  <property name="meta.attr.Encoding Params.markup">vers</property>
  <property name="meta.attr.iTunNORM.markup"> 000000FB 00000102 00001502 000013DD 0002D52A 0002DACA 000076FC 00007E87 0002E03C 0002F646</property>
  <property name="meta.attr.album_artist.markup">Elliot Wallace</property>
  <property name="meta.attr.comment.markup">Finished 26 May 2015; to be released 27 May 2015. Copyright © ℗ 2015 Futuramerlin. Copyright others. Creative Commons share-alike attribution non-commercial.</property>
  <property name="meta.media.sample_aspect_num">1</property>
  <property name="meta.media.sample_aspect_den">1</property>
 </producer>
 <playlist id="playlist1">
  <property name="kdenlive:audio_track">1</property>
  <property name="kdenlive:track_name">Audio 2</property>
  <blank length="505"/>
  <entry producer="22_playlist1" in="2440" out="7340">
   <filter id="fadein" in="2440" out="2515">
    <property name="window">75</property>
    <property name="max_gain">20dB</property>
    <property name="mlt_service">volume</property>
    <property name="kdenlive_id">fadein</property>
    <property name="tag">volume</property>
    <property name="kdenlive_ix">1</property>
    <property name="gain">0</property>
    <property name="end">1</property>
   </filter>
  </entry>
 </playlist>
 <producer title="Anonymous Submission" id="21_playlist2" in="0" out="7191">
  <property name="length">00:03:59;29</property>
  <property name="eof">pause</property>
  <property name="resource">1. Guillemot.m4a</property>
  <property name="audio_index">0</property>
  <property name="video_index">-1</property>
  <property name="mute_on_pause">1</property>
  <property name="mlt_service">avformat-novalidate</property>
  <property name="seekable">1</property>
  <property name="aspect_ratio">1</property>
  <property name="kdenlive:file_size">47104408</property>
  <property name="kdenlive:file_hash">4414fcab8fc1a74269d139912318859d</property>
  <property name="global_feed">1</property>
  <property name="xml">was here</property>
  <property name="meta.media.nb_streams">2</property>
  <property name="meta.media.0.stream.type">audio</property>
  <property name="meta.media.0.codec.sample_fmt">s32p</property>
  <property name="meta.media.0.codec.sample_rate">44100</property>
  <property name="meta.media.0.codec.channels">2</property>
  <property name="meta.media.0.codec.name">alac</property>
  <property name="meta.media.0.codec.long_name">ALAC (Apple Lossless Audio Codec)</property>
  <property name="meta.media.0.codec.bit_rate">1526057</property>
  <property name="meta.attr.0.stream.creation_time.markup">2015-05-26T16:35:35.000000Z</property>
  <property name="meta.media.1.stream.type">video</property>
  <property name="meta.media.1.stream.frame_rate">-nan</property>
  <property name="meta.media.1.stream.sample_aspect_ratio">0</property>
  <property name="meta.media.1.codec.width">1200</property>
  <property name="meta.media.1.codec.height">1200</property>
  <property name="meta.media.1.codec.rotate">0</property>
  <property name="meta.media.1.codec.frame_rate">90000</property>
  <property name="meta.media.1.codec.pix_fmt">rgba</property>
  <property name="meta.media.1.codec.sample_aspect_ratio">0</property>
  <property name="meta.media.1.codec.colorspace">709</property>
  <property name="meta.media.1.codec.name">png</property>
  <property name="meta.media.1.codec.long_name">PNG (Portable Network Graphics) image</property>
  <property name="meta.media.1.codec.bit_rate">0</property>
  <property name="meta.attr.major_brand.markup">M4A </property>
  <property name="meta.attr.minor_version.markup">0</property>
  <property name="meta.attr.compatible_brands.markup">M4A mp42isom</property>
  <property name="meta.attr.creation_time.markup">2015-05-26T16:35:35.000000Z</property>
  <property name="meta.attr.title.markup">Guillemot</property>
  <property name="meta.attr.artist.markup">Elliot Wallace</property>
  <property name="meta.attr.composer.markup">Elliot Chandler Wallace</property>
  <property name="meta.attr.album.markup">Infinite Universe: Electric Dream Redux</property>
  <property name="meta.attr.genre.markup">Electronic</property>
  <property name="meta.attr.track.markup">1/20</property>
  <property name="meta.attr.disc.markup">1/1</property>
  <property name="meta.attr.date.markup">2015</property>
  <property name="meta.attr.compilation.markup">0</property>
  <property name="meta.attr.gapless_playback.markup">0</property>
  <property name="meta.attr.encoder.markup">iTunes 12.1.2.27</property>
  <property name="meta.attr.Encoding Params.markup">vers</property>
  <property name="meta.attr.iTunNORM.markup"> 0000025F 00000242 00000E61 00000F46 0001CF37 0002DC9B 00007E87 000077DD 00022960 0002025F</property>
  <property name="meta.attr.album_artist.markup">Elliot Wallace</property>
  <property name="meta.attr.comment.markup">Finished 26 May 2015; to be released 27 May 2015. Copyright © ℗ 2015 Futuramerlin.</property>
  <property name="meta.media.sample_aspect_num">1</property>
  <property name="meta.media.sample_aspect_den">1</property>
 </producer>
 <producer title="Anonymous Submission" id="23_playlist2" in="0" out="13712">
  <property name="length">00:07:37;17</property>
  <property name="eof">pause</property>
  <property name="resource">3. Take Me Home (EDM Remix) (by Tarida Gaol and Kizzylotus).m4a</property>
  <property name="audio_index">0</property>
  <property name="video_index">-1</property>
  <property name="mute_on_pause">1</property>
  <property name="mlt_service">avformat-novalidate</property>
  <property name="seekable">1</property>
  <property name="aspect_ratio">1</property>
  <property name="kdenlive:file_size">91619266</property>
  <property name="kdenlive:file_hash">1fd7e6bd2ab33aa8db2b1349bf4888f8</property>
  <property name="global_feed">1</property>
  <property name="xml">was here</property>
  <property name="meta.media.nb_streams">2</property>
  <property name="meta.media.0.stream.type">audio</property>
  <property name="meta.media.0.codec.sample_fmt">s32p</property>
  <property name="meta.media.0.codec.sample_rate">44100</property>
  <property name="meta.media.0.codec.channels">2</property>
  <property name="meta.media.0.codec.name">alac</property>
  <property name="meta.media.0.codec.long_name">ALAC (Apple Lossless Audio Codec)</property>
  <property name="meta.media.0.codec.bit_rate">1578500</property>
  <property name="meta.attr.0.stream.creation_time.markup">2015-05-26T16:35:42.000000Z</property>
  <property name="meta.media.1.stream.type">video</property>
  <property name="meta.media.1.stream.frame_rate">-nan</property>
  <property name="meta.media.1.stream.sample_aspect_ratio">0</property>
  <property name="meta.media.1.codec.width">1200</property>
  <property name="meta.media.1.codec.height">1200</property>
  <property name="meta.media.1.codec.rotate">0</property>
  <property name="meta.media.1.codec.frame_rate">90000</property>
  <property name="meta.media.1.codec.pix_fmt">rgba</property>
  <property name="meta.media.1.codec.sample_aspect_ratio">0</property>
  <property name="meta.media.1.codec.colorspace">709</property>
  <property name="meta.media.1.codec.name">png</property>
  <property name="meta.media.1.codec.long_name">PNG (Portable Network Graphics) image</property>
  <property name="meta.media.1.codec.bit_rate">0</property>
  <property name="meta.attr.major_brand.markup">M4A </property>
  <property name="meta.attr.minor_version.markup">0</property>
  <property name="meta.attr.compatible_brands.markup">M4A mp42isom</property>
  <property name="meta.attr.creation_time.markup">2015-05-26T16:35:42.000000Z</property>
  <property name="meta.attr.title.markup">Take Me Home (EDM Remix) (by Tarida Gaol and Kizzylotus)</property>
  <property name="meta.attr.artist.markup">Elliot Wallace</property>
  <property name="meta.attr.album.markup">Infinite Universe: Electric Dream Redux</property>
  <property name="meta.attr.genre.markup">Electronic</property>
  <property name="meta.attr.track.markup">3/20</property>
  <property name="meta.attr.disc.markup">1/1</property>
  <property name="meta.attr.date.markup">2015</property>
  <property name="meta.attr.compilation.markup">0</property>
  <property name="meta.attr.gapless_playback.markup">0</property>
  <property name="meta.attr.encoder.markup">iTunes 12.1.2.27</property>
  <property name="meta.attr.Encoding Params.markup">vers</property>
  <property name="meta.attr.iTunNORM.markup"> 00000219 00000253 00002519 000015F6 000157DA 000157DA 00007E87 00007DEB 0004EBC5 0004C450</property>
  <property name="meta.attr.album_artist.markup">Elliot Wallace</property>
  <property name="meta.attr.comment.markup">Finished 26 May 2015; to be released 27 May 2015. Copyright © ℗ 2015 Futuramerlin. Copyright others. Creative Commons share-alike attribution non-commercial.</property>
  <property name="meta.media.sample_aspect_num">1</property>
  <property name="meta.media.sample_aspect_den">1</property>
 </producer>
 <playlist id="playlist2">
  <property name="kdenlive:audio_track">1</property>
  <property name="kdenlive:track_name">Audio 1</property>
  <entry producer="21_playlist2" in="3461" out="4008">
   <filter id="filter0" in="3461" out="3487">
    <property name="window">75</property>
    <property name="max_gain">20dB</property>
    <property name="mlt_service">volume</property>
    <property name="kdenlive_id">fadein</property>
    <property name="tag">volume</property>
    <property name="kdenlive_ix">1</property>
    <property name="gain">0</property>
    <property name="end">1</property>
    <property name="kdenlive_info"/>
   </filter>
   <filter id="fadeout" in="3933" out="4008">
    <property name="window">75</property>
    <property name="max_gain">20dB</property>
    <property name="mlt_service">volume</property>
    <property name="kdenlive_id">fadeout</property>
    <property name="tag">volume</property>
    <property name="kdenlive_ix">2</property>
    <property name="gain">1</property>
    <property name="end">0</property>
   </filter>
  </entry>
  <blank length="4504"/>
  <entry producer="23_playlist2" in="2532" out="13712">
   <filter id="filter1" in="2532" out="2607">
    <property name="window">75</property>
    <property name="max_gain">20dB</property>
    <property name="mlt_service">volume</property>
    <property name="kdenlive_id">fadein</property>
    <property name="tag">volume</property>
    <property name="kdenlive_ix">1</property>
    <property name="gain">0</property>
    <property name="end">1</property>
   </filter>
  </entry>
 </playlist>
 <producer title="Anonymous Submission" id="2_playlist3" in="0" out="9804">
  <property name="length">00:05:27;05</property>
  <property name="eof">pause</property>
  <property name="resource">/run/media/kyan/Windows/Users/Elliot/Desktop/IMG_1935.MOV</property>
  <property name="audio_index">1</property>
  <property name="video_index">0</property>
  <property name="mute_on_pause">1</property>
  <property name="mlt_service">avformat-novalidate</property>
  <property name="seekable">1</property>
  <property name="aspect_ratio">1</property>
  <property name="kdenlive:file_size">147111309</property>
  <property name="kdenlive:file_hash">5a79abf35436072a68974d7044147998</property>
  <property name="global_feed">1</property>
  <property name="xml">was here</property>
  <property name="meta.media.nb_streams">2</property>
  <property name="meta.media.0.stream.type">video</property>
  <property name="meta.media.0.stream.frame_rate">29.9587</property>
  <property name="meta.media.0.stream.sample_aspect_ratio">0</property>
  <property name="meta.media.0.codec.width">640</property>
  <property name="meta.media.0.codec.height">480</property>
  <property name="meta.media.0.codec.rotate">180</property>
  <property name="meta.media.0.codec.frame_rate">600</property>
  <property name="meta.media.0.codec.pix_fmt">yuv420p</property>
  <property name="meta.media.0.codec.sample_aspect_ratio">0</property>
  <property name="meta.media.0.codec.colorspace">601</property>
  <property name="meta.media.0.codec.color_trc">1</property>
  <property name="meta.media.0.codec.name">h264</property>
  <property name="meta.media.0.codec.long_name">H.264 / AVC / MPEG-4 AVC / MPEG-4 part 10</property>
  <property name="meta.media.0.codec.bit_rate">3525881</property>
  <property name="meta.attr.0.stream.rotate.markup">180</property>
  <property name="meta.attr.0.stream.creation_time.markup">2017-10-04T18:33:41.000000Z</property>
  <property name="meta.attr.0.stream.handler_name.markup">Core Media Data Handler</property>
  <property name="meta.attr.0.stream.encoder.markup">H.264</property>
  <property name="meta.media.1.stream.type">audio</property>
  <property name="meta.media.1.codec.sample_fmt">fltp</property>
  <property name="meta.media.1.codec.sample_rate">44100</property>
  <property name="meta.media.1.codec.channels">1</property>
  <property name="meta.media.1.codec.name">aac</property>
  <property name="meta.media.1.codec.long_name">AAC (Advanced Audio Coding)</property>
  <property name="meta.media.1.codec.bit_rate">63999</property>
  <property name="meta.attr.1.stream.creation_time.markup">2017-10-04T18:33:42.000000Z</property>
  <property name="meta.attr.1.stream.handler_name.markup">Core Media Data Handler</property>
  <property name="meta.attr.major_brand.markup">qt  </property>
  <property name="meta.attr.minor_version.markup">0</property>
  <property name="meta.attr.compatible_brands.markup">qt  </property>
  <property name="meta.attr.creation_time.markup">2017-10-04T18:33:41.000000Z</property>
  <property name="meta.attr.model.markup">iPhone 3GS</property>
  <property name="meta.attr.model-eng.markup">iPhone 3GS</property>
  <property name="meta.attr.encoder.markup">6.1.6</property>
  <property name="meta.attr.encoder-eng.markup">6.1.6</property>
  <property name="meta.attr.date.markup">2017-10-04T14:33:41-0400</property>
  <property name="meta.attr.date-eng.markup">2017-10-04T14:33:41-0400</property>
  <property name="meta.attr.location.markup">+44.8989-068.6688+041.067/</property>
  <property name="meta.attr.location-eng.markup">+44.8989-068.6688+041.067/</property>
  <property name="meta.attr.make.markup">Apple</property>
  <property name="meta.attr.make-eng.markup">Apple</property>
  <property name="meta.attr.com.apple.quicktime.make.markup">Apple</property>
  <property name="meta.attr.com.apple.quicktime.creationdate.markup">2017-10-04T14:33:41-0400</property>
  <property name="meta.attr.com.apple.quicktime.location.ISO6709.markup">+44.8989-068.6688+041.067/</property>
  <property name="meta.attr.com.apple.quicktime.software.markup">6.1.6</property>
  <property name="meta.attr.com.apple.quicktime.model.markup">iPhone 3GS</property>
  <property name="meta.media.sample_aspect_num">1</property>
  <property name="meta.media.sample_aspect_den">1</property>
  <property name="meta.media.frame_rate_num">588120</property>
  <property name="meta.media.frame_rate_den">19631</property>
  <property name="meta.media.colorspace">601</property>
  <property name="meta.media.color_trc">1</property>
  <property name="meta.media.width">640</property>
  <property name="meta.media.height">480</property>
  <property name="meta.media.top_field_first">0</property>
  <property name="meta.media.progressive">1</property>
 </producer>
 <producer title="Anonymous Submission" id="17_playlist3" in="0" out="2205">
  <property name="length">00:01:13;18</property>
  <property name="eof">pause</property>
  <property name="resource">/run/media/kyan/Windows/Users/Elliot/Desktop/IMG_1952.MOV</property>
  <property name="audio_index">1</property>
  <property name="video_index">0</property>
  <property name="mute_on_pause">1</property>
  <property name="mlt_service">avformat-novalidate</property>
  <property name="seekable">1</property>
  <property name="aspect_ratio">1</property>
  <property name="kdenlive:file_size">33351719</property>
  <property name="kdenlive:file_hash">0ef04466b24e93081a81be775440aca6</property>
  <property name="global_feed">1</property>
  <property name="xml">was here</property>
  <property name="meta.media.nb_streams">2</property>
  <property name="meta.media.0.stream.type">video</property>
  <property name="meta.media.0.stream.frame_rate">29.9708</property>
  <property name="meta.media.0.stream.sample_aspect_ratio">0</property>
  <property name="meta.media.0.codec.width">640</property>
  <property name="meta.media.0.codec.height">480</property>
  <property name="meta.media.0.codec.rotate">90</property>
  <property name="meta.media.0.codec.frame_rate">600</property>
  <property name="meta.media.0.codec.pix_fmt">yuv420p</property>
  <property name="meta.media.0.codec.sample_aspect_ratio">0</property>
  <property name="meta.media.0.codec.colorspace">601</property>
  <property name="meta.media.0.codec.color_trc">1</property>
  <property name="meta.media.0.codec.name">h264</property>
  <property name="meta.media.0.codec.long_name">H.264 / AVC / MPEG-4 AVC / MPEG-4 part 10</property>
  <property name="meta.media.0.codec.bit_rate">3552987</property>
  <property name="meta.attr.0.stream.rotate.markup">90</property>
  <property name="meta.attr.0.stream.creation_time.markup">2017-10-04T19:02:57.000000Z</property>
  <property name="meta.attr.0.stream.handler_name.markup">Core Media Data Handler</property>
  <property name="meta.attr.0.stream.encoder.markup">H.264</property>
  <property name="meta.media.1.stream.type">audio</property>
  <property name="meta.media.1.codec.sample_fmt">fltp</property>
  <property name="meta.media.1.codec.sample_rate">44100</property>
  <property name="meta.media.1.codec.channels">1</property>
  <property name="meta.media.1.codec.name">aac</property>
  <property name="meta.media.1.codec.long_name">AAC (Advanced Audio Coding)</property>
  <property name="meta.media.1.codec.bit_rate">63999</property>
  <property name="meta.attr.1.stream.creation_time.markup">2017-10-04T19:02:57.000000Z</property>
  <property name="meta.attr.1.stream.handler_name.markup">Core Media Data Handler</property>
  <property name="meta.attr.major_brand.markup">qt  </property>
  <property name="meta.attr.minor_version.markup">0</property>
  <property name="meta.attr.compatible_brands.markup">qt  </property>
  <property name="meta.attr.creation_time.markup">2017-10-04T19:02:57.000000Z</property>
  <property name="meta.attr.model.markup">iPhone 3GS</property>
  <property name="meta.attr.model-eng.markup">iPhone 3GS</property>
  <property name="meta.attr.encoder.markup">6.1.6</property>
  <property name="meta.attr.encoder-eng.markup">6.1.6</property>
  <property name="meta.attr.date.markup">2017-10-04T15:02:57-0400</property>
  <property name="meta.attr.date-eng.markup">2017-10-04T15:02:57-0400</property>
  <property name="meta.attr.location.markup">+44.8967-068.6707+029.067/</property>
  <property name="meta.attr.location-eng.markup">+44.8967-068.6707+029.067/</property>
  <property name="meta.attr.make.markup">Apple</property>
  <property name="meta.attr.make-eng.markup">Apple</property>
  <property name="meta.attr.com.apple.quicktime.make.markup">Apple</property>
  <property name="meta.attr.com.apple.quicktime.creationdate.markup">2017-10-04T15:02:57-0400</property>
  <property name="meta.attr.com.apple.quicktime.location.ISO6709.markup">+44.8967-068.6707+029.067/</property>
  <property name="meta.attr.com.apple.quicktime.software.markup">6.1.6</property>
  <property name="meta.attr.com.apple.quicktime.model.markup">iPhone 3GS</property>
  <property name="meta.media.sample_aspect_num">1</property>
  <property name="meta.media.sample_aspect_den">1</property>
  <property name="meta.media.frame_rate_num">441200</property>
  <property name="meta.media.frame_rate_den">14721</property>
  <property name="meta.media.colorspace">601</property>
  <property name="meta.media.color_trc">1</property>
  <property name="meta.media.width">640</property>
  <property name="meta.media.height">480</property>
  <property name="meta.media.top_field_first">0</property>
  <property name="meta.media.progressive">1</property>
 </producer>
 <producer title="Anonymous Submission" id="14_playlist3" in="0" out="829">
  <property name="length">00:00:27;21</property>
  <property name="eof">pause</property>
  <property name="resource">/run/media/kyan/Windows/Users/Elliot/Desktop/IMG_1949.MOV</property>
  <property name="audio_index">1</property>
  <property name="video_index">0</property>
  <property name="mute_on_pause">1</property>
  <property name="mlt_service">avformat-novalidate</property>
  <property name="seekable">1</property>
  <property name="aspect_ratio">1</property>
  <property name="kdenlive:file_size">12717214</property>
  <property name="kdenlive:file_hash">f2320203e2de5989a4b5fe9672bcc6c6</property>
  <property name="global_feed">1</property>
  <property name="xml">was here</property>
  <property name="meta.media.nb_streams">2</property>
  <property name="meta.media.0.stream.type">video</property>
  <property name="meta.media.0.stream.frame_rate">29.9712</property>
  <property name="meta.media.0.stream.sample_aspect_ratio">0</property>
  <property name="meta.media.0.codec.width">640</property>
  <property name="meta.media.0.codec.height">480</property>
  <property name="meta.media.0.codec.rotate">0</property>
  <property name="meta.media.0.codec.frame_rate">600</property>
  <property name="meta.media.0.codec.pix_fmt">yuv420p</property>
  <property name="meta.media.0.codec.sample_aspect_ratio">0</property>
  <property name="meta.media.0.codec.colorspace">601</property>
  <property name="meta.media.0.codec.color_trc">1</property>
  <property name="meta.media.0.codec.name">h264</property>
  <property name="meta.media.0.codec.long_name">H.264 / AVC / MPEG-4 AVC / MPEG-4 part 10</property>
  <property name="meta.media.0.codec.bit_rate">3587315</property>
  <property name="meta.attr.0.stream.creation_time.markup">2017-10-04T18:54:13.000000Z</property>
  <property name="meta.attr.0.stream.handler_name.markup">Core Media Data Handler</property>
  <property name="meta.attr.0.stream.encoder.markup">H.264</property>
  <property name="meta.media.1.stream.type">audio</property>
  <property name="meta.media.1.codec.sample_fmt">fltp</property>
  <property name="meta.media.1.codec.sample_rate">44100</property>
  <property name="meta.media.1.codec.channels">1</property>
  <property name="meta.media.1.codec.name">aac</property>
  <property name="meta.media.1.codec.long_name">AAC (Advanced Audio Coding)</property>
  <property name="meta.media.1.codec.bit_rate">63996</property>
  <property name="meta.attr.1.stream.creation_time.markup">2017-10-04T18:54:13.000000Z</property>
  <property name="meta.attr.1.stream.handler_name.markup">Core Media Data Handler</property>
  <property name="meta.attr.major_brand.markup">qt  </property>
  <property name="meta.attr.minor_version.markup">0</property>
  <property name="meta.attr.compatible_brands.markup">qt  </property>
  <property name="meta.attr.creation_time.markup">2017-10-04T18:54:13.000000Z</property>
  <property name="meta.attr.model.markup">iPhone 3GS</property>
  <property name="meta.attr.model-eng.markup">iPhone 3GS</property>
  <property name="meta.attr.encoder.markup">6.1.6</property>
  <property name="meta.attr.encoder-eng.markup">6.1.6</property>
  <property name="meta.attr.date.markup">2017-10-04T14:54:13-0400</property>
  <property name="meta.attr.date-eng.markup">2017-10-04T14:54:13-0400</property>
  <property name="meta.attr.location.markup">+44.8998-068.6688+029.066/</property>
  <property name="meta.attr.location-eng.markup">+44.8998-068.6688+029.066/</property>
  <property name="meta.attr.make.markup">Apple</property>
  <property name="meta.attr.make-eng.markup">Apple</property>
  <property name="meta.attr.com.apple.quicktime.make.markup">Apple</property>
  <property name="meta.attr.com.apple.quicktime.creationdate.markup">2017-10-04T14:54:13-0400</property>
  <property name="meta.attr.com.apple.quicktime.location.ISO6709.markup">+44.8998-068.6688+029.066/</property>
  <property name="meta.attr.com.apple.quicktime.software.markup">6.1.6</property>
  <property name="meta.attr.com.apple.quicktime.model.markup">iPhone 3GS</property>
  <property name="meta.media.sample_aspect_num">1</property>
  <property name="meta.media.sample_aspect_den">1</property>
  <property name="meta.media.frame_rate_num">124950</property>
  <property name="meta.media.frame_rate_den">4169</property>
  <property name="meta.media.colorspace">601</property>
  <property name="meta.media.color_trc">1</property>
  <property name="meta.media.width">640</property>
  <property name="meta.media.height">480</property>
  <property name="meta.media.top_field_first">0</property>
  <property name="meta.media.progressive">1</property>
 </producer>
 <producer title="Anonymous Submission" id="13_playlist3" in="0" out="2225">
  <property name="length">00:01:14;08</property>
  <property name="eof">pause</property>
  <property name="resource">/run/media/kyan/Windows/Users/Elliot/Desktop/IMG_1948.MOV</property>
  <property name="audio_index">1</property>
  <property name="video_index">0</property>
  <property name="mute_on_pause">1</property>
  <property name="mlt_service">avformat-novalidate</property>
  <property name="seekable">1</property>
  <property name="aspect_ratio">1</property>
  <property name="kdenlive:file_size">32877151</property>
  <property name="kdenlive:file_hash">1e8a813091e4324176f7b53548550c75</property>
  <property name="global_feed">1</property>
  <property name="xml">was here</property>
  <property name="meta.media.nb_streams">2</property>
  <property name="meta.media.0.stream.type">video</property>
  <property name="meta.media.0.stream.frame_rate">29.9812</property>
  <property name="meta.media.0.stream.sample_aspect_ratio">0</property>
  <property name="meta.media.0.codec.width">640</property>
  <property name="meta.media.0.codec.height">480</property>
  <property name="meta.media.0.codec.rotate">0</property>
  <property name="meta.media.0.codec.frame_rate">600</property>
  <property name="meta.media.0.codec.pix_fmt">yuv420p</property>
  <property name="meta.media.0.codec.sample_aspect_ratio">0</property>
  <property name="meta.media.0.codec.colorspace">601</property>
  <property name="meta.media.0.codec.color_trc">1</property>
  <property name="meta.media.0.codec.name">h264</property>
  <property name="meta.media.0.codec.long_name">H.264 / AVC / MPEG-4 AVC / MPEG-4 part 10</property>
  <property name="meta.media.0.codec.bit_rate">3468710</property>
  <property name="meta.attr.0.stream.creation_time.markup">2017-10-04T18:52:43.000000Z</property>
  <property name="meta.attr.0.stream.handler_name.markup">Core Media Data Handler</property>
  <property name="meta.attr.0.stream.encoder.markup">H.264</property>
  <property name="meta.media.1.stream.type">audio</property>
  <property name="meta.media.1.codec.sample_fmt">fltp</property>
  <property name="meta.media.1.codec.sample_rate">44100</property>
  <property name="meta.media.1.codec.channels">1</property>
  <property name="meta.media.1.codec.name">aac</property>
  <property name="meta.media.1.codec.long_name">AAC (Advanced Audio Coding)</property>
  <property name="meta.media.1.codec.bit_rate">63998</property>
  <property name="meta.attr.1.stream.creation_time.markup">2017-10-04T18:52:43.000000Z</property>
  <property name="meta.attr.1.stream.handler_name.markup">Core Media Data Handler</property>
  <property name="meta.attr.major_brand.markup">qt  </property>
  <property name="meta.attr.minor_version.markup">0</property>
  <property name="meta.attr.compatible_brands.markup">qt  </property>
  <property name="meta.attr.creation_time.markup">2017-10-04T18:52:43.000000Z</property>
  <property name="meta.attr.model.markup">iPhone 3GS</property>
  <property name="meta.attr.model-eng.markup">iPhone 3GS</property>
  <property name="meta.attr.encoder.markup">6.1.6</property>
  <property name="meta.attr.encoder-eng.markup">6.1.6</property>
  <property name="meta.attr.date.markup">2017-10-04T14:52:43-0400</property>
  <property name="meta.attr.date-eng.markup">2017-10-04T14:52:43-0400</property>
  <property name="meta.attr.location.markup">+44.9009-068.6704+061.066/</property>
  <property name="meta.attr.location-eng.markup">+44.9009-068.6704+061.066/</property>
  <property name="meta.attr.make.markup">Apple</property>
  <property name="meta.attr.make-eng.markup">Apple</property>
  <property name="meta.attr.com.apple.quicktime.make.markup">Apple</property>
  <property name="meta.attr.com.apple.quicktime.creationdate.markup">2017-10-04T14:52:43-0400</property>
  <property name="meta.attr.com.apple.quicktime.location.ISO6709.markup">+44.9009-068.6704+061.066/</property>
  <property name="meta.attr.com.apple.quicktime.software.markup">6.1.6</property>
  <property name="meta.attr.com.apple.quicktime.model.markup">iPhone 3GS</property>
  <property name="meta.media.sample_aspect_num">1</property>
  <property name="meta.media.sample_aspect_den">1</property>
  <property name="meta.media.frame_rate_num">55675</property>
  <property name="meta.media.frame_rate_den">1857</property>
  <property name="meta.media.colorspace">601</property>
  <property name="meta.media.color_trc">1</property>
  <property name="meta.media.width">640</property>
  <property name="meta.media.height">480</property>
  <property name="meta.media.top_field_first">0</property>
  <property name="meta.media.progressive">1</property>
 </producer>
 <producer title="Anonymous Submission" id="11_playlist3" in="0" out="230">
  <property name="length">00:00:07;21</property>
  <property name="eof">pause</property>
  <property name="resource">/run/media/kyan/Windows/Users/Elliot/Desktop/IMG_1946.MOV</property>
  <property name="audio_index">1</property>
  <property name="video_index">0</property>
  <property name="mute_on_pause">1</property>
  <property name="mlt_service">avformat-novalidate</property>
  <property name="seekable">1</property>
  <property name="aspect_ratio">1</property>
  <property name="kdenlive:file_size">3545278</property>
  <property name="kdenlive:file_hash">d3799330349018cd19f6b1c1546ecc8d</property>
  <property name="global_feed">1</property>
  <property name="xml">was here</property>
 </producer>
 <producer title="Anonymous Submission" id="10_playlist3" in="0" out="650">
  <property name="length">00:00:21;22</property>
  <property name="eof">pause</property>
  <property name="resource">/run/media/kyan/Windows/Users/Elliot/Desktop/IMG_1945.MOV</property>
  <property name="audio_index">1</property>
  <property name="video_index">0</property>
  <property name="mute_on_pause">1</property>
  <property name="mlt_service">avformat-novalidate</property>
  <property name="seekable">1</property>
  <property name="aspect_ratio">1</property>
  <property name="kdenlive:file_size">9612582</property>
  <property name="kdenlive:file_hash">1780d327403b60abf7ee3c5362653c33</property>
  <property name="global_feed">1</property>
  <property name="xml">was here</property>
  <property name="meta.media.nb_streams">2</property>
  <property name="meta.media.0.stream.type">video</property>
  <property name="meta.media.0.stream.frame_rate">29.9748</property>
  <property name="meta.media.0.stream.sample_aspect_ratio">0</property>
  <property name="meta.media.0.codec.width">640</property>
  <property name="meta.media.0.codec.height">480</property>
  <property name="meta.media.0.codec.rotate">90</property>
  <property name="meta.media.0.codec.frame_rate">600</property>
  <property name="meta.media.0.codec.pix_fmt">yuv420p</property>
  <property name="meta.media.0.codec.sample_aspect_ratio">0</property>
  <property name="meta.media.0.codec.colorspace">601</property>
  <property name="meta.media.0.codec.color_trc">1</property>
  <property name="meta.media.0.codec.name">h264</property>
  <property name="meta.media.0.codec.long_name">H.264 / AVC / MPEG-4 AVC / MPEG-4 part 10</property>
  <property name="meta.media.0.codec.bit_rate">3450447</property>
  <property name="meta.attr.0.stream.rotate.markup">90</property>
  <property name="meta.attr.0.stream.creation_time.markup">2017-10-04T18:50:12.000000Z</property>
  <property name="meta.attr.0.stream.handler_name.markup">Core Media Data Handler</property>
  <property name="meta.attr.0.stream.encoder.markup">H.264</property>
  <property name="meta.media.1.stream.type">audio</property>
  <property name="meta.media.1.codec.sample_fmt">fltp</property>
  <property name="meta.media.1.codec.sample_rate">44100</property>
  <property name="meta.media.1.codec.channels">1</property>
  <property name="meta.media.1.codec.name">aac</property>
  <property name="meta.media.1.codec.long_name">AAC (Advanced Audio Coding)</property>
  <property name="meta.media.1.codec.bit_rate">63932</property>
  <property name="meta.attr.1.stream.creation_time.markup">2017-10-04T18:50:12.000000Z</property>
  <property name="meta.attr.1.stream.handler_name.markup">Core Media Data Handler</property>
  <property name="meta.attr.major_brand.markup">qt  </property>
  <property name="meta.attr.minor_version.markup">0</property>
  <property name="meta.attr.compatible_brands.markup">qt  </property>
  <property name="meta.attr.creation_time.markup">2017-10-04T18:50:12.000000Z</property>
  <property name="meta.attr.model.markup">iPhone 3GS</property>
  <property name="meta.attr.model-eng.markup">iPhone 3GS</property>
  <property name="meta.attr.encoder.markup">6.1.6</property>
  <property name="meta.attr.encoder-eng.markup">6.1.6</property>
  <property name="meta.attr.date.markup">2017-10-04T14:50:12-0400</property>
  <property name="meta.attr.date-eng.markup">2017-10-04T14:50:12-0400</property>
  <property name="meta.attr.location.markup">+44.8997-068.6686+029.066/</property>
  <property name="meta.attr.location-eng.markup">+44.8997-068.6686+029.066/</property>
  <property name="meta.attr.make.markup">Apple</property>
  <property name="meta.attr.make-eng.markup">Apple</property>
  <property name="meta.attr.com.apple.quicktime.make.markup">Apple</property>
  <property name="meta.attr.com.apple.quicktime.creationdate.markup">2017-10-04T14:50:12-0400</property>
  <property name="meta.attr.com.apple.quicktime.location.ISO6709.markup">+44.8997-068.6686+029.066/</property>
  <property name="meta.attr.com.apple.quicktime.software.markup">6.1.6</property>
  <property name="meta.attr.com.apple.quicktime.model.markup">iPhone 3GS</property>
  <property name="meta.media.sample_aspect_num">1</property>
  <property name="meta.media.sample_aspect_den">1</property>
  <property name="meta.media.frame_rate_num">392400</property>
  <property name="meta.media.frame_rate_den">13091</property>
  <property name="meta.media.colorspace">601</property>
  <property name="meta.media.color_trc">1</property>
  <property name="meta.media.width">640</property>
  <property name="meta.media.height">480</property>
  <property name="meta.media.top_field_first">0</property>
  <property name="meta.media.progressive">1</property>
 </producer>
 <producer title="Anonymous Submission" id="9_playlist3" in="0" out="1824">
  <property name="length">00:01:00;27</property>
  <property name="eof">pause</property>
  <property name="resource">/run/media/kyan/Windows/Users/Elliot/Desktop/IMG_1944.MOV</property>
  <property name="audio_index">1</property>
  <property name="video_index">0</property>
  <property name="mute_on_pause">1</property>
  <property name="mlt_service">avformat-novalidate</property>
  <property name="seekable">1</property>
  <property name="aspect_ratio">1</property>
  <property name="kdenlive:file_size">28098073</property>
  <property name="kdenlive:file_hash">1562572ef5d0eeb9721f2c128c2ada50</property>
  <property name="global_feed">1</property>
  <property name="xml">was here</property>
  <property name="meta.media.nb_streams">2</property>
  <property name="meta.media.0.stream.type">video</property>
  <property name="meta.media.0.stream.frame_rate">29.9778</property>
  <property name="meta.media.0.stream.sample_aspect_ratio">0</property>
  <property name="meta.media.0.codec.width">640</property>
  <property name="meta.media.0.codec.height">480</property>
  <property name="meta.media.0.codec.rotate">90</property>
  <property name="meta.media.0.codec.frame_rate">600</property>
  <property name="meta.media.0.codec.pix_fmt">yuv420p</property>
  <property name="meta.media.0.codec.sample_aspect_ratio">0</property>
  <property name="meta.media.0.codec.colorspace">601</property>
  <property name="meta.media.0.codec.color_trc">1</property>
  <property name="meta.media.0.codec.name">h264</property>
  <property name="meta.media.0.codec.long_name">H.264 / AVC / MPEG-4 AVC / MPEG-4 part 10</property>
  <property name="meta.media.0.codec.bit_rate">3618546</property>
  <property name="meta.attr.0.stream.rotate.markup">90</property>
  <property name="meta.attr.0.stream.creation_time.markup">2017-10-04T18:49:03.000000Z</property>
  <property name="meta.attr.0.stream.handler_name.markup">Core Media Data Handler</property>
  <property name="meta.attr.0.stream.encoder.markup">H.264</property>
  <property name="meta.media.1.stream.type">audio</property>
  <property name="meta.media.1.codec.sample_fmt">fltp</property>
  <property name="meta.media.1.codec.sample_rate">44100</property>
  <property name="meta.media.1.codec.channels">1</property>
  <property name="meta.media.1.codec.name">aac</property>
  <property name="meta.media.1.codec.long_name">AAC (Advanced Audio Coding)</property>
  <property name="meta.media.1.codec.bit_rate">63999</property>
  <property name="meta.attr.1.stream.creation_time.markup">2017-10-04T18:49:03.000000Z</property>
  <property name="meta.attr.1.stream.handler_name.markup">Core Media Data Handler</property>
  <property name="meta.attr.major_brand.markup">qt  </property>
  <property name="meta.attr.minor_version.markup">0</property>
  <property name="meta.attr.compatible_brands.markup">qt  </property>
  <property name="meta.attr.creation_time.markup">2017-10-04T18:49:03.000000Z</property>
  <property name="meta.attr.model.markup">iPhone 3GS</property>
  <property name="meta.attr.model-eng.markup">iPhone 3GS</property>
  <property name="meta.attr.encoder.markup">6.1.6</property>
  <property name="meta.attr.encoder-eng.markup">6.1.6</property>
  <property name="meta.attr.date.markup">2017-10-04T14:49:02-0400</property>
  <property name="meta.attr.date-eng.markup">2017-10-04T14:49:02-0400</property>
  <property name="meta.attr.location.markup">+44.8997-068.6687+062.066/</property>
  <property name="meta.attr.location-eng.markup">+44.8997-068.6687+062.066/</property>
  <property name="meta.attr.make.markup">Apple</property>
  <property name="meta.attr.make-eng.markup">Apple</property>
  <property name="meta.attr.com.apple.quicktime.make.markup">Apple</property>
  <property name="meta.attr.com.apple.quicktime.creationdate.markup">2017-10-04T14:49:02-0400</property>
  <property name="meta.attr.com.apple.quicktime.location.ISO6709.markup">+44.8997-068.6687+062.066/</property>
  <property name="meta.attr.com.apple.quicktime.software.markup">6.1.6</property>
  <property name="meta.attr.com.apple.quicktime.model.markup">iPhone 3GS</property>
  <property name="meta.media.sample_aspect_num">1</property>
  <property name="meta.media.sample_aspect_den">1</property>
  <property name="meta.media.frame_rate_num">1095600</property>
  <property name="meta.media.frame_rate_den">36547</property>
  <property name="meta.media.colorspace">601</property>
  <property name="meta.media.color_trc">1</property>
  <property name="meta.media.width">640</property>
  <property name="meta.media.height">480</property>
  <property name="meta.media.top_field_first">0</property>
  <property name="meta.media.progressive">1</property>
 </producer>
 <producer title="Anonymous Submission" id="8_playlist3" in="0" out="2922">
  <property name="length">00:01:37;16</property>
  <property name="eof">pause</property>
  <property name="resource">/run/media/kyan/Windows/Users/Elliot/Desktop/IMG_1943.MOV</property>
  <property name="audio_index">1</property>
  <property name="video_index">0</property>
  <property name="mute_on_pause">1</property>
  <property name="mlt_service">avformat-novalidate</property>
  <property name="seekable">1</property>
  <property name="aspect_ratio">1</property>
  <property name="kdenlive:file_size">44283401</property>
  <property name="kdenlive:file_hash">da4da1fb7b8c73b998747b5d77fd4fb5</property>
  <property name="global_feed">1</property>
  <property name="xml">was here</property>
  <property name="meta.media.nb_streams">2</property>
  <property name="meta.media.0.stream.type">video</property>
  <property name="meta.media.0.stream.frame_rate">29.9693</property>
  <property name="meta.media.0.stream.sample_aspect_ratio">0</property>
  <property name="meta.media.0.codec.width">640</property>
  <property name="meta.media.0.codec.height">480</property>
  <property name="meta.media.0.codec.rotate">90</property>
  <property name="meta.media.0.codec.frame_rate">600</property>
  <property name="meta.media.0.codec.pix_fmt">yuv420p</property>
  <property name="meta.media.0.codec.sample_aspect_ratio">0</property>
  <property name="meta.media.0.codec.colorspace">601</property>
  <property name="meta.media.0.codec.color_trc">1</property>
  <property name="meta.media.0.codec.name">h264</property>
  <property name="meta.media.0.codec.long_name">H.264 / AVC / MPEG-4 AVC / MPEG-4 part 10</property>
  <property name="meta.media.0.codec.bit_rate">3558017</property>
  <property name="meta.attr.0.stream.rotate.markup">90</property>
  <property name="meta.attr.0.stream.creation_time.markup">2017-10-04T18:46:46.000000Z</property>
  <property name="meta.attr.0.stream.handler_name.markup">Core Media Data Handler</property>
  <property name="meta.attr.0.stream.encoder.markup">H.264</property>
  <property name="meta.media.1.stream.type">audio</property>
  <property name="meta.media.1.codec.sample_fmt">fltp</property>
  <property name="meta.media.1.codec.sample_rate">44100</property>
  <property name="meta.media.1.codec.channels">1</property>
  <property name="meta.media.1.codec.name">aac</property>
  <property name="meta.media.1.codec.long_name">AAC (Advanced Audio Coding)</property>
  <property name="meta.media.1.codec.bit_rate">63999</property>
  <property name="meta.attr.1.stream.creation_time.markup">2017-10-04T18:46:46.000000Z</property>
  <property name="meta.attr.1.stream.handler_name.markup">Core Media Data Handler</property>
  <property name="meta.attr.major_brand.markup">qt  </property>
  <property name="meta.attr.minor_version.markup">0</property>
  <property name="meta.attr.compatible_brands.markup">qt  </property>
  <property name="meta.attr.creation_time.markup">2017-10-04T18:46:46.000000Z</property>
  <property name="meta.attr.model.markup">iPhone 3GS</property>
  <property name="meta.attr.model-eng.markup">iPhone 3GS</property>
  <property name="meta.attr.encoder.markup">6.1.6</property>
  <property name="meta.attr.encoder-eng.markup">6.1.6</property>
  <property name="meta.attr.date.markup">2017-10-04T14:46:46-0400</property>
  <property name="meta.attr.date-eng.markup">2017-10-04T14:46:46-0400</property>
  <property name="meta.attr.location.markup">+44.8967-068.6707+073.066/</property>
  <property name="meta.attr.location-eng.markup">+44.8967-068.6707+073.066/</property>
  <property name="meta.attr.make.markup">Apple</property>
  <property name="meta.attr.make-eng.markup">Apple</property>
  <property name="meta.attr.com.apple.quicktime.make.markup">Apple</property>
  <property name="meta.attr.com.apple.quicktime.creationdate.markup">2017-10-04T14:46:46-0400</property>
  <property name="meta.attr.com.apple.quicktime.location.ISO6709.markup">+44.8967-068.6707+073.066/</property>
  <property name="meta.attr.com.apple.quicktime.software.markup">6.1.6</property>
  <property name="meta.attr.com.apple.quicktime.model.markup">iPhone 3GS</property>
  <property name="meta.media.sample_aspect_num">1</property>
  <property name="meta.media.sample_aspect_den">1</property>
  <property name="meta.media.frame_rate_num">14625</property>
  <property name="meta.media.frame_rate_den">488</property>
  <property name="meta.media.colorspace">601</property>
  <property name="meta.media.color_trc">1</property>
  <property name="meta.media.width">640</property>
  <property name="meta.media.height">480</property>
  <property name="meta.media.top_field_first">0</property>
  <property name="meta.media.progressive">1</property>
 </producer>
 <producer title="Anonymous Submission" id="7_playlist3" in="0" out="1110">
  <property name="length">00:00:37;02</property>
  <property name="eof">pause</property>
  <property name="resource">/run/media/kyan/Windows/Users/Elliot/Desktop/IMG_1942.MOV</property>
  <property name="audio_index">1</property>
  <property name="video_index">0</property>
  <property name="mute_on_pause">1</property>
  <property name="mlt_service">avformat-novalidate</property>
  <property name="seekable">1</property>
  <property name="aspect_ratio">1</property>
  <property name="kdenlive:file_size">16761631</property>
  <property name="kdenlive:file_hash">682cba979a2fee4f613eb356b6f746f7</property>
  <property name="global_feed">1</property>
  <property name="xml">was here</property>
  <property name="meta.media.nb_streams">2</property>
  <property name="meta.media.0.stream.type">video</property>
  <property name="meta.media.0.stream.frame_rate">29.9677</property>
  <property name="meta.media.0.stream.sample_aspect_ratio">0</property>
  <property name="meta.media.0.codec.width">640</property>
  <property name="meta.media.0.codec.height">480</property>
  <property name="meta.media.0.codec.rotate">90</property>
  <property name="meta.media.0.codec.frame_rate">600</property>
  <property name="meta.media.0.codec.pix_fmt">yuv420p</property>
  <property name="meta.media.0.codec.sample_aspect_ratio">0</property>
  <property name="meta.media.0.codec.colorspace">601</property>
  <property name="meta.media.0.codec.color_trc">1</property>
  <property name="meta.media.0.codec.name">h264</property>
  <property name="meta.media.0.codec.long_name">H.264 / AVC / MPEG-4 AVC / MPEG-4 part 10</property>
  <property name="meta.media.0.codec.bit_rate">3537503</property>
  <property name="meta.attr.0.stream.rotate.markup">90</property>
  <property name="meta.attr.0.stream.creation_time.markup">2017-10-04T18:44:04.000000Z</property>
  <property name="meta.attr.0.stream.handler_name.markup">Core Media Data Handler</property>
  <property name="meta.attr.0.stream.encoder.markup">H.264</property>
  <property name="meta.media.1.stream.type">audio</property>
  <property name="meta.media.1.codec.sample_fmt">fltp</property>
  <property name="meta.media.1.codec.sample_rate">44100</property>
  <property name="meta.media.1.codec.channels">1</property>
  <property name="meta.media.1.codec.name">aac</property>
  <property name="meta.media.1.codec.long_name">AAC (Advanced Audio Coding)</property>
  <property name="meta.media.1.codec.bit_rate">63960</property>
  <property name="meta.attr.1.stream.creation_time.markup">2017-10-04T18:44:04.000000Z</property>
  <property name="meta.attr.1.stream.handler_name.markup">Core Media Data Handler</property>
  <property name="meta.attr.major_brand.markup">qt  </property>
  <property name="meta.attr.minor_version.markup">0</property>
  <property name="meta.attr.compatible_brands.markup">qt  </property>
  <property name="meta.attr.creation_time.markup">2017-10-04T18:44:04.000000Z</property>
  <property name="meta.attr.model.markup">iPhone 3GS</property>
  <property name="meta.attr.model-eng.markup">iPhone 3GS</property>
  <property name="meta.attr.encoder.markup">6.1.6</property>
  <property name="meta.attr.encoder-eng.markup">6.1.6</property>
  <property name="meta.attr.date.markup">2017-10-04T14:44:04-0400</property>
  <property name="meta.attr.date-eng.markup">2017-10-04T14:44:04-0400</property>
  <property name="meta.attr.location.markup">+44.8993-068.6688+073.066/</property>
  <property name="meta.attr.location-eng.markup">+44.8993-068.6688+073.066/</property>
  <property name="meta.attr.make.markup">Apple</property>
  <property name="meta.attr.make-eng.markup">Apple</property>
  <property name="meta.attr.com.apple.quicktime.make.markup">Apple</property>
  <property name="meta.attr.com.apple.quicktime.creationdate.markup">2017-10-04T14:44:04-0400</property>
  <property name="meta.attr.com.apple.quicktime.location.ISO6709.markup">+44.8993-068.6688+073.066/</property>
  <property name="meta.attr.com.apple.quicktime.software.markup">6.1.6</property>
  <property name="meta.attr.com.apple.quicktime.model.markup">iPhone 3GS</property>
  <property name="meta.media.sample_aspect_num">1</property>
  <property name="meta.media.sample_aspect_den">1</property>
  <property name="meta.media.frame_rate_num">18550</property>
  <property name="meta.media.frame_rate_den">619</property>
  <property name="meta.media.colorspace">601</property>
  <property name="meta.media.color_trc">1</property>
  <property name="meta.media.width">640</property>
  <property name="meta.media.height">480</property>
  <property name="meta.media.top_field_first">0</property>
  <property name="meta.media.progressive">1</property>
 </producer>
 <producer title="Anonymous Submission" id="6_playlist3" in="0" out="30">
  <property name="length">00:00:01;01</property>
  <property name="eof">pause</property>
  <property name="resource">/run/media/kyan/Windows/Users/Elliot/Desktop/IMG_1941.MOV</property>
  <property name="audio_index">1</property>
  <property name="video_index">0</property>
  <property name="mute_on_pause">1</property>
  <property name="mlt_service">avformat-novalidate</property>
  <property name="seekable">1</property>
  <property name="aspect_ratio">1</property>
  <property name="kdenlive:file_size">537425</property>
  <property name="kdenlive:file_hash">bdfe2b26c1c49d2ae4d4a8edcea8bb68</property>
  <property name="global_feed">1</property>
  <property name="xml">was here</property>
  <property name="meta.media.nb_streams">2</property>
  <property name="meta.media.0.stream.type">video</property>
  <property name="meta.media.0.stream.frame_rate">29.9517</property>
  <property name="meta.media.0.stream.sample_aspect_ratio">0</property>
  <property name="meta.media.0.codec.width">640</property>
  <property name="meta.media.0.codec.height">480</property>
  <property name="meta.media.0.codec.rotate">180</property>
  <property name="meta.media.0.codec.frame_rate">600</property>
  <property name="meta.media.0.codec.pix_fmt">yuv420p</property>
  <property name="meta.media.0.codec.sample_aspect_ratio">0</property>
  <property name="meta.media.0.codec.colorspace">601</property>
  <property name="meta.media.0.codec.color_trc">1</property>
  <property name="meta.media.0.codec.name">h264</property>
  <property name="meta.media.0.codec.long_name">H.264 / AVC / MPEG-4 AVC / MPEG-4 part 10</property>
  <property name="meta.media.0.codec.bit_rate">4057749</property>
  <property name="meta.attr.0.stream.rotate.markup">180</property>
  <property name="meta.attr.0.stream.creation_time.markup">2017-10-04T18:43:22.000000Z</property>
  <property name="meta.attr.0.stream.handler_name.markup">Core Media Data Handler</property>
  <property name="meta.attr.0.stream.encoder.markup">H.264</property>
  <property name="meta.media.1.stream.type">audio</property>
  <property name="meta.media.1.codec.sample_fmt">fltp</property>
  <property name="meta.media.1.codec.sample_rate">44100</property>
  <property name="meta.media.1.codec.channels">1</property>
  <property name="meta.media.1.codec.name">aac</property>
  <property name="meta.media.1.codec.long_name">AAC (Advanced Audio Coding)</property>
  <property name="meta.media.1.codec.bit_rate">66113</property>
  <property name="meta.attr.1.stream.creation_time.markup">2017-10-04T18:43:22.000000Z</property>
  <property name="meta.attr.1.stream.handler_name.markup">Core Media Data Handler</property>
  <property name="meta.attr.major_brand.markup">qt  </property>
  <property name="meta.attr.minor_version.markup">0</property>
  <property name="meta.attr.compatible_brands.markup">qt  </property>
  <property name="meta.attr.creation_time.markup">2017-10-04T18:43:22.000000Z</property>
  <property name="meta.attr.model.markup">iPhone 3GS</property>
  <property name="meta.attr.model-eng.markup">iPhone 3GS</property>
  <property name="meta.attr.encoder.markup">6.1.6</property>
  <property name="meta.attr.encoder-eng.markup">6.1.6</property>
  <property name="meta.attr.date.markup">2017-10-04T14:43:22-0400</property>
  <property name="meta.attr.date-eng.markup">2017-10-04T14:43:22-0400</property>
  <property name="meta.attr.location.markup">+44.8988-068.6687+029.067/</property>
  <property name="meta.attr.location-eng.markup">+44.8988-068.6687+029.067/</property>
  <property name="meta.attr.make.markup">Apple</property>
  <property name="meta.attr.make-eng.markup">Apple</property>
  <property name="meta.attr.com.apple.quicktime.make.markup">Apple</property>
  <property name="meta.attr.com.apple.quicktime.creationdate.markup">2017-10-04T14:43:22-0400</property>
  <property name="meta.attr.com.apple.quicktime.location.ISO6709.markup">+44.8988-068.6687+029.067/</property>
  <property name="meta.attr.com.apple.quicktime.software.markup">6.1.6</property>
  <property name="meta.attr.com.apple.quicktime.model.markup">iPhone 3GS</property>
  <property name="meta.media.sample_aspect_num">1</property>
  <property name="meta.media.sample_aspect_den">1</property>
  <property name="meta.media.frame_rate_num">6200</property>
  <property name="meta.media.frame_rate_den">207</property>
  <property name="meta.media.colorspace">601</property>
  <property name="meta.media.color_trc">1</property>
  <property name="meta.media.width">640</property>
  <property name="meta.media.height">480</property>
  <property name="meta.media.top_field_first">0</property>
  <property name="meta.media.progressive">1</property>
 </producer>
 <producer title="Anonymous Submission" id="20_playlist3" in="0" out="41">
  <property name="length">00:00:01;12</property>
  <property name="eof">pause</property>
  <property name="resource">/run/media/kyan/Windows/Users/Elliot/Desktop/Files/IMG_1940.MOV</property>
  <property name="audio_index">1</property>
  <property name="video_index">0</property>
  <property name="mute_on_pause">1</property>
  <property name="mlt_service">avformat-novalidate</property>
  <property name="seekable">1</property>
  <property name="aspect_ratio">1</property>
  <property name="kdenlive:file_size">551602</property>
  <property name="kdenlive:file_hash">23b82787089968727c08279d83821e3f</property>
  <property name="global_feed">1</property>
  <property name="xml">was here</property>
  <property name="meta.media.nb_streams">2</property>
  <property name="meta.media.0.stream.type">video</property>
  <property name="meta.media.0.stream.frame_rate">22.695</property>
  <property name="meta.media.0.stream.sample_aspect_ratio">0</property>
  <property name="meta.media.0.codec.width">640</property>
  <property name="meta.media.0.codec.height">480</property>
  <property name="meta.media.0.codec.rotate">0</property>
  <property name="meta.media.0.codec.frame_rate">600</property>
  <property name="meta.media.0.codec.pix_fmt">yuv420p</property>
  <property name="meta.media.0.codec.sample_aspect_ratio">0</property>
  <property name="meta.media.0.codec.colorspace">601</property>
  <property name="meta.media.0.codec.color_trc">1</property>
  <property name="meta.media.0.codec.name">h264</property>
  <property name="meta.media.0.codec.long_name">H.264 / AVC / MPEG-4 AVC / MPEG-4 part 10</property>
  <property name="meta.media.0.codec.bit_rate">3085310</property>
  <property name="meta.attr.0.stream.creation_time.markup">2017-10-04T18:43:14.000000Z</property>
  <property name="meta.attr.0.stream.handler_name.markup">Core Media Data Handler</property>
  <property name="meta.attr.0.stream.encoder.markup">H.264</property>
  <property name="meta.media.1.stream.type">audio</property>
  <property name="meta.media.1.codec.sample_fmt">fltp</property>
  <property name="meta.media.1.codec.sample_rate">44100</property>
  <property name="meta.media.1.codec.channels">1</property>
  <property name="meta.media.1.codec.name">aac</property>
  <property name="meta.media.1.codec.long_name">AAC (Advanced Audio Coding)</property>
  <property name="meta.media.1.codec.bit_rate">65296</property>
  <property name="meta.attr.1.stream.creation_time.markup">2017-10-04T18:43:14.000000Z</property>
  <property name="meta.attr.1.stream.handler_name.markup">Core Media Data Handler</property>
  <property name="meta.attr.major_brand.markup">qt  </property>
  <property name="meta.attr.minor_version.markup">0</property>
  <property name="meta.attr.compatible_brands.markup">qt  </property>
  <property name="meta.attr.creation_time.markup">2017-10-04T18:43:14.000000Z</property>
  <property name="meta.attr.model.markup">iPhone 3GS</property>
  <property name="meta.attr.model-eng.markup">iPhone 3GS</property>
  <property name="meta.attr.encoder.markup">6.1.6</property>
  <property name="meta.attr.encoder-eng.markup">6.1.6</property>
  <property name="meta.attr.date.markup">2017-10-04T14:43:14-0400</property>
  <property name="meta.attr.date-eng.markup">2017-10-04T14:43:14-0400</property>
  <property name="meta.attr.location.markup">+44.8988-068.6687+082.067/</property>
  <property name="meta.attr.location-eng.markup">+44.8988-068.6687+082.067/</property>
  <property name="meta.attr.make.markup">Apple</property>
  <property name="meta.attr.make-eng.markup">Apple</property>
  <property name="meta.attr.com.apple.quicktime.make.markup">Apple</property>
  <property name="meta.attr.com.apple.quicktime.creationdate.markup">2017-10-04T14:43:14-0400</property>
  <property name="meta.attr.com.apple.quicktime.location.ISO6709.markup">+44.8988-068.6687+082.067/</property>
  <property name="meta.attr.com.apple.quicktime.software.markup">6.1.6</property>
  <property name="meta.attr.com.apple.quicktime.model.markup">iPhone 3GS</property>
  <property name="meta.media.sample_aspect_num">1</property>
  <property name="meta.media.sample_aspect_den">1</property>
  <property name="meta.media.frame_rate_num">3200</property>
  <property name="meta.media.frame_rate_den">141</property>
  <property name="meta.media.colorspace">601</property>
  <property name="meta.media.color_trc">1</property>
  <property name="meta.media.width">640</property>
  <property name="meta.media.height">480</property>
  <property name="meta.media.top_field_first">0</property>
  <property name="meta.media.progressive">1</property>
 </producer>
 <producer title="Anonymous Submission" id="5_playlist3" in="0" out="41">
  <property name="length">00:00:01;12</property>
  <property name="eof">pause</property>
  <property name="resource">/run/media/kyan/Windows/Users/Elliot/Desktop/IMG_1940.MOV</property>
  <property name="audio_index">1</property>
  <property name="video_index">0</property>
  <property name="mute_on_pause">1</property>
  <property name="mlt_service">avformat-novalidate</property>
  <property name="seekable">1</property>
  <property name="aspect_ratio">1</property>
  <property name="kdenlive:file_size">551602</property>
  <property name="kdenlive:file_hash">23b82787089968727c08279d83821e3f</property>
  <property name="global_feed">1</property>
  <property name="xml">was here</property>
  <property name="meta.media.nb_streams">2</property>
  <property name="meta.media.0.stream.type">video</property>
  <property name="meta.media.0.stream.frame_rate">22.695</property>
  <property name="meta.media.0.stream.sample_aspect_ratio">0</property>
  <property name="meta.media.0.codec.width">640</property>
  <property name="meta.media.0.codec.height">480</property>
  <property name="meta.media.0.codec.rotate">0</property>
  <property name="meta.media.0.codec.frame_rate">600</property>
  <property name="meta.media.0.codec.pix_fmt">yuv420p</property>
  <property name="meta.media.0.codec.sample_aspect_ratio">0</property>
  <property name="meta.media.0.codec.colorspace">601</property>
  <property name="meta.media.0.codec.color_trc">1</property>
  <property name="meta.media.0.codec.name">h264</property>
  <property name="meta.media.0.codec.long_name">H.264 / AVC / MPEG-4 AVC / MPEG-4 part 10</property>
  <property name="meta.media.0.codec.bit_rate">3085310</property>
  <property name="meta.attr.0.stream.creation_time.markup">2017-10-04T18:43:14.000000Z</property>
  <property name="meta.attr.0.stream.handler_name.markup">Core Media Data Handler</property>
  <property name="meta.attr.0.stream.encoder.markup">H.264</property>
  <property name="meta.media.1.stream.type">audio</property>
  <property name="meta.media.1.codec.sample_fmt">fltp</property>
  <property name="meta.media.1.codec.sample_rate">44100</property>
  <property name="meta.media.1.codec.channels">1</property>
  <property name="meta.media.1.codec.name">aac</property>
  <property name="meta.media.1.codec.long_name">AAC (Advanced Audio Coding)</property>
  <property name="meta.media.1.codec.bit_rate">65296</property>
  <property name="meta.attr.1.stream.creation_time.markup">2017-10-04T18:43:14.000000Z</property>
  <property name="meta.attr.1.stream.handler_name.markup">Core Media Data Handler</property>
  <property name="meta.attr.major_brand.markup">qt  </property>
  <property name="meta.attr.minor_version.markup">0</property>
  <property name="meta.attr.compatible_brands.markup">qt  </property>
  <property name="meta.attr.creation_time.markup">2017-10-04T18:43:14.000000Z</property>
  <property name="meta.attr.model.markup">iPhone 3GS</property>
  <property name="meta.attr.model-eng.markup">iPhone 3GS</property>
  <property name="meta.attr.encoder.markup">6.1.6</property>
  <property name="meta.attr.encoder-eng.markup">6.1.6</property>
  <property name="meta.attr.date.markup">2017-10-04T14:43:14-0400</property>
  <property name="meta.attr.date-eng.markup">2017-10-04T14:43:14-0400</property>
  <property name="meta.attr.location.markup">+44.8988-068.6687+082.067/</property>
  <property name="meta.attr.location-eng.markup">+44.8988-068.6687+082.067/</property>
  <property name="meta.attr.make.markup">Apple</property>
  <property name="meta.attr.make-eng.markup">Apple</property>
  <property name="meta.attr.com.apple.quicktime.make.markup">Apple</property>
  <property name="meta.attr.com.apple.quicktime.creationdate.markup">2017-10-04T14:43:14-0400</property>
  <property name="meta.attr.com.apple.quicktime.location.ISO6709.markup">+44.8988-068.6687+082.067/</property>
  <property name="meta.attr.com.apple.quicktime.software.markup">6.1.6</property>
  <property name="meta.attr.com.apple.quicktime.model.markup">iPhone 3GS</property>
  <property name="meta.media.sample_aspect_num">1</property>
  <property name="meta.media.sample_aspect_den">1</property>
  <property name="meta.media.frame_rate_num">3200</property>
  <property name="meta.media.frame_rate_den">141</property>
  <property name="meta.media.colorspace">601</property>
  <property name="meta.media.color_trc">1</property>
  <property name="meta.media.width">640</property>
  <property name="meta.media.height">480</property>
  <property name="meta.media.top_field_first">0</property>
  <property name="meta.media.progressive">1</property>
 </producer>
 <producer title="Anonymous Submission" id="19_playlist3" in="0" out="110">
  <property name="length">00:00:03;21</property>
  <property name="eof">pause</property>
  <property name="resource">/run/media/kyan/Windows/Users/Elliot/Desktop/Files/IMG_1938.MOV</property>
  <property name="audio_index">1</property>
  <property name="video_index">0</property>
  <property name="mute_on_pause">1</property>
  <property name="mlt_service">avformat-novalidate</property>
  <property name="seekable">1</property>
  <property name="aspect_ratio">1</property>
  <property name="kdenlive:file_size">1686946</property>
  <property name="kdenlive:file_hash">608646371dfb0e4a37353d155f46b6e3</property>
  <property name="global_feed">1</property>
  <property name="xml">was here</property>
  <property name="meta.media.nb_streams">2</property>
  <property name="meta.media.0.stream.type">video</property>
  <property name="meta.media.0.stream.frame_rate">29.973</property>
  <property name="meta.media.0.stream.sample_aspect_ratio">0</property>
  <property name="meta.media.0.codec.width">640</property>
  <property name="meta.media.0.codec.height">480</property>
  <property name="meta.media.0.codec.rotate">90</property>
  <property name="meta.media.0.codec.frame_rate">600</property>
  <property name="meta.media.0.codec.pix_fmt">yuv420p</property>
  <property name="meta.media.0.codec.sample_aspect_ratio">0</property>
  <property name="meta.media.0.codec.colorspace">601</property>
  <property name="meta.media.0.codec.color_trc">1</property>
  <property name="meta.media.0.codec.name">h264</property>
  <property name="meta.media.0.codec.long_name">H.264 / AVC / MPEG-4 AVC / MPEG-4 part 10</property>
  <property name="meta.media.0.codec.bit_rate">3568762</property>
  <property name="meta.attr.0.stream.rotate.markup">90</property>
  <property name="meta.attr.0.stream.creation_time.markup">2017-10-04T18:42:03.000000Z</property>
  <property name="meta.attr.0.stream.handler_name.markup">Core Media Data Handler</property>
  <property name="meta.attr.0.stream.encoder.markup">H.264</property>
  <property name="meta.media.1.stream.type">audio</property>
  <property name="meta.media.1.codec.sample_fmt">fltp</property>
  <property name="meta.media.1.codec.sample_rate">44100</property>
  <property name="meta.media.1.codec.channels">1</property>
  <property name="meta.media.1.codec.name">aac</property>
  <property name="meta.media.1.codec.long_name">AAC (Advanced Audio Coding)</property>
  <property name="meta.media.1.codec.bit_rate">64621</property>
  <property name="meta.attr.1.stream.creation_time.markup">2017-10-04T18:42:03.000000Z</property>
  <property name="meta.attr.1.stream.handler_name.markup">Core Media Data Handler</property>
  <property name="meta.attr.major_brand.markup">qt  </property>
  <property name="meta.attr.minor_version.markup">0</property>
  <property name="meta.attr.compatible_brands.markup">qt  </property>
  <property name="meta.attr.creation_time.markup">2017-10-04T18:42:03.000000Z</property>
  <property name="meta.attr.model.markup">iPhone 3GS</property>
  <property name="meta.attr.model-eng.markup">iPhone 3GS</property>
  <property name="meta.attr.encoder.markup">6.1.6</property>
  <property name="meta.attr.encoder-eng.markup">6.1.6</property>
  <property name="meta.attr.date.markup">2017-10-04T14:42:03-0400</property>
  <property name="meta.attr.date-eng.markup">2017-10-04T14:42:03-0400</property>
  <property name="meta.attr.location.markup">+44.8988-068.6687+081.067/</property>
  <property name="meta.attr.location-eng.markup">+44.8988-068.6687+081.067/</property>
  <property name="meta.attr.make.markup">Apple</property>
  <property name="meta.attr.make-eng.markup">Apple</property>
  <property name="meta.attr.com.apple.quicktime.make.markup">Apple</property>
  <property name="meta.attr.com.apple.quicktime.creationdate.markup">2017-10-04T14:42:03-0400</property>
  <property name="meta.attr.com.apple.quicktime.location.ISO6709.markup">+44.8988-068.6687+081.067/</property>
  <property name="meta.attr.com.apple.quicktime.software.markup">6.1.6</property>
  <property name="meta.attr.com.apple.quicktime.model.markup">iPhone 3GS</property>
  <property name="meta.media.sample_aspect_num">1</property>
  <property name="meta.media.sample_aspect_den">1</property>
  <property name="meta.media.frame_rate_num">33300</property>
  <property name="meta.media.frame_rate_den">1111</property>
  <property name="meta.media.colorspace">601</property>
  <property name="meta.media.color_trc">1</property>
  <property name="meta.media.width">640</property>
  <property name="meta.media.height">480</property>
  <property name="meta.media.top_field_first">0</property>
  <property name="meta.media.progressive">1</property>
 </producer>
 <producer title="Anonymous Submission" id="18_playlist3" in="0" out="718">
  <property name="length">00:00:24;00</property>
  <property name="eof">pause</property>
  <property name="resource">/run/media/kyan/Windows/Users/Elliot/Desktop/Files/IMG_1937.MOV</property>
  <property name="audio_index">1</property>
  <property name="video_index">0</property>
  <property name="mute_on_pause">1</property>
  <property name="mlt_service">avformat-novalidate</property>
  <property name="seekable">1</property>
  <property name="aspect_ratio">1</property>
  <property name="kdenlive:file_size">10975545</property>
  <property name="kdenlive:file_hash">5258660c6fc9c051d9bf2dfbfb636811</property>
  <property name="global_feed">1</property>
  <property name="xml">was here</property>
  <property name="meta.media.nb_streams">2</property>
  <property name="meta.media.0.stream.type">video</property>
  <property name="meta.media.0.stream.frame_rate">29.9855</property>
  <property name="meta.media.0.stream.sample_aspect_ratio">0</property>
  <property name="meta.media.0.codec.width">640</property>
  <property name="meta.media.0.codec.height">480</property>
  <property name="meta.media.0.codec.rotate">180</property>
  <property name="meta.media.0.codec.frame_rate">600</property>
  <property name="meta.media.0.codec.pix_fmt">yuv420p</property>
  <property name="meta.media.0.codec.sample_aspect_ratio">0</property>
  <property name="meta.media.0.codec.colorspace">601</property>
  <property name="meta.media.0.codec.color_trc">1</property>
  <property name="meta.media.0.codec.name">h264</property>
  <property name="meta.media.0.codec.long_name">H.264 / AVC / MPEG-4 AVC / MPEG-4 part 10</property>
  <property name="meta.media.0.codec.bit_rate">3573304</property>
  <property name="meta.attr.0.stream.rotate.markup">180</property>
  <property name="meta.attr.0.stream.creation_time.markup">2017-10-04T18:41:25.000000Z</property>
  <property name="meta.attr.0.stream.handler_name.markup">Core Media Data Handler</property>
  <property name="meta.attr.0.stream.encoder.markup">H.264</property>
  <property name="meta.media.1.stream.type">audio</property>
  <property name="meta.media.1.codec.sample_fmt">fltp</property>
  <property name="meta.media.1.codec.sample_rate">44100</property>
  <property name="meta.media.1.codec.channels">1</property>
  <property name="meta.media.1.codec.name">aac</property>
  <property name="meta.media.1.codec.long_name">AAC (Advanced Audio Coding)</property>
  <property name="meta.media.1.codec.bit_rate">63938</property>
  <property name="meta.attr.1.stream.creation_time.markup">2017-10-04T18:41:25.000000Z</property>
  <property name="meta.attr.1.stream.handler_name.markup">Core Media Data Handler</property>
  <property name="meta.attr.major_brand.markup">qt  </property>
  <property name="meta.attr.minor_version.markup">0</property>
  <property name="meta.attr.compatible_brands.markup">qt  </property>
  <property name="meta.attr.creation_time.markup">2017-10-04T18:41:25.000000Z</property>
  <property name="meta.attr.model.markup">iPhone 3GS</property>
  <property name="meta.attr.model-eng.markup">iPhone 3GS</property>
  <property name="meta.attr.encoder.markup">6.1.6</property>
  <property name="meta.attr.encoder-eng.markup">6.1.6</property>
  <property name="meta.attr.date.markup">2017-10-04T14:41:25-0400</property>
  <property name="meta.attr.date-eng.markup">2017-10-04T14:41:25-0400</property>
  <property name="meta.attr.location.markup">+44.8990-068.6686+085.067/</property>
  <property name="meta.attr.location-eng.markup">+44.8990-068.6686+085.067/</property>
  <property name="meta.attr.make.markup">Apple</property>
  <property name="meta.attr.make-eng.markup">Apple</property>
  <property name="meta.attr.com.apple.quicktime.make.markup">Apple</property>
  <property name="meta.attr.com.apple.quicktime.creationdate.markup">2017-10-04T14:41:25-0400</property>
  <property name="meta.attr.com.apple.quicktime.location.ISO6709.markup">+44.8990-068.6686+085.067/</property>
  <property name="meta.attr.com.apple.quicktime.software.markup">6.1.6</property>
  <property name="meta.attr.com.apple.quicktime.model.markup">iPhone 3GS</property>
  <property name="meta.media.sample_aspect_num">1</property>
  <property name="meta.media.sample_aspect_den">1</property>
  <property name="meta.media.frame_rate_num">433200</property>
  <property name="meta.media.frame_rate_den">14447</property>
  <property name="meta.media.colorspace">601</property>
  <property name="meta.media.color_trc">1</property>
  <property name="meta.media.width">640</property>
  <property name="meta.media.height">480</property>
  <property name="meta.media.top_field_first">0</property>
  <property name="meta.media.progressive">1</property>
 </producer>
 <producer title="Anonymous Submission" id="3_playlist3" in="0" out="2402">
  <property name="length">00:01:20;05</property>
  <property name="eof">pause</property>
  <property name="resource">/run/media/kyan/Windows/Users/Elliot/Desktop/IMG_1936.MOV</property>
  <property name="audio_index">1</property>
  <property name="video_index">0</property>
  <property name="mute_on_pause">1</property>
  <property name="mlt_service">avformat-novalidate</property>
  <property name="seekable">1</property>
  <property name="aspect_ratio">1</property>
  <property name="kdenlive:file_size">36227379</property>
  <property name="kdenlive:file_hash">bb5a8fccd9c63a4c0472473c7b7e2626</property>
  <property name="global_feed">1</property>
  <property name="xml">was here</property>
  <property name="meta.media.nb_streams">2</property>
  <property name="meta.media.0.stream.type">video</property>
  <property name="meta.media.0.stream.frame_rate">29.9751</property>
  <property name="meta.media.0.stream.sample_aspect_ratio">0</property>
  <property name="meta.media.0.codec.width">640</property>
  <property name="meta.media.0.codec.height">480</property>
  <property name="meta.media.0.codec.rotate">90</property>
  <property name="meta.media.0.codec.frame_rate">600</property>
  <property name="meta.media.0.codec.pix_fmt">yuv420p</property>
  <property name="meta.media.0.codec.sample_aspect_ratio">0</property>
  <property name="meta.media.0.codec.colorspace">601</property>
  <property name="meta.media.0.codec.color_trc">1</property>
  <property name="meta.media.0.codec.name">h264</property>
  <property name="meta.media.0.codec.long_name">H.264 / AVC / MPEG-4 AVC / MPEG-4 part 10</property>
  <property name="meta.media.0.codec.bit_rate">3542056</property>
  <property name="meta.attr.0.stream.rotate.markup">90</property>
  <property name="meta.attr.0.stream.creation_time.markup">2017-10-04T18:39:19.000000Z</property>
  <property name="meta.attr.0.stream.handler_name.markup">Core Media Data Handler</property>
  <property name="meta.attr.0.stream.encoder.markup">H.264</property>
  <property name="meta.media.1.stream.type">audio</property>
  <property name="meta.media.1.codec.sample_fmt">fltp</property>
  <property name="meta.media.1.codec.sample_rate">44100</property>
  <property name="meta.media.1.codec.channels">1</property>
  <property name="meta.media.1.codec.name">aac</property>
  <property name="meta.media.1.codec.long_name">AAC (Advanced Audio Coding)</property>
  <property name="meta.media.1.codec.bit_rate">63999</property>
  <property name="meta.attr.1.stream.creation_time.markup">2017-10-04T18:39:19.000000Z</property>
  <property name="meta.attr.1.stream.handler_name.markup">Core Media Data Handler</property>
  <property name="meta.attr.major_brand.markup">qt  </property>
  <property name="meta.attr.minor_version.markup">0</property>
  <property name="meta.attr.compatible_brands.markup">qt  </property>
  <property name="meta.attr.creation_time.markup">2017-10-04T18:39:19.000000Z</property>
  <property name="meta.attr.model.markup">iPhone 3GS</property>
  <property name="meta.attr.model-eng.markup">iPhone 3GS</property>
  <property name="meta.attr.encoder.markup">6.1.6</property>
  <property name="meta.attr.encoder-eng.markup">6.1.6</property>
  <property name="meta.attr.date.markup">2017-10-04T14:39:19-0400</property>
  <property name="meta.attr.date-eng.markup">2017-10-04T14:39:19-0400</property>
  <property name="meta.attr.location.markup">+44.8966-068.6707+041.067/</property>
  <property name="meta.attr.location-eng.markup">+44.8966-068.6707+041.067/</property>
  <property name="meta.attr.make.markup">Apple</property>
  <property name="meta.attr.make-eng.markup">Apple</property>
  <property name="meta.attr.com.apple.quicktime.make.markup">Apple</property>
  <property name="meta.attr.com.apple.quicktime.creationdate.markup">2017-10-04T14:39:19-0400</property>
  <property name="meta.attr.com.apple.quicktime.location.ISO6709.markup">+44.8966-068.6707+041.067/</property>
  <property name="meta.attr.com.apple.quicktime.software.markup">6.1.6</property>
  <property name="meta.attr.com.apple.quicktime.model.markup">iPhone 3GS</property>
  <property name="meta.media.sample_aspect_num">1</property>
  <property name="meta.media.sample_aspect_den">1</property>
  <property name="meta.media.frame_rate_num">12020</property>
  <property name="meta.media.frame_rate_den">401</property>
  <property name="meta.media.colorspace">601</property>
  <property name="meta.media.color_trc">1</property>
  <property name="meta.media.width">640</property>
  <property name="meta.media.height">480</property>
  <property name="meta.media.top_field_first">0</property>
  <property name="meta.media.progressive">1</property>
 </producer>
 <playlist id="playlist3">
  <property name="kdenlive:track_name">Video 1</property>
  <blank length="317"/>
  <entry producer="2_playlist3" in="9538" out="9657"/>
  <entry producer="2_playlist3" in="7313" out="7394"/>
  <blank length="1207"/>
  <entry producer="17_playlist3" in="0" out="160"/>
  <blank length="2856"/>
  <entry producer="17_playlist3" in="365" out="688"/>
  <blank length="590"/>
  <entry producer="17_playlist3" in="689" out="1331"/>
  <blank length="599"/>
  <entry producer="17_playlist3" in="1332" out="2205"/>
  <blank length="581"/>
  <entry producer="14_playlist3" in="0" out="829"/>
  <blank length="1"/>
  <entry producer="13_playlist3" in="0" out="2225"/>
  <blank length="1775"/>
  <entry producer="11_playlist3" in="0" out="230"/>
  <entry producer="10_playlist3" in="0" out="650"/>
  <blank length="1"/>
  <entry producer="9_playlist3" in="0" out="1824"/>
  <entry producer="8_playlist3" in="0" out="2922"/>
  <blank length="1"/>
  <entry producer="7_playlist3" in="0" out="1110"/>
  <blank length="1"/>
  <entry producer="6_playlist3" in="0" out="30"/>
  <entry producer="20_playlist3" in="0" out="41"/>
  <entry producer="5_playlist3" in="0" out="41"/>
  <blank length="1659"/>
  <entry producer="19_playlist3" in="0" out="110"/>
  <entry producer="18_playlist3" in="0" out="718"/>
  <blank length="1"/>
  <entry producer="3_playlist3" in="0" out="2402"/>
  <entry producer="2_playlist3" in="0" out="7168"/>
  <entry producer="2_playlist3" in="7169" out="7254"/>
 </playlist>
 <producer title="Anonymous Submission" id="15_playlist0" in="0" out="3989">
  <property name="length">00:02:13;04</property>
  <property name="eof">pause</property>
  <property name="resource">/run/media/kyan/Windows/Users/Elliot/Desktop/IMG_1950.MOV</property>
  <property name="audio_index">1</property>
  <property name="video_index">0</property>
  <property name="mute_on_pause">1</property>
  <property name="mlt_service">avformat-novalidate</property>
  <property name="seekable">1</property>
  <property name="aspect_ratio">1</property>
  <property name="kdenlive:file_size">59659615</property>
  <property name="kdenlive:file_hash">062ba99220c768f9cecdeb3b28ef535c</property>
  <property name="global_feed">1</property>
  <property name="xml">was here</property>
  <property name="meta.media.nb_streams">2</property>
  <property name="meta.media.0.stream.type">video</property>
  <property name="meta.media.0.stream.frame_rate">29.9703</property>
  <property name="meta.media.0.stream.sample_aspect_ratio">0</property>
  <property name="meta.media.0.codec.width">640</property>
  <property name="meta.media.0.codec.height">480</property>
  <property name="meta.media.0.codec.rotate">90</property>
  <property name="meta.media.0.codec.frame_rate">600</property>
  <property name="meta.media.0.codec.pix_fmt">yuv420p</property>
  <property name="meta.media.0.codec.sample_aspect_ratio">0</property>
  <property name="meta.media.0.codec.colorspace">601</property>
  <property name="meta.media.0.codec.color_trc">1</property>
  <property name="meta.media.0.codec.name">h264</property>
  <property name="meta.media.0.codec.long_name">H.264 / AVC / MPEG-4 AVC / MPEG-4 part 10</property>
  <property name="meta.media.0.codec.bit_rate">3512528</property>
  <property name="meta.attr.0.stream.rotate.markup">90</property>
  <property name="meta.attr.0.stream.creation_time.markup">2017-10-04T18:56:27.000000Z</property>
  <property name="meta.attr.0.stream.handler_name.markup">Core Media Data Handler</property>
  <property name="meta.attr.0.stream.encoder.markup">H.264</property>
  <property name="meta.media.1.stream.type">audio</property>
  <property name="meta.media.1.codec.sample_fmt">fltp</property>
  <property name="meta.media.1.codec.sample_rate">44100</property>
  <property name="meta.media.1.codec.channels">1</property>
  <property name="meta.media.1.codec.name">aac</property>
  <property name="meta.media.1.codec.long_name">AAC (Advanced Audio Coding)</property>
  <property name="meta.media.1.codec.bit_rate">63998</property>
  <property name="meta.attr.1.stream.creation_time.markup">2017-10-04T18:56:27.000000Z</property>
  <property name="meta.attr.1.stream.handler_name.markup">Core Media Data Handler</property>
  <property name="meta.attr.major_brand.markup">qt  </property>
  <property name="meta.attr.minor_version.markup">0</property>
  <property name="meta.attr.compatible_brands.markup">qt  </property>
  <property name="meta.attr.creation_time.markup">2017-10-04T18:56:27.000000Z</property>
  <property name="meta.attr.model.markup">iPhone 3GS</property>
  <property name="meta.attr.model-eng.markup">iPhone 3GS</property>
  <property name="meta.attr.encoder.markup">6.1.6</property>
  <property name="meta.attr.encoder-eng.markup">6.1.6</property>
  <property name="meta.attr.date.markup">2017-10-04T14:56:27-0400</property>
  <property name="meta.attr.date-eng.markup">2017-10-04T14:56:27-0400</property>
  <property name="meta.attr.location.markup">+44.8993-068.6690+060.067/</property>
  <property name="meta.attr.location-eng.markup">+44.8993-068.6690+060.067/</property>
  <property name="meta.attr.make.markup">Apple</property>
  <property name="meta.attr.make-eng.markup">Apple</property>
  <property name="meta.attr.com.apple.quicktime.make.markup">Apple</property>
  <property name="meta.attr.com.apple.quicktime.creationdate.markup">2017-10-04T14:56:27-0400</property>
  <property name="meta.attr.com.apple.quicktime.location.ISO6709.markup">+44.8993-068.6690+060.067/</property>
  <property name="meta.attr.com.apple.quicktime.software.markup">6.1.6</property>
  <property name="meta.attr.com.apple.quicktime.model.markup">iPhone 3GS</property>
  <property name="meta.media.sample_aspect_num">1</property>
  <property name="meta.media.sample_aspect_den">1</property>
  <property name="meta.media.frame_rate_num">798200</property>
  <property name="meta.media.frame_rate_den">26633</property>
  <property name="meta.media.colorspace">601</property>
  <property name="meta.media.color_trc">1</property>
  <property name="meta.media.width">640</property>
  <property name="meta.media.height">480</property>
  <property name="meta.media.top_field_first">0</property>
  <property name="meta.media.progressive">1</property>
 </producer>
 <producer title="Anonymous Submission" id="2_playlist0" in="0" out="9804">
  <property name="length">00:05:27;05</property>
  <property name="eof">pause</property>
  <property name="resource">/run/media/kyan/Windows/Users/Elliot/Desktop/IMG_1935.MOV</property>
  <property name="audio_index">1</property>
  <property name="video_index">0</property>
  <property name="mute_on_pause">1</property>
  <property name="mlt_service">avformat-novalidate</property>
  <property name="seekable">1</property>
  <property name="aspect_ratio">1</property>
  <property name="kdenlive:file_size">147111309</property>
  <property name="kdenlive:file_hash">5a79abf35436072a68974d7044147998</property>
  <property name="global_feed">1</property>
  <property name="xml">was here</property>
  <property name="meta.media.nb_streams">2</property>
  <property name="meta.media.0.stream.type">video</property>
  <property name="meta.media.0.stream.frame_rate">29.9587</property>
  <property name="meta.media.0.stream.sample_aspect_ratio">0</property>
  <property name="meta.media.0.codec.width">640</property>
  <property name="meta.media.0.codec.height">480</property>
  <property name="meta.media.0.codec.rotate">180</property>
  <property name="meta.media.0.codec.frame_rate">600</property>
  <property name="meta.media.0.codec.pix_fmt">yuv420p</property>
  <property name="meta.media.0.codec.sample_aspect_ratio">0</property>
  <property name="meta.media.0.codec.colorspace">601</property>
  <property name="meta.media.0.codec.color_trc">1</property>
  <property name="meta.media.0.codec.name">h264</property>
  <property name="meta.media.0.codec.long_name">H.264 / AVC / MPEG-4 AVC / MPEG-4 part 10</property>
  <property name="meta.media.0.codec.bit_rate">3525881</property>
  <property name="meta.attr.0.stream.rotate.markup">180</property>
  <property name="meta.attr.0.stream.creation_time.markup">2017-10-04T18:33:41.000000Z</property>
  <property name="meta.attr.0.stream.handler_name.markup">Core Media Data Handler</property>
  <property name="meta.attr.0.stream.encoder.markup">H.264</property>
  <property name="meta.media.1.stream.type">audio</property>
  <property name="meta.media.1.codec.sample_fmt">fltp</property>
  <property name="meta.media.1.codec.sample_rate">44100</property>
  <property name="meta.media.1.codec.channels">1</property>
  <property name="meta.media.1.codec.name">aac</property>
  <property name="meta.media.1.codec.long_name">AAC (Advanced Audio Coding)</property>
  <property name="meta.media.1.codec.bit_rate">63999</property>
  <property name="meta.attr.1.stream.creation_time.markup">2017-10-04T18:33:42.000000Z</property>
  <property name="meta.attr.1.stream.handler_name.markup">Core Media Data Handler</property>
  <property name="meta.attr.major_brand.markup">qt  </property>
  <property name="meta.attr.minor_version.markup">0</property>
  <property name="meta.attr.compatible_brands.markup">qt  </property>
  <property name="meta.attr.creation_time.markup">2017-10-04T18:33:41.000000Z</property>
  <property name="meta.attr.model.markup">iPhone 3GS</property>
  <property name="meta.attr.model-eng.markup">iPhone 3GS</property>
  <property name="meta.attr.encoder.markup">6.1.6</property>
  <property name="meta.attr.encoder-eng.markup">6.1.6</property>
  <property name="meta.attr.date.markup">2017-10-04T14:33:41-0400</property>
  <property name="meta.attr.date-eng.markup">2017-10-04T14:33:41-0400</property>
  <property name="meta.attr.location.markup">+44.8989-068.6688+041.067/</property>
  <property name="meta.attr.location-eng.markup">+44.8989-068.6688+041.067/</property>
  <property name="meta.attr.make.markup">Apple</property>
  <property name="meta.attr.make-eng.markup">Apple</property>
  <property name="meta.attr.com.apple.quicktime.make.markup">Apple</property>
  <property name="meta.attr.com.apple.quicktime.creationdate.markup">2017-10-04T14:33:41-0400</property>
  <property name="meta.attr.com.apple.quicktime.location.ISO6709.markup">+44.8989-068.6688+041.067/</property>
  <property name="meta.attr.com.apple.quicktime.software.markup">6.1.6</property>
  <property name="meta.attr.com.apple.quicktime.model.markup">iPhone 3GS</property>
  <property name="meta.media.sample_aspect_num">1</property>
  <property name="meta.media.sample_aspect_den">1</property>
  <property name="meta.media.frame_rate_num">588120</property>
  <property name="meta.media.frame_rate_den">19631</property>
  <property name="meta.media.colorspace">601</property>
  <property name="meta.media.color_trc">1</property>
  <property name="meta.media.width">640</property>
  <property name="meta.media.height">480</property>
  <property name="meta.media.top_field_first">0</property>
  <property name="meta.media.progressive">1</property>
 </producer>
 <producer title="Anonymous Submission" id="12_playlist0" in="0" out="1772">
  <property name="length">00:00:59;05</property>
  <property name="eof">pause</property>
  <property name="resource">/run/media/kyan/Windows/Users/Elliot/Desktop/IMG_1947.MOV</property>
  <property name="audio_index">1</property>
  <property name="video_index">0</property>
  <property name="mute_on_pause">1</property>
  <property name="mlt_service">avformat-novalidate</property>
  <property name="seekable">1</property>
  <property name="aspect_ratio">1</property>
  <property name="kdenlive:file_size">26088393</property>
  <property name="kdenlive:file_hash">141dfa27020c306be2873e938b4b48c0</property>
  <property name="global_feed">1</property>
  <property name="xml">was here</property>
  <property name="meta.media.nb_streams">2</property>
  <property name="meta.media.0.stream.type">video</property>
  <property name="meta.media.0.stream.frame_rate">29.9739</property>
  <property name="meta.media.0.stream.sample_aspect_ratio">0</property>
  <property name="meta.media.0.codec.width">640</property>
  <property name="meta.media.0.codec.height">480</property>
  <property name="meta.media.0.codec.rotate">90</property>
  <property name="meta.media.0.codec.frame_rate">600</property>
  <property name="meta.media.0.codec.pix_fmt">yuv420p</property>
  <property name="meta.media.0.codec.sample_aspect_ratio">0</property>
  <property name="meta.media.0.codec.colorspace">601</property>
  <property name="meta.media.0.codec.color_trc">1</property>
  <property name="meta.media.0.codec.name">h264</property>
  <property name="meta.media.0.codec.long_name">H.264 / AVC / MPEG-4 AVC / MPEG-4 part 10</property>
  <property name="meta.media.0.codec.bit_rate">3446611</property>
  <property name="meta.attr.0.stream.rotate.markup">90</property>
  <property name="meta.attr.0.stream.creation_time.markup">2017-10-04T18:51:27.000000Z</property>
  <property name="meta.attr.0.stream.handler_name.markup">Core Media Data Handler</property>
  <property name="meta.attr.0.stream.encoder.markup">H.264</property>
  <property name="meta.media.1.stream.type">audio</property>
  <property name="meta.media.1.codec.sample_fmt">fltp</property>
  <property name="meta.media.1.codec.sample_rate">44100</property>
  <property name="meta.media.1.codec.channels">1</property>
  <property name="meta.media.1.codec.name">aac</property>
  <property name="meta.media.1.codec.long_name">AAC (Advanced Audio Coding)</property>
  <property name="meta.media.1.codec.bit_rate">63998</property>
  <property name="meta.attr.1.stream.creation_time.markup">2017-10-04T18:51:27.000000Z</property>
  <property name="meta.attr.1.stream.handler_name.markup">Core Media Data Handler</property>
  <property name="meta.attr.major_brand.markup">qt  </property>
  <property name="meta.attr.minor_version.markup">0</property>
  <property name="meta.attr.compatible_brands.markup">qt  </property>
  <property name="meta.attr.creation_time.markup">2017-10-04T18:51:27.000000Z</property>
  <property name="meta.attr.model.markup">iPhone 3GS</property>
  <property name="meta.attr.model-eng.markup">iPhone 3GS</property>
  <property name="meta.attr.encoder.markup">6.1.6</property>
  <property name="meta.attr.encoder-eng.markup">6.1.6</property>
  <property name="meta.attr.date.markup">2017-10-04T14:51:27-0400</property>
  <property name="meta.attr.date-eng.markup">2017-10-04T14:51:27-0400</property>
  <property name="meta.attr.location.markup">+44.8998-068.6689+061.066/</property>
  <property name="meta.attr.location-eng.markup">+44.8998-068.6689+061.066/</property>
  <property name="meta.attr.make.markup">Apple</property>
  <property name="meta.attr.make-eng.markup">Apple</property>
  <property name="meta.attr.com.apple.quicktime.make.markup">Apple</property>
  <property name="meta.attr.com.apple.quicktime.creationdate.markup">2017-10-04T14:51:27-0400</property>
  <property name="meta.attr.com.apple.quicktime.location.ISO6709.markup">+44.8998-068.6689+061.066/</property>
  <property name="meta.attr.com.apple.quicktime.software.markup">6.1.6</property>
  <property name="meta.attr.com.apple.quicktime.model.markup">iPhone 3GS</property>
  <property name="meta.media.sample_aspect_num">1</property>
  <property name="meta.media.sample_aspect_den">1</property>
  <property name="meta.media.frame_rate_num">1066800</property>
  <property name="meta.media.frame_rate_den">35591</property>
  <property name="meta.media.colorspace">601</property>
  <property name="meta.media.color_trc">1</property>
  <property name="meta.media.width">640</property>
  <property name="meta.media.height">480</property>
  <property name="meta.media.top_field_first">0</property>
  <property name="meta.media.progressive">1</property>
 </producer>
 <producer title="Anonymous Submission" id="4_playlist0" in="0" out="1656">
  <property name="length">00:00:55;09</property>
  <property name="eof">pause</property>
  <property name="resource">/run/media/kyan/Windows/Users/Elliot/Desktop/IMG_1939.MOV</property>
  <property name="audio_index">1</property>
  <property name="video_index">0</property>
  <property name="mute_on_pause">1</property>
  <property name="mlt_service">avformat-novalidate</property>
  <property name="seekable">1</property>
  <property name="aspect_ratio">1</property>
  <property name="kdenlive:file_size">24767854</property>
  <property name="kdenlive:file_hash">ed11901e66f881f12f356947aa840f0d</property>
  <property name="global_feed">1</property>
  <property name="xml">was here</property>
  <property name="meta.media.nb_streams">2</property>
  <property name="meta.media.0.stream.type">video</property>
  <property name="meta.media.0.stream.frame_rate">29.963</property>
  <property name="meta.media.0.stream.sample_aspect_ratio">0</property>
  <property name="meta.media.0.codec.width">640</property>
  <property name="meta.media.0.codec.height">480</property>
  <property name="meta.media.0.codec.rotate">90</property>
  <property name="meta.media.0.codec.frame_rate">600</property>
  <property name="meta.media.0.codec.pix_fmt">yuv420p</property>
  <property name="meta.media.0.codec.sample_aspect_ratio">0</property>
  <property name="meta.media.0.codec.colorspace">601</property>
  <property name="meta.media.0.codec.color_trc">1</property>
  <property name="meta.media.0.codec.name">h264</property>
  <property name="meta.media.0.codec.long_name">H.264 / AVC / MPEG-4 AVC / MPEG-4 part 10</property>
  <property name="meta.media.0.codec.bit_rate">3501984</property>
  <property name="meta.attr.0.stream.rotate.markup">90</property>
  <property name="meta.attr.0.stream.creation_time.markup">2017-10-04T18:42:11.000000Z</property>
  <property name="meta.attr.0.stream.handler_name.markup">Core Media Data Handler</property>
  <property name="meta.attr.0.stream.encoder.markup">H.264</property>
  <property name="meta.media.1.stream.type">audio</property>
  <property name="meta.media.1.codec.sample_fmt">fltp</property>
  <property name="meta.media.1.codec.sample_rate">44100</property>
  <property name="meta.media.1.codec.channels">1</property>
  <property name="meta.media.1.codec.name">aac</property>
  <property name="meta.media.1.codec.long_name">AAC (Advanced Audio Coding)</property>
  <property name="meta.media.1.codec.bit_rate">63998</property>
  <property name="meta.attr.1.stream.creation_time.markup">2017-10-04T18:42:11.000000Z</property>
  <property name="meta.attr.1.stream.handler_name.markup">Core Media Data Handler</property>
  <property name="meta.attr.major_brand.markup">qt  </property>
  <property name="meta.attr.minor_version.markup">0</property>
  <property name="meta.attr.compatible_brands.markup">qt  </property>
  <property name="meta.attr.creation_time.markup">2017-10-04T18:42:11.000000Z</property>
  <property name="meta.attr.model.markup">iPhone 3GS</property>
  <property name="meta.attr.model-eng.markup">iPhone 3GS</property>
  <property name="meta.attr.encoder.markup">6.1.6</property>
  <property name="meta.attr.encoder-eng.markup">6.1.6</property>
  <property name="meta.attr.date.markup">2017-10-04T14:42:11-0400</property>
  <property name="meta.attr.date-eng.markup">2017-10-04T14:42:11-0400</property>
  <property name="meta.attr.location.markup">+44.8988-068.6687+082.067/</property>
  <property name="meta.attr.location-eng.markup">+44.8988-068.6687+082.067/</property>
  <property name="meta.attr.make.markup">Apple</property>
  <property name="meta.attr.make-eng.markup">Apple</property>
  <property name="meta.attr.com.apple.quicktime.make.markup">Apple</property>
  <property name="meta.attr.com.apple.quicktime.creationdate.markup">2017-10-04T14:42:11-0400</property>
  <property name="meta.attr.com.apple.quicktime.location.ISO6709.markup">+44.8988-068.6687+082.067/</property>
  <property name="meta.attr.com.apple.quicktime.software.markup">6.1.6</property>
  <property name="meta.attr.com.apple.quicktime.model.markup">iPhone 3GS</property>
  <property name="meta.media.sample_aspect_num">1</property>
  <property name="meta.media.sample_aspect_den">1</property>
  <property name="meta.media.frame_rate_num">332200</property>
  <property name="meta.media.frame_rate_den">11087</property>
  <property name="meta.media.colorspace">601</property>
  <property name="meta.media.color_trc">1</property>
  <property name="meta.media.width">640</property>
  <property name="meta.media.height">480</property>
  <property name="meta.media.top_field_first">0</property>
  <property name="meta.media.progressive">1</property>
 </producer>
 <playlist id="playlist0">
  <property name="kdenlive:track_name">Video 4</property>
  <entry producer="15_playlist0" in="221" out="488"/>
  <blank length="114"/>
  <entry producer="2_playlist0" in="7372" out="7426"/>
  <blank length="82"/>
  <entry producer="15_playlist0" in="2611" out="2870"/>
  <blank length="534"/>
  <entry producer="15_playlist0" in="582" out="1057"/>
  <blank length="77"/>
  <entry producer="12_playlist0" in="0" out="137"/>
  <blank length="201"/>
  <entry producer="4_playlist0" in="373" out="629"/>
  <blank length="61"/>
  <entry producer="4_playlist0" in="819" out="879"/>
  <blank length="57"/>
  <entry producer="4_playlist0" in="1230" out="1252"/>
  <blank length="1237"/>
  <entry producer="15_playlist0" in="2912" out="3085"/>
  <entry producer="15_playlist0" in="3086" out="3430"/>
  <blank length="1460"/>
  <entry producer="15_playlist0" in="0" out="220"/>
  <blank length="724"/>
  <entry producer="15_playlist0" in="1686" out="1759"/>
  <blank length="461"/>
  <entry producer="15_playlist0" in="1760" out="2610"/>
 </playlist>
 <producer title="Anonymous Submission" id="2_playlist4" in="0" out="9804">
  <property name="length">00:05:27;05</property>
  <property name="eof">pause</property>
  <property name="resource">/run/media/kyan/Windows/Users/Elliot/Desktop/IMG_1935.MOV</property>
  <property name="audio_index">1</property>
  <property name="video_index">0</property>
  <property name="mute_on_pause">1</property>
  <property name="mlt_service">avformat-novalidate</property>
  <property name="seekable">1</property>
  <property name="aspect_ratio">1</property>
  <property name="kdenlive:file_size">147111309</property>
  <property name="kdenlive:file_hash">5a79abf35436072a68974d7044147998</property>
  <property name="global_feed">1</property>
  <property name="xml">was here</property>
  <property name="meta.media.nb_streams">2</property>
  <property name="meta.media.0.stream.type">video</property>
  <property name="meta.media.0.stream.frame_rate">29.9587</property>
  <property name="meta.media.0.stream.sample_aspect_ratio">0</property>
  <property name="meta.media.0.codec.width">640</property>
  <property name="meta.media.0.codec.height">480</property>
  <property name="meta.media.0.codec.rotate">180</property>
  <property name="meta.media.0.codec.frame_rate">600</property>
  <property name="meta.media.0.codec.pix_fmt">yuv420p</property>
  <property name="meta.media.0.codec.sample_aspect_ratio">0</property>
  <property name="meta.media.0.codec.colorspace">601</property>
  <property name="meta.media.0.codec.color_trc">1</property>
  <property name="meta.media.0.codec.name">h264</property>
  <property name="meta.media.0.codec.long_name">H.264 / AVC / MPEG-4 AVC / MPEG-4 part 10</property>
  <property name="meta.media.0.codec.bit_rate">3525881</property>
  <property name="meta.attr.0.stream.rotate.markup">180</property>
  <property name="meta.attr.0.stream.creation_time.markup">2017-10-04T18:33:41.000000Z</property>
  <property name="meta.attr.0.stream.handler_name.markup">Core Media Data Handler</property>
  <property name="meta.attr.0.stream.encoder.markup">H.264</property>
  <property name="meta.media.1.stream.type">audio</property>
  <property name="meta.media.1.codec.sample_fmt">fltp</property>
  <property name="meta.media.1.codec.sample_rate">44100</property>
  <property name="meta.media.1.codec.channels">1</property>
  <property name="meta.media.1.codec.name">aac</property>
  <property name="meta.media.1.codec.long_name">AAC (Advanced Audio Coding)</property>
  <property name="meta.media.1.codec.bit_rate">63999</property>
  <property name="meta.attr.1.stream.creation_time.markup">2017-10-04T18:33:42.000000Z</property>
  <property name="meta.attr.1.stream.handler_name.markup">Core Media Data Handler</property>
  <property name="meta.attr.major_brand.markup">qt  </property>
  <property name="meta.attr.minor_version.markup">0</property>
  <property name="meta.attr.compatible_brands.markup">qt  </property>
  <property name="meta.attr.creation_time.markup">2017-10-04T18:33:41.000000Z</property>
  <property name="meta.attr.model.markup">iPhone 3GS</property>
  <property name="meta.attr.model-eng.markup">iPhone 3GS</property>
  <property name="meta.attr.encoder.markup">6.1.6</property>
  <property name="meta.attr.encoder-eng.markup">6.1.6</property>
  <property name="meta.attr.date.markup">2017-10-04T14:33:41-0400</property>
  <property name="meta.attr.date-eng.markup">2017-10-04T14:33:41-0400</property>
  <property name="meta.attr.location.markup">+44.8989-068.6688+041.067/</property>
  <property name="meta.attr.location-eng.markup">+44.8989-068.6688+041.067/</property>
  <property name="meta.attr.make.markup">Apple</property>
  <property name="meta.attr.make-eng.markup">Apple</property>
  <property name="meta.attr.com.apple.quicktime.make.markup">Apple</property>
  <property name="meta.attr.com.apple.quicktime.creationdate.markup">2017-10-04T14:33:41-0400</property>
  <property name="meta.attr.com.apple.quicktime.location.ISO6709.markup">+44.8989-068.6688+041.067/</property>
  <property name="meta.attr.com.apple.quicktime.software.markup">6.1.6</property>
  <property name="meta.attr.com.apple.quicktime.model.markup">iPhone 3GS</property>
  <property name="meta.media.sample_aspect_num">1</property>
  <property name="meta.media.sample_aspect_den">1</property>
  <property name="meta.media.frame_rate_num">588120</property>
  <property name="meta.media.frame_rate_den">19631</property>
  <property name="meta.media.colorspace">601</property>
  <property name="meta.media.color_trc">1</property>
  <property name="meta.media.width">640</property>
  <property name="meta.media.height">480</property>
  <property name="meta.media.top_field_first">0</property>
  <property name="meta.media.progressive">1</property>
 </producer>
 <producer title="Anonymous Submission" id="4_playlist4" in="0" out="1656">
  <property name="length">00:00:55;09</property>
  <property name="eof">pause</property>
  <property name="resource">/run/media/kyan/Windows/Users/Elliot/Desktop/IMG_1939.MOV</property>
  <property name="audio_index">1</property>
  <property name="video_index">0</property>
  <property name="mute_on_pause">1</property>
  <property name="mlt_service">avformat-novalidate</property>
  <property name="seekable">1</property>
  <property name="aspect_ratio">1</property>
  <property name="kdenlive:file_size">24767854</property>
  <property name="kdenlive:file_hash">ed11901e66f881f12f356947aa840f0d</property>
  <property name="global_feed">1</property>
  <property name="xml">was here</property>
  <property name="meta.media.nb_streams">2</property>
  <property name="meta.media.0.stream.type">video</property>
  <property name="meta.media.0.stream.frame_rate">29.963</property>
  <property name="meta.media.0.stream.sample_aspect_ratio">0</property>
  <property name="meta.media.0.codec.width">640</property>
  <property name="meta.media.0.codec.height">480</property>
  <property name="meta.media.0.codec.rotate">90</property>
  <property name="meta.media.0.codec.frame_rate">600</property>
  <property name="meta.media.0.codec.pix_fmt">yuv420p</property>
  <property name="meta.media.0.codec.sample_aspect_ratio">0</property>
  <property name="meta.media.0.codec.colorspace">601</property>
  <property name="meta.media.0.codec.color_trc">1</property>
  <property name="meta.media.0.codec.name">h264</property>
  <property name="meta.media.0.codec.long_name">H.264 / AVC / MPEG-4 AVC / MPEG-4 part 10</property>
  <property name="meta.media.0.codec.bit_rate">3501984</property>
  <property name="meta.attr.0.stream.rotate.markup">90</property>
  <property name="meta.attr.0.stream.creation_time.markup">2017-10-04T18:42:11.000000Z</property>
  <property name="meta.attr.0.stream.handler_name.markup">Core Media Data Handler</property>
  <property name="meta.attr.0.stream.encoder.markup">H.264</property>
  <property name="meta.media.1.stream.type">audio</property>
  <property name="meta.media.1.codec.sample_fmt">fltp</property>
  <property name="meta.media.1.codec.sample_rate">44100</property>
  <property name="meta.media.1.codec.channels">1</property>
  <property name="meta.media.1.codec.name">aac</property>
  <property name="meta.media.1.codec.long_name">AAC (Advanced Audio Coding)</property>
  <property name="meta.media.1.codec.bit_rate">63998</property>
  <property name="meta.attr.1.stream.creation_time.markup">2017-10-04T18:42:11.000000Z</property>
  <property name="meta.attr.1.stream.handler_name.markup">Core Media Data Handler</property>
  <property name="meta.attr.major_brand.markup">qt  </property>
  <property name="meta.attr.minor_version.markup">0</property>
  <property name="meta.attr.compatible_brands.markup">qt  </property>
  <property name="meta.attr.creation_time.markup">2017-10-04T18:42:11.000000Z</property>
  <property name="meta.attr.model.markup">iPhone 3GS</property>
  <property name="meta.attr.model-eng.markup">iPhone 3GS</property>
  <property name="meta.attr.encoder.markup">6.1.6</property>
  <property name="meta.attr.encoder-eng.markup">6.1.6</property>
  <property name="meta.attr.date.markup">2017-10-04T14:42:11-0400</property>
  <property name="meta.attr.date-eng.markup">2017-10-04T14:42:11-0400</property>
  <property name="meta.attr.location.markup">+44.8988-068.6687+082.067/</property>
  <property name="meta.attr.location-eng.markup">+44.8988-068.6687+082.067/</property>
  <property name="meta.attr.make.markup">Apple</property>
  <property name="meta.attr.make-eng.markup">Apple</property>
  <property name="meta.attr.com.apple.quicktime.make.markup">Apple</property>
  <property name="meta.attr.com.apple.quicktime.creationdate.markup">2017-10-04T14:42:11-0400</property>
  <property name="meta.attr.com.apple.quicktime.location.ISO6709.markup">+44.8988-068.6687+082.067/</property>
  <property name="meta.attr.com.apple.quicktime.software.markup">6.1.6</property>
  <property name="meta.attr.com.apple.quicktime.model.markup">iPhone 3GS</property>
  <property name="meta.media.sample_aspect_num">1</property>
  <property name="meta.media.sample_aspect_den">1</property>
  <property name="meta.media.frame_rate_num">332200</property>
  <property name="meta.media.frame_rate_den">11087</property>
  <property name="meta.media.colorspace">601</property>
  <property name="meta.media.color_trc">1</property>
  <property name="meta.media.width">640</property>
  <property name="meta.media.height">480</property>
  <property name="meta.media.top_field_first">0</property>
  <property name="meta.media.progressive">1</property>
 </producer>
 <producer title="Anonymous Submission" id="15_playlist4" in="0" out="3989">
  <property name="length">00:02:13;04</property>
  <property name="eof">pause</property>
  <property name="resource">/run/media/kyan/Windows/Users/Elliot/Desktop/IMG_1950.MOV</property>
  <property name="audio_index">1</property>
  <property name="video_index">0</property>
  <property name="mute_on_pause">1</property>
  <property name="mlt_service">avformat-novalidate</property>
  <property name="seekable">1</property>
  <property name="aspect_ratio">1</property>
  <property name="kdenlive:file_size">59659615</property>
  <property name="kdenlive:file_hash">062ba99220c768f9cecdeb3b28ef535c</property>
  <property name="global_feed">1</property>
  <property name="xml">was here</property>
  <property name="meta.media.nb_streams">2</property>
  <property name="meta.media.0.stream.type">video</property>
  <property name="meta.media.0.stream.frame_rate">29.9703</property>
  <property name="meta.media.0.stream.sample_aspect_ratio">0</property>
  <property name="meta.media.0.codec.width">640</property>
  <property name="meta.media.0.codec.height">480</property>
  <property name="meta.media.0.codec.rotate">90</property>
  <property name="meta.media.0.codec.frame_rate">600</property>
  <property name="meta.media.0.codec.pix_fmt">yuv420p</property>
  <property name="meta.media.0.codec.sample_aspect_ratio">0</property>
  <property name="meta.media.0.codec.colorspace">601</property>
  <property name="meta.media.0.codec.color_trc">1</property>
  <property name="meta.media.0.codec.name">h264</property>
  <property name="meta.media.0.codec.long_name">H.264 / AVC / MPEG-4 AVC / MPEG-4 part 10</property>
  <property name="meta.media.0.codec.bit_rate">3512528</property>
  <property name="meta.attr.0.stream.rotate.markup">90</property>
  <property name="meta.attr.0.stream.creation_time.markup">2017-10-04T18:56:27.000000Z</property>
  <property name="meta.attr.0.stream.handler_name.markup">Core Media Data Handler</property>
  <property name="meta.attr.0.stream.encoder.markup">H.264</property>
  <property name="meta.media.1.stream.type">audio</property>
  <property name="meta.media.1.codec.sample_fmt">fltp</property>
  <property name="meta.media.1.codec.sample_rate">44100</property>
  <property name="meta.media.1.codec.channels">1</property>
  <property name="meta.media.1.codec.name">aac</property>
  <property name="meta.media.1.codec.long_name">AAC (Advanced Audio Coding)</property>
  <property name="meta.media.1.codec.bit_rate">63998</property>
  <property name="meta.attr.1.stream.creation_time.markup">2017-10-04T18:56:27.000000Z</property>
  <property name="meta.attr.1.stream.handler_name.markup">Core Media Data Handler</property>
  <property name="meta.attr.major_brand.markup">qt  </property>
  <property name="meta.attr.minor_version.markup">0</property>
  <property name="meta.attr.compatible_brands.markup">qt  </property>
  <property name="meta.attr.creation_time.markup">2017-10-04T18:56:27.000000Z</property>
  <property name="meta.attr.model.markup">iPhone 3GS</property>
  <property name="meta.attr.model-eng.markup">iPhone 3GS</property>
  <property name="meta.attr.encoder.markup">6.1.6</property>
  <property name="meta.attr.encoder-eng.markup">6.1.6</property>
  <property name="meta.attr.date.markup">2017-10-04T14:56:27-0400</property>
  <property name="meta.attr.date-eng.markup">2017-10-04T14:56:27-0400</property>
  <property name="meta.attr.location.markup">+44.8993-068.6690+060.067/</property>
  <property name="meta.attr.location-eng.markup">+44.8993-068.6690+060.067/</property>
  <property name="meta.attr.make.markup">Apple</property>
  <property name="meta.attr.make-eng.markup">Apple</property>
  <property name="meta.attr.com.apple.quicktime.make.markup">Apple</property>
  <property name="meta.attr.com.apple.quicktime.creationdate.markup">2017-10-04T14:56:27-0400</property>
  <property name="meta.attr.com.apple.quicktime.location.ISO6709.markup">+44.8993-068.6690+060.067/</property>
  <property name="meta.attr.com.apple.quicktime.software.markup">6.1.6</property>
  <property name="meta.attr.com.apple.quicktime.model.markup">iPhone 3GS</property>
  <property name="meta.media.sample_aspect_num">1</property>
  <property name="meta.media.sample_aspect_den">1</property>
  <property name="meta.media.frame_rate_num">798200</property>
  <property name="meta.media.frame_rate_den">26633</property>
  <property name="meta.media.colorspace">601</property>
  <property name="meta.media.color_trc">1</property>
  <property name="meta.media.width">640</property>
  <property name="meta.media.height">480</property>
  <property name="meta.media.top_field_first">0</property>
  <property name="meta.media.progressive">1</property>
 </producer>
 <playlist id="playlist4">
  <property name="kdenlive:track_name">Video 2</property>
  <blank length="259"/>
  <entry producer="2_playlist4" in="7255" out="7312"/>
  <blank length="446"/>
  <entry producer="2_playlist4" in="7427" out="7654"/>
  <entry producer="2_playlist4" in="7840" out="8079"/>
  <entry producer="2_playlist4" in="8239" out="8320"/>
  <blank length="394"/>
  <entry producer="2_playlist4" in="8399" out="8480"/>
  <blank length="215"/>
  <entry producer="4_playlist4" in="0" out="148"/>
  <blank length="14"/>
  <entry producer="4_playlist4" in="149" out="186"/>
  <blank length="257"/>
  <entry producer="2_playlist4" in="8720" out="8759"/>
  <entry producer="2_playlist4" in="9261" out="9281"/>
  <blank length="61"/>
  <entry producer="4_playlist4" in="1097" out="1153"/>
  <blank length="23"/>
  <entry producer="4_playlist4" in="1605" out="1616"/>
  <blank length="1744"/>
  <entry producer="15_playlist4" in="3610" out="3932"/>
  <blank length="1839"/>
  <entry producer="15_playlist4" in="1134" out="1376"/>
 </playlist>
 <producer title="Anonymous Submission" id="12_playlist5" in="0" out="1772">
  <property name="length">00:00:59;05</property>
  <property name="eof">pause</property>
  <property name="resource">/run/media/kyan/Windows/Users/Elliot/Desktop/IMG_1947.MOV</property>
  <property name="audio_index">1</property>
  <property name="video_index">0</property>
  <property name="mute_on_pause">1</property>
  <property name="mlt_service">avformat-novalidate</property>
  <property name="seekable">1</property>
  <property name="aspect_ratio">1</property>
  <property name="kdenlive:file_size">26088393</property>
  <property name="kdenlive:file_hash">141dfa27020c306be2873e938b4b48c0</property>
  <property name="global_feed">1</property>
  <property name="xml">was here</property>
  <property name="meta.media.nb_streams">2</property>
  <property name="meta.media.0.stream.type">video</property>
  <property name="meta.media.0.stream.frame_rate">29.9739</property>
  <property name="meta.media.0.stream.sample_aspect_ratio">0</property>
  <property name="meta.media.0.codec.width">640</property>
  <property name="meta.media.0.codec.height">480</property>
  <property name="meta.media.0.codec.rotate">90</property>
  <property name="meta.media.0.codec.frame_rate">600</property>
  <property name="meta.media.0.codec.pix_fmt">yuv420p</property>
  <property name="meta.media.0.codec.sample_aspect_ratio">0</property>
  <property name="meta.media.0.codec.colorspace">601</property>
  <property name="meta.media.0.codec.color_trc">1</property>
  <property name="meta.media.0.codec.name">h264</property>
  <property name="meta.media.0.codec.long_name">H.264 / AVC / MPEG-4 AVC / MPEG-4 part 10</property>
  <property name="meta.media.0.codec.bit_rate">3446611</property>
  <property name="meta.attr.0.stream.rotate.markup">90</property>
  <property name="meta.attr.0.stream.creation_time.markup">2017-10-04T18:51:27.000000Z</property>
  <property name="meta.attr.0.stream.handler_name.markup">Core Media Data Handler</property>
  <property name="meta.attr.0.stream.encoder.markup">H.264</property>
  <property name="meta.media.1.stream.type">audio</property>
  <property name="meta.media.1.codec.sample_fmt">fltp</property>
  <property name="meta.media.1.codec.sample_rate">44100</property>
  <property name="meta.media.1.codec.channels">1</property>
  <property name="meta.media.1.codec.name">aac</property>
  <property name="meta.media.1.codec.long_name">AAC (Advanced Audio Coding)</property>
  <property name="meta.media.1.codec.bit_rate">63998</property>
  <property name="meta.attr.1.stream.creation_time.markup">2017-10-04T18:51:27.000000Z</property>
  <property name="meta.attr.1.stream.handler_name.markup">Core Media Data Handler</property>
  <property name="meta.attr.major_brand.markup">qt  </property>
  <property name="meta.attr.minor_version.markup">0</property>
  <property name="meta.attr.compatible_brands.markup">qt  </property>
  <property name="meta.attr.creation_time.markup">2017-10-04T18:51:27.000000Z</property>
  <property name="meta.attr.model.markup">iPhone 3GS</property>
  <property name="meta.attr.model-eng.markup">iPhone 3GS</property>
  <property name="meta.attr.encoder.markup">6.1.6</property>
  <property name="meta.attr.encoder-eng.markup">6.1.6</property>
  <property name="meta.attr.date.markup">2017-10-04T14:51:27-0400</property>
  <property name="meta.attr.date-eng.markup">2017-10-04T14:51:27-0400</property>
  <property name="meta.attr.location.markup">+44.8998-068.6689+061.066/</property>
  <property name="meta.attr.location-eng.markup">+44.8998-068.6689+061.066/</property>
  <property name="meta.attr.make.markup">Apple</property>
  <property name="meta.attr.make-eng.markup">Apple</property>
  <property name="meta.attr.com.apple.quicktime.make.markup">Apple</property>
  <property name="meta.attr.com.apple.quicktime.creationdate.markup">2017-10-04T14:51:27-0400</property>
  <property name="meta.attr.com.apple.quicktime.location.ISO6709.markup">+44.8998-068.6689+061.066/</property>
  <property name="meta.attr.com.apple.quicktime.software.markup">6.1.6</property>
  <property name="meta.attr.com.apple.quicktime.model.markup">iPhone 3GS</property>
  <property name="meta.media.sample_aspect_num">1</property>
  <property name="meta.media.sample_aspect_den">1</property>
  <property name="meta.media.frame_rate_num">1066800</property>
  <property name="meta.media.frame_rate_den">35591</property>
  <property name="meta.media.colorspace">601</property>
  <property name="meta.media.color_trc">1</property>
  <property name="meta.media.width">640</property>
  <property name="meta.media.height">480</property>
  <property name="meta.media.top_field_first">0</property>
  <property name="meta.media.progressive">1</property>
 </producer>
 <playlist id="playlist5">
  <property name="kdenlive:track_name">Video 3</property>
  <blank length="4067"/>
  <entry producer="12_playlist5" in="158" out="297"/>
  <blank length="903"/>
  <entry producer="12_playlist5" in="432" out="1645"/>
  <blank length="42"/>
  <entry producer="12_playlist5" in="1663" out="1755"/>
 </playlist>
 <tractor title="Anonymous Submission" id="maintractor" global_feed="1" in="0" out="32193">
  <track producer="black_track"/>
  <track hide="video" producer="playlist1"/>
  <track hide="video" producer="playlist2"/>
  <track producer="playlist3"/>
  <track producer="playlist0"/>
  <track producer="playlist4"/>
  <track producer="playlist5"/>
  <transition id="transition0">
   <property name="a_track">0</property>
   <property name="b_track">1</property>
   <property name="mlt_service">mix</property>
   <property name="always_active">1</property>
   <property name="combine">1</property>
   <property name="internal_added">237</property>
  </transition>
  <transition id="transition1">
   <property name="a_track">0</property>
   <property name="b_track">2</property>
   <property name="mlt_service">mix</property>
   <property name="always_active">1</property>
   <property name="combine">1</property>
   <property name="internal_added">237</property>
  </transition>
  <transition id="transition2">
   <property name="a_track">0</property>
   <property name="b_track">3</property>
   <property name="mlt_service">mix</property>
   <property name="always_active">1</property>
   <property name="combine">1</property>
   <property name="internal_added">237</property>
  </transition>
  <transition id="transition3">
   <property name="a_track">0</property>
   <property name="b_track">4</property>
   <property name="mlt_service">mix</property>
   <property name="always_active">1</property>
   <property name="combine">1</property>
   <property name="internal_added">237</property>
  </transition>
  <transition id="transition4">
   <property name="a_track">0</property>
   <property name="b_track">5</property>
   <property name="mlt_service">mix</property>
   <property name="always_active">1</property>
   <property name="combine">1</property>
   <property name="internal_added">237</property>
  </transition>
  <transition id="transition5">
   <property name="a_track">0</property>
   <property name="b_track">6</property>
   <property name="mlt_service">mix</property>
   <property name="always_active">1</property>
   <property name="combine">1</property>
   <property name="internal_added">237</property>
  </transition>
  <transition id="transition6">
   <property name="a_track">0</property>
   <property name="b_track">3</property>
   <property name="compositing">0</property>
   <property name="distort">0</property>
   <property name="mlt_service">qtblend</property>
   <property name="always_active">1</property>
   <property name="internal_added">237</property>
  </transition>
  <transition id="transition7">
   <property name="a_track">0</property>
   <property name="b_track">4</property>
   <property name="compositing">0</property>
   <property name="distort">0</property>
   <property name="mlt_service">qtblend</property>
   <property name="always_active">1</property>
   <property name="internal_added">237</property>
  </transition>
  <transition id="transition8">
   <property name="a_track">0</property>
   <property name="b_track">5</property>
   <property name="compositing">0</property>
   <property name="distort">0</property>
   <property name="mlt_service">qtblend</property>
   <property name="always_active">1</property>
   <property name="internal_added">237</property>
  </transition>
  <transition id="transition9">
   <property name="a_track">0</property>
   <property name="b_track">6</property>
   <property name="compositing">0</property>
   <property name="distort">0</property>
   <property name="mlt_service">qtblend</property>
   <property name="always_active">1</property>
   <property name="internal_added">237</property>
  </transition>
 </tractor>
</mlt>
