<?xml version='1.0' encoding='utf-8'?>
<mlt title="Anonymous Submission" LC_NUMERIC="en_US.UTF-8" producer="main bin" version="6.4.1" root="/home/kyan">
 <profile frame_rate_num="240" sample_aspect_num="1" display_aspect_den="426" colorspace="709" progressive="1" description="2017sept27 profile" display_aspect_num="640" frame_rate_den="1" width="640" height="426" sample_aspect_den="1"/>
 <producer title="Anonymous Submission" id="1" in="0" out="59614">
  <property name="length">00:04:08:095</property>
  <property name="eof">pause</property>
  <property name="resource">2017sept27film/Movie on 2017.09.27 at 16.46.53.75200.-0400.mov</property>
  <property name="audio_index">1</property>
  <property name="video_index">0</property>
  <property name="mute_on_pause">1</property>
  <property name="mlt_service">avformat-novalidate</property>
  <property name="meta.media.nb_streams">2</property>
  <property name="meta.media.0.stream.type">video</property>
  <property name="meta.media.0.stream.frame_rate">6.27673</property>
  <property name="meta.media.0.stream.sample_aspect_ratio">0</property>
  <property name="meta.media.0.codec.width">640</property>
  <property name="meta.media.0.codec.height">426</property>
  <property name="meta.media.0.codec.rotate">0</property>
  <property name="meta.media.0.codec.frame_rate">600</property>
  <property name="meta.media.0.codec.pix_fmt">yuvj420p</property>
  <property name="meta.media.0.codec.sample_aspect_ratio">1</property>
  <property name="meta.media.0.codec.colorspace">601</property>
  <property name="meta.media.0.codec.color_trc">1</property>
  <property name="meta.media.0.codec.name">mjpeg</property>
  <property name="meta.media.0.codec.long_name">MJPEG (Motion JPEG)</property>
  <property name="meta.media.0.codec.bit_rate">1321209</property>
  <property name="meta.attr.0.stream.creation_time.markup">2017-09-27T20:46:53.000000Z</property>
  <property name="meta.attr.0.stream.handler_name.markup">Core Media Data Handler</property>
  <property name="meta.attr.0.stream.encoder.markup">Photo - JPEG</property>
  <property name="meta.media.1.stream.type">audio</property>
  <property name="meta.media.1.codec.sample_fmt">fltp</property>
  <property name="meta.media.1.codec.sample_rate">44100</property>
  <property name="meta.media.1.codec.channels">1</property>
  <property name="meta.media.1.codec.name">aac</property>
  <property name="meta.media.1.codec.long_name">AAC (Advanced Audio Coding)</property>
  <property name="meta.media.1.codec.bit_rate">1378</property>
  <property name="meta.attr.1.stream.creation_time.markup">2017-09-27T20:46:54.000000Z</property>
  <property name="meta.attr.1.stream.handler_name.markup">Core Media Data Handler</property>
  <property name="meta.attr.major_brand.markup">qt  </property>
  <property name="meta.attr.minor_version.markup">0</property>
  <property name="meta.attr.compatible_brands.markup">qt  </property>
  <property name="meta.attr.creation_time.markup">2017-09-27T20:46:53.000000Z</property>
  <property name="seekable">1</property>
  <property name="meta.media.sample_aspect_num">72</property>
  <property name="meta.media.sample_aspect_den">72</property>
  <property name="aspect_ratio">1</property>
  <property name="kdenlive:file_size">41109412</property>
  <property name="kdenlive:file_hash">6350a6879af7164429069866162296a0</property>
  <property name="global_feed">1</property>
  <property name="meta.media.frame_rate_num">934800</property>
  <property name="meta.media.frame_rate_den">148931</property>
  <property name="meta.media.colorspace">601</property>
  <property name="meta.media.color_trc">1</property>
  <property name="meta.media.width">640</property>
  <property name="meta.media.height">426</property>
  <property name="meta.media.top_field_first">0</property>
  <property name="meta.media.progressive">1</property>
 </producer>
 <producer title="Anonymous Submission" id="2" in="0" out="47136">
  <property name="length">00:03:16:097</property>
  <property name="eof">pause</property>
  <property name="resource">2017sept27film/Movie on 2017.09.27 at 16.52.41.45100.-0400.mov</property>
  <property name="audio_index">1</property>
  <property name="video_index">0</property>
  <property name="mute_on_pause">1</property>
  <property name="mlt_service">avformat-novalidate</property>
  <property name="meta.media.nb_streams">2</property>
  <property name="meta.media.0.stream.type">video</property>
  <property name="meta.media.0.stream.frame_rate">6.46833</property>
  <property name="meta.media.0.stream.sample_aspect_ratio">0</property>
  <property name="meta.media.0.codec.width">640</property>
  <property name="meta.media.0.codec.height">426</property>
  <property name="meta.media.0.codec.rotate">0</property>
  <property name="meta.media.0.codec.frame_rate">600</property>
  <property name="meta.media.0.codec.pix_fmt">yuvj420p</property>
  <property name="meta.media.0.codec.sample_aspect_ratio">1</property>
  <property name="meta.media.0.codec.colorspace">601</property>
  <property name="meta.media.0.codec.color_trc">1</property>
  <property name="meta.media.0.codec.name">mjpeg</property>
  <property name="meta.media.0.codec.long_name">MJPEG (Motion JPEG)</property>
  <property name="meta.media.0.codec.bit_rate">1374472</property>
  <property name="meta.attr.0.stream.creation_time.markup">2017-09-27T20:52:41.000000Z</property>
  <property name="meta.attr.0.stream.handler_name.markup">Core Media Data Handler</property>
  <property name="meta.attr.0.stream.encoder.markup">Photo - JPEG</property>
  <property name="meta.media.1.stream.type">audio</property>
  <property name="meta.media.1.codec.sample_fmt">fltp</property>
  <property name="meta.media.1.codec.sample_rate">44100</property>
  <property name="meta.media.1.codec.channels">1</property>
  <property name="meta.media.1.codec.name">aac</property>
  <property name="meta.media.1.codec.long_name">AAC (Advanced Audio Coding)</property>
  <property name="meta.media.1.codec.bit_rate">1378</property>
  <property name="meta.attr.1.stream.creation_time.markup">2017-09-27T20:52:41.000000Z</property>
  <property name="meta.attr.1.stream.handler_name.markup">Core Media Data Handler</property>
  <property name="meta.attr.major_brand.markup">qt  </property>
  <property name="meta.attr.minor_version.markup">0</property>
  <property name="meta.attr.compatible_brands.markup">qt  </property>
  <property name="meta.attr.creation_time.markup">2017-09-27T20:52:41.000000Z</property>
  <property name="seekable">1</property>
  <property name="meta.media.sample_aspect_num">72</property>
  <property name="meta.media.sample_aspect_den">72</property>
  <property name="aspect_ratio">1</property>
  <property name="kdenlive:file_size">33799472</property>
  <property name="kdenlive:file_hash">1ce46638e25ced8212f6c09b9e481371</property>
  <property name="global_feed">1</property>
  <property name="meta.media.frame_rate_num">95175</property>
  <property name="meta.media.frame_rate_den">14714</property>
  <property name="meta.media.colorspace">601</property>
  <property name="meta.media.color_trc">1</property>
  <property name="meta.media.width">640</property>
  <property name="meta.media.height">426</property>
  <property name="meta.media.top_field_first">0</property>
  <property name="meta.media.progressive">1</property>
 </producer>
 <producer title="Anonymous Submission" id="3" in="0" out="30378">
  <property name="length">00:02:06:139</property>
  <property name="eof">pause</property>
  <property name="resource">2017sept27film/Movie on 2017.09.27 at 16.58.20.87900.-0400.mov</property>
  <property name="audio_index">1</property>
  <property name="video_index">0</property>
  <property name="mute_on_pause">1</property>
  <property name="mlt_service">avformat-novalidate</property>
  <property name="meta.media.nb_streams">2</property>
  <property name="meta.media.0.stream.type">video</property>
  <property name="meta.media.0.stream.frame_rate">6.37195</property>
  <property name="meta.media.0.stream.sample_aspect_ratio">0</property>
  <property name="meta.media.0.codec.width">640</property>
  <property name="meta.media.0.codec.height">426</property>
  <property name="meta.media.0.codec.rotate">0</property>
  <property name="meta.media.0.codec.frame_rate">600</property>
  <property name="meta.media.0.codec.pix_fmt">yuvj420p</property>
  <property name="meta.media.0.codec.sample_aspect_ratio">1</property>
  <property name="meta.media.0.codec.colorspace">601</property>
  <property name="meta.media.0.codec.color_trc">1</property>
  <property name="meta.media.0.codec.name">mjpeg</property>
  <property name="meta.media.0.codec.long_name">MJPEG (Motion JPEG)</property>
  <property name="meta.media.0.codec.bit_rate">1901982</property>
  <property name="meta.attr.0.stream.creation_time.markup">2017-09-27T20:58:20.000000Z</property>
  <property name="meta.attr.0.stream.handler_name.markup">Core Media Data Handler</property>
  <property name="meta.attr.0.stream.encoder.markup">Photo - JPEG</property>
  <property name="meta.media.1.stream.type">audio</property>
  <property name="meta.media.1.codec.sample_fmt">fltp</property>
  <property name="meta.media.1.codec.sample_rate">44100</property>
  <property name="meta.media.1.codec.channels">1</property>
  <property name="meta.media.1.codec.name">aac</property>
  <property name="meta.media.1.codec.long_name">AAC (Advanced Audio Coding)</property>
  <property name="meta.media.1.codec.bit_rate">1378</property>
  <property name="meta.attr.1.stream.creation_time.markup">2017-09-27T20:58:20.000000Z</property>
  <property name="meta.attr.1.stream.handler_name.markup">Core Media Data Handler</property>
  <property name="meta.attr.major_brand.markup">qt  </property>
  <property name="meta.attr.minor_version.markup">0</property>
  <property name="meta.attr.compatible_brands.markup">qt  </property>
  <property name="meta.attr.creation_time.markup">2017-09-27T20:58:20.000000Z</property>
  <property name="seekable">1</property>
  <property name="meta.media.sample_aspect_num">72</property>
  <property name="meta.media.sample_aspect_den">72</property>
  <property name="aspect_ratio">1</property>
  <property name="kdenlive:file_size">30095623</property>
  <property name="kdenlive:file_hash">eb859d4eb6c78da600ab6957384baf70</property>
  <property name="global_feed">1</property>
  <property name="meta.media.frame_rate_num">161000</property>
  <property name="meta.media.frame_rate_den">25267</property>
  <property name="meta.media.colorspace">601</property>
  <property name="meta.media.color_trc">1</property>
  <property name="meta.media.width">640</property>
  <property name="meta.media.height">426</property>
  <property name="meta.media.top_field_first">0</property>
  <property name="meta.media.progressive">1</property>
 </producer>
 <producer title="Anonymous Submission" id="4" in="0" out="26727">
  <property name="length">00:01:51:088</property>
  <property name="eof">pause</property>
  <property name="resource">2017sept27film/Movie on 2017.09.27 at 17.02.49.28000.-0400.mov</property>
  <property name="audio_index">1</property>
  <property name="video_index">0</property>
  <property name="mute_on_pause">1</property>
  <property name="mlt_service">avformat-novalidate</property>
  <property name="meta.media.nb_streams">2</property>
  <property name="meta.media.0.stream.type">video</property>
  <property name="meta.media.0.stream.frame_rate">6.30093</property>
  <property name="meta.media.0.stream.sample_aspect_ratio">0</property>
  <property name="meta.media.0.codec.width">640</property>
  <property name="meta.media.0.codec.height">426</property>
  <property name="meta.media.0.codec.rotate">0</property>
  <property name="meta.media.0.codec.frame_rate">600</property>
  <property name="meta.media.0.codec.pix_fmt">yuvj420p</property>
  <property name="meta.media.0.codec.sample_aspect_ratio">1</property>
  <property name="meta.media.0.codec.colorspace">601</property>
  <property name="meta.media.0.codec.color_trc">1</property>
  <property name="meta.media.0.codec.name">mjpeg</property>
  <property name="meta.media.0.codec.long_name">MJPEG (Motion JPEG)</property>
  <property name="meta.media.0.codec.bit_rate">1797495</property>
  <property name="meta.attr.0.stream.creation_time.markup">2017-09-27T21:02:49.000000Z</property>
  <property name="meta.attr.0.stream.handler_name.markup">Core Media Data Handler</property>
  <property name="meta.attr.0.stream.encoder.markup">Photo - JPEG</property>
  <property name="meta.media.1.stream.type">audio</property>
  <property name="meta.media.1.codec.sample_fmt">fltp</property>
  <property name="meta.media.1.codec.sample_rate">44100</property>
  <property name="meta.media.1.codec.channels">1</property>
  <property name="meta.media.1.codec.name">aac</property>
  <property name="meta.media.1.codec.long_name">AAC (Advanced Audio Coding)</property>
  <property name="meta.media.1.codec.bit_rate">1378</property>
  <property name="meta.attr.1.stream.creation_time.markup">2017-09-27T21:02:49.000000Z</property>
  <property name="meta.attr.1.stream.handler_name.markup">Core Media Data Handler</property>
  <property name="meta.attr.major_brand.markup">qt  </property>
  <property name="meta.attr.minor_version.markup">0</property>
  <property name="meta.attr.compatible_brands.markup">qt  </property>
  <property name="meta.attr.creation_time.markup">2017-09-27T21:02:49.000000Z</property>
  <property name="seekable">1</property>
  <property name="meta.media.sample_aspect_num">72</property>
  <property name="meta.media.sample_aspect_den">72</property>
  <property name="aspect_ratio">1</property>
  <property name="kdenlive:file_size">25049893</property>
  <property name="kdenlive:file_hash">3626c8573e751d82f2e49ed685bc4ea2</property>
  <property name="global_feed">1</property>
  <property name="meta.media.frame_rate_num">52575</property>
  <property name="meta.media.frame_rate_den">8344</property>
  <property name="meta.media.colorspace">601</property>
  <property name="meta.media.color_trc">1</property>
  <property name="meta.media.width">640</property>
  <property name="meta.media.height">426</property>
  <property name="meta.media.top_field_first">0</property>
  <property name="meta.media.progressive">1</property>
 </producer>
 <producer title="Anonymous Submission" id="6" in="0" out="7153">
  <property name="length">00:00:29:194</property>
  <property name="eof">pause</property>
  <property name="resource">2017sept27n6.wav</property>
  <property name="audio_index">0</property>
  <property name="video_index">-1</property>
  <property name="mute_on_pause">1</property>
  <property name="mlt_service">avformat-novalidate</property>
  <property name="meta.media.nb_streams">1</property>
  <property name="meta.media.0.stream.type">audio</property>
  <property name="meta.media.0.codec.sample_fmt">s16</property>
  <property name="meta.media.0.codec.sample_rate">44100</property>
  <property name="meta.media.0.codec.channels">2</property>
  <property name="meta.media.0.codec.name">pcm_s16le</property>
  <property name="meta.media.0.codec.long_name">PCM signed 16-bit little-endian</property>
  <property name="meta.media.0.codec.bit_rate">1411200</property>
  <property name="seekable">1</property>
  <property name="kdenlive:file_size">5258428</property>
  <property name="kdenlive:file_hash">ce602277415c086cd0f8d6a39d6705ce</property>
  <property name="global_feed">1</property>
 </producer>
 <producer title="Anonymous Submission" id="7" in="0" out="70271">
  <property name="length">00:04:52:192</property>
  <property name="eof">pause</property>
  <property name="resource">Downloads/1. McScuse me, BEATS.m4a</property>
  <property name="audio_index">0</property>
  <property name="video_index">-1</property>
  <property name="mute_on_pause">1</property>
  <property name="mlt_service">avformat-novalidate</property>
  <property name="meta.media.nb_streams">2</property>
  <property name="meta.media.0.stream.type">audio</property>
  <property name="meta.media.0.codec.sample_fmt">s32p</property>
  <property name="meta.media.0.codec.sample_rate">44100</property>
  <property name="meta.media.0.codec.channels">2</property>
  <property name="meta.media.0.codec.name">alac</property>
  <property name="meta.media.0.codec.long_name">ALAC (Apple Lossless Audio Codec)</property>
  <property name="meta.media.0.codec.bit_rate">1465785</property>
  <property name="meta.attr.0.stream.creation_time.markup">2006-04-08T23:50:42.000000Z</property>
  <property name="meta.attr.0.stream.language.markup">eng</property>
  <property name="meta.media.1.stream.type">video</property>
  <property name="meta.media.1.stream.frame_rate">-nan</property>
  <property name="meta.media.1.stream.sample_aspect_ratio">0</property>
  <property name="meta.media.1.codec.width">4096</property>
  <property name="meta.media.1.codec.height">4096</property>
  <property name="meta.media.1.codec.rotate">0</property>
  <property name="meta.media.1.codec.frame_rate">90000</property>
  <property name="meta.media.1.codec.pix_fmt">rgba</property>
  <property name="meta.media.1.codec.sample_aspect_ratio">0</property>
  <property name="meta.media.1.codec.colorspace">709</property>
  <property name="meta.media.1.codec.name">png</property>
  <property name="meta.media.1.codec.long_name">PNG (Portable Network Graphics) image</property>
  <property name="meta.media.1.codec.bit_rate">0</property>
  <property name="meta.attr.major_brand.markup">M4A </property>
  <property name="meta.attr.minor_version.markup">0</property>
  <property name="meta.attr.compatible_brands.markup">M4A mp42isom</property>
  <property name="meta.attr.creation_time.markup">2006-04-08T23:50:42.000000Z</property>
  <property name="meta.attr.iTunSMPB.markup"> 00000000 00000000 000008A0 0000000000C50760 00000000 00000000 00000000 00000000 00000000 00000000 00000000 00000000</property>
  <property name="meta.attr.title.markup">McScuse me, BEATS</property>
  <property name="meta.attr.artist.markup">Elliot Chandler</property>
  <property name="meta.attr.album_artist.markup">Elliot Chandler</property>
  <property name="meta.attr.composer.markup">Elliot Chandler</property>
  <property name="meta.attr.album.markup">McScuse me, BEATS</property>
  <property name="meta.attr.genre.markup">Trap</property>
  <property name="meta.attr.track.markup">1/1</property>
  <property name="meta.attr.date.markup">2016</property>
  <property name="meta.attr.comment.markup">Released 2016 Mar. 01a02. Copyright © ℗ 2016 Futuramerlin. Duration: 4m53s. Sample from: https://www.youtube.com/watch?v=IrSsjdzlUSw
</property>
  <property name="meta.attr.sort_album.markup">McScuse me, BEATS</property>
  <property name="meta.attr.sort_album_artist.markup">Elliot Chandler</property>
  <property name="meta.attr.sort_composer.markup">Elliot Chandler</property>
  <property name="seekable">1</property>
  <property name="meta.media.sample_aspect_num">1</property>
  <property name="meta.media.sample_aspect_den">1</property>
  <property name="aspect_ratio">1</property>
  <property name="kdenlive:file_size">71396386</property>
  <property name="kdenlive:file_hash">35ca44cf21f509aada67401663690307</property>
  <property name="global_feed">1</property>
 </producer>
 <playlist id="main bin">
  <property name="kdenlive:docproperties.audiotargettrack">3</property>
  <property name="kdenlive:docproperties.dirtypreviewchunks">0,25,50,75,100</property>
  <property name="kdenlive:docproperties.disablepreview">0</property>
  <property name="kdenlive:docproperties.documentid">1506548579523</property>
  <property name="kdenlive:docproperties.enableproxy">0</property>
  <property name="kdenlive:docproperties.generateimageproxy">0</property>
  <property name="kdenlive:docproperties.generateproxy">0</property>
  <property name="kdenlive:docproperties.kdenliveversion">16.08.3</property>
  <property name="kdenlive:docproperties.position">0</property>
  <property name="kdenlive:docproperties.previewchunks"/>
  <property name="kdenlive:docproperties.previewextension">avi</property>
  <property name="kdenlive:docproperties.previewparameters">f=avi vcodec=mjpeg progressive=1 qscale=1</property>
  <property name="kdenlive:docproperties.profile">.local/share/kdenlive/profiles/customprofile0</property>
  <property name="kdenlive:docproperties.projectfolder">kdenlive</property>
  <property name="kdenlive:docproperties.proxyextension">mpg</property>
  <property name="kdenlive:docproperties.proxyimageminsize">2000</property>
  <property name="kdenlive:docproperties.proxyminsize">1000</property>
  <property name="kdenlive:docproperties.proxyparams">-s 640x480 -g 5 -qscale 6 -ab 128k -vcodec mpeg2video -acodec mp2</property>
  <property name="kdenlive:docproperties.version">0.95</property>
  <property name="kdenlive:docproperties.verticalzoom">1</property>
  <property name="kdenlive:docproperties.videotargettrack">4</property>
  <property name="kdenlive:docproperties.zonein">0</property>
  <property name="kdenlive:docproperties.zoneout">100</property>
  <property name="kdenlive:docproperties.zoom">9</property>
  <property name="kdenlive:documentnotes"/>
  <property name="kdenlive:docproperties.renderaudioquality">160</property>
  <property name="kdenlive:docproperties.rendercategory">Generic (HD for web, mobile devices...)</property>
  <property name="kdenlive:docproperties.renderendguide">-1</property>
  <property name="kdenlive:docproperties.renderexportaudio">0</property>
  <property name="kdenlive:docproperties.renderguide">0</property>
  <property name="kdenlive:docproperties.renderplay">0</property>
  <property name="kdenlive:docproperties.renderprofile">MP4 - the dominating format (H264/AAC)</property>
  <property name="kdenlive:docproperties.renderquality">23</property>
  <property name="kdenlive:docproperties.renderratio">1</property>
  <property name="kdenlive:docproperties.renderrescale">0</property>
  <property name="kdenlive:docproperties.renderrescaleheight">681</property>
  <property name="kdenlive:docproperties.renderrescalewidth">1024</property>
  <property name="kdenlive:docproperties.renderscanning">0</property>
  <property name="kdenlive:docproperties.renderspeed">2</property>
  <property name="kdenlive:docproperties.renderstartguide">-1</property>
  <property name="kdenlive:docproperties.rendertcoverlay">0</property>
  <property name="kdenlive:docproperties.rendertctype">0</property>
  <property name="kdenlive:docproperties.rendertwopass">0</property>
  <property name="kdenlive:docproperties.renderurl">kdenlive/2017sept27n3.mp4</property>
  <property name="kdenlive:docproperties.renderzone">0</property>
  <property name="xml_retain">1</property>
  <entry producer="1" in="0" out="59614"/>
  <entry producer="2" in="0" out="47136"/>
  <entry producer="3" in="0" out="30378"/>
  <entry producer="4" in="0" out="26727"/>
  <entry producer="6" in="0" out="7153"/>
  <entry producer="7" in="0" out="70271"/>
 </playlist>
 <producer id="black" in="0" out="102525">
  <property name="length">102526</property>
  <property name="eof">pause</property>
  <property name="resource">black</property>
  <property name="aspect_ratio">0</property>
  <property name="mlt_service">colour</property>
  <property name="set.test_audio">0</property>
 </producer>
 <playlist id="black_track">
  <entry producer="black" in="0" out="92116"/>
 </playlist>
 <producer title="Anonymous Submission" id="7_playlist1" in="0" out="70271">
  <property name="length">00:04:52:192</property>
  <property name="eof">pause</property>
  <property name="resource">Downloads/1. McScuse me, BEATS.m4a</property>
  <property name="audio_index">0</property>
  <property name="video_index">-1</property>
  <property name="mute_on_pause">1</property>
  <property name="mlt_service">avformat-novalidate</property>
  <property name="seekable">1</property>
  <property name="aspect_ratio">1</property>
  <property name="kdenlive:file_size">71396386</property>
  <property name="kdenlive:file_hash">35ca44cf21f509aada67401663690307</property>
  <property name="global_feed">1</property>
  <property name="xml">was here</property>
  <property name="meta.media.nb_streams">2</property>
  <property name="meta.media.0.stream.type">audio</property>
  <property name="meta.media.0.codec.sample_fmt">s32p</property>
  <property name="meta.media.0.codec.sample_rate">44100</property>
  <property name="meta.media.0.codec.channels">2</property>
  <property name="meta.media.0.codec.name">alac</property>
  <property name="meta.media.0.codec.long_name">ALAC (Apple Lossless Audio Codec)</property>
  <property name="meta.media.0.codec.bit_rate">1465785</property>
  <property name="meta.attr.0.stream.creation_time.markup">2006-04-08T23:50:42.000000Z</property>
  <property name="meta.attr.0.stream.language.markup">eng</property>
  <property name="meta.media.1.stream.type">video</property>
  <property name="meta.media.1.stream.frame_rate">-nan</property>
  <property name="meta.media.1.stream.sample_aspect_ratio">0</property>
  <property name="meta.media.1.codec.width">4096</property>
  <property name="meta.media.1.codec.height">4096</property>
  <property name="meta.media.1.codec.rotate">0</property>
  <property name="meta.media.1.codec.frame_rate">90000</property>
  <property name="meta.media.1.codec.pix_fmt">rgba</property>
  <property name="meta.media.1.codec.sample_aspect_ratio">0</property>
  <property name="meta.media.1.codec.colorspace">709</property>
  <property name="meta.media.1.codec.name">png</property>
  <property name="meta.media.1.codec.long_name">PNG (Portable Network Graphics) image</property>
  <property name="meta.media.1.codec.bit_rate">0</property>
  <property name="meta.attr.major_brand.markup">M4A </property>
  <property name="meta.attr.minor_version.markup">0</property>
  <property name="meta.attr.compatible_brands.markup">M4A mp42isom</property>
  <property name="meta.attr.creation_time.markup">2006-04-08T23:50:42.000000Z</property>
  <property name="meta.attr.iTunSMPB.markup"> 00000000 00000000 000008A0 0000000000C50760 00000000 00000000 00000000 00000000 00000000 00000000 00000000 00000000</property>
  <property name="meta.attr.title.markup">McScuse me, BEATS</property>
  <property name="meta.attr.artist.markup">Elliot Chandler</property>
  <property name="meta.attr.album_artist.markup">Elliot Chandler</property>
  <property name="meta.attr.composer.markup">Elliot Chandler</property>
  <property name="meta.attr.album.markup">McScuse me, BEATS</property>
  <property name="meta.attr.genre.markup">Trap</property>
  <property name="meta.attr.track.markup">1/1</property>
  <property name="meta.attr.date.markup">2016</property>
  <property name="meta.attr.comment.markup">Released 2016 Mar. 01a02. Copyright © ℗ 2016 Futuramerlin. Duration: 4m53s. Sample from: https://www.youtube.com/watch?v=IrSsjdzlUSw
</property>
  <property name="meta.attr.sort_album.markup">McScuse me, BEATS</property>
  <property name="meta.attr.sort_album_artist.markup">Elliot Chandler</property>
  <property name="meta.attr.sort_composer.markup">Elliot Chandler</property>
  <property name="meta.media.sample_aspect_num">1</property>
  <property name="meta.media.sample_aspect_den">1</property>
 </producer>
 <playlist id="playlist1">
  <property name="kdenlive:audio_track">1</property>
  <property name="kdenlive:track_name">Audio 2</property>
  <entry producer="7_playlist1" in="41458" out="46374">
   <filter id="gain">
    <property name="window">75</property>
    <property name="max_gain">20dB</property>
    <property name="mlt_service">volume</property>
    <property name="kdenlive_id">gain</property>
    <property name="tag">volume</property>
    <property name="kdenlive_ix">1</property>
    <property name="gain">0.08</property>
    <property name="kdenlive_info"/>
    <property name="disable"/>
   </filter>
  </entry>
 </playlist>
 <playlist id="playlist0">
  <property name="kdenlive:track_name">Video 4</property>
  <property name="kdenlive:audio_track">1</property>
 </playlist>
 <producer title="Anonymous Submission" id="6_playlist2" in="0" out="7153">
  <property name="length">00:00:29:194</property>
  <property name="eof">pause</property>
  <property name="resource">2017sept27n6.wav</property>
  <property name="audio_index">0</property>
  <property name="video_index">-1</property>
  <property name="mute_on_pause">1</property>
  <property name="mlt_service">avformat-novalidate</property>
  <property name="seekable">1</property>
  <property name="kdenlive:file_size">5258428</property>
  <property name="kdenlive:file_hash">ce602277415c086cd0f8d6a39d6705ce</property>
  <property name="global_feed">1</property>
  <property name="xml">was here</property>
  <property name="meta.media.nb_streams">1</property>
  <property name="meta.media.0.stream.type">audio</property>
  <property name="meta.media.0.codec.sample_fmt">s16</property>
  <property name="meta.media.0.codec.sample_rate">44100</property>
  <property name="meta.media.0.codec.channels">2</property>
  <property name="meta.media.0.codec.name">pcm_s16le</property>
  <property name="meta.media.0.codec.long_name">PCM signed 16-bit little-endian</property>
  <property name="meta.media.0.codec.bit_rate">1411200</property>
 </producer>
 <playlist id="playlist2">
  <property name="kdenlive:audio_track">1</property>
  <property name="kdenlive:track_name">Audio 1</property>
  <blank length="82"/>
  <entry producer="6_playlist2" in="2495" out="2723"/>
  <blank length="446"/>
  <entry producer="6_playlist2" in="2724" out="3277"/>
  <entry producer="6_playlist2" in="3808" out="6831"/>
 </playlist>
 <producer title="Anonymous Submission" id="2_playlist3" in="0" out="47136">
  <property name="length">00:03:16:097</property>
  <property name="eof">pause</property>
  <property name="resource">2017sept27film/Movie on 2017.09.27 at 16.52.41.45100.-0400.mov</property>
  <property name="audio_index">1</property>
  <property name="video_index">0</property>
  <property name="mute_on_pause">1</property>
  <property name="mlt_service">avformat-novalidate</property>
  <property name="seekable">1</property>
  <property name="aspect_ratio">1</property>
  <property name="kdenlive:file_size">33799472</property>
  <property name="kdenlive:file_hash">1ce46638e25ced8212f6c09b9e481371</property>
  <property name="global_feed">1</property>
  <property name="xml">was here</property>
  <property name="meta.media.nb_streams">2</property>
  <property name="meta.media.0.stream.type">video</property>
  <property name="meta.media.0.stream.frame_rate">6.46833</property>
  <property name="meta.media.0.stream.sample_aspect_ratio">0</property>
  <property name="meta.media.0.codec.width">640</property>
  <property name="meta.media.0.codec.height">426</property>
  <property name="meta.media.0.codec.rotate">0</property>
  <property name="meta.media.0.codec.frame_rate">600</property>
  <property name="meta.media.0.codec.pix_fmt">yuvj420p</property>
  <property name="meta.media.0.codec.sample_aspect_ratio">1</property>
  <property name="meta.media.0.codec.colorspace">601</property>
  <property name="meta.media.0.codec.color_trc">1</property>
  <property name="meta.media.0.codec.name">mjpeg</property>
  <property name="meta.media.0.codec.long_name">MJPEG (Motion JPEG)</property>
  <property name="meta.media.0.codec.bit_rate">1374472</property>
  <property name="meta.attr.0.stream.creation_time.markup">2017-09-27T20:52:41.000000Z</property>
  <property name="meta.attr.0.stream.handler_name.markup">Core Media Data Handler</property>
  <property name="meta.attr.0.stream.encoder.markup">Photo - JPEG</property>
  <property name="meta.media.1.stream.type">audio</property>
  <property name="meta.media.1.codec.sample_fmt">fltp</property>
  <property name="meta.media.1.codec.sample_rate">44100</property>
  <property name="meta.media.1.codec.channels">1</property>
  <property name="meta.media.1.codec.name">aac</property>
  <property name="meta.media.1.codec.long_name">AAC (Advanced Audio Coding)</property>
  <property name="meta.media.1.codec.bit_rate">1378</property>
  <property name="meta.attr.1.stream.creation_time.markup">2017-09-27T20:52:41.000000Z</property>
  <property name="meta.attr.1.stream.handler_name.markup">Core Media Data Handler</property>
  <property name="meta.attr.major_brand.markup">qt  </property>
  <property name="meta.attr.minor_version.markup">0</property>
  <property name="meta.attr.compatible_brands.markup">qt  </property>
  <property name="meta.attr.creation_time.markup">2017-09-27T20:52:41.000000Z</property>
  <property name="meta.media.sample_aspect_num">72</property>
  <property name="meta.media.sample_aspect_den">72</property>
  <property name="meta.media.frame_rate_num">95175</property>
  <property name="meta.media.frame_rate_den">14714</property>
  <property name="meta.media.colorspace">601</property>
  <property name="meta.media.color_trc">1</property>
  <property name="meta.media.width">640</property>
  <property name="meta.media.height">426</property>
  <property name="meta.media.top_field_first">0</property>
  <property name="meta.media.progressive">1</property>
 </producer>
 <playlist id="playlist3">
  <property name="kdenlive:track_name">Video 1</property>
  <blank length="2129"/>
  <entry producer="2_playlist3" in="24179" out="24796"/>
 </playlist>
 <producer title="Anonymous Submission" id="4_playlist4" in="0" out="26727">
  <property name="length">00:01:51:088</property>
  <property name="eof">pause</property>
  <property name="resource">2017sept27film/Movie on 2017.09.27 at 17.02.49.28000.-0400.mov</property>
  <property name="audio_index">1</property>
  <property name="video_index">0</property>
  <property name="mute_on_pause">1</property>
  <property name="mlt_service">avformat-novalidate</property>
  <property name="seekable">1</property>
  <property name="aspect_ratio">1</property>
  <property name="kdenlive:file_size">25049893</property>
  <property name="kdenlive:file_hash">3626c8573e751d82f2e49ed685bc4ea2</property>
  <property name="global_feed">1</property>
  <property name="xml">was here</property>
  <property name="meta.media.nb_streams">2</property>
  <property name="meta.media.0.stream.type">video</property>
  <property name="meta.media.0.stream.frame_rate">6.30093</property>
  <property name="meta.media.0.stream.sample_aspect_ratio">0</property>
  <property name="meta.media.0.codec.width">640</property>
  <property name="meta.media.0.codec.height">426</property>
  <property name="meta.media.0.codec.rotate">0</property>
  <property name="meta.media.0.codec.frame_rate">600</property>
  <property name="meta.media.0.codec.pix_fmt">yuvj420p</property>
  <property name="meta.media.0.codec.sample_aspect_ratio">1</property>
  <property name="meta.media.0.codec.colorspace">601</property>
  <property name="meta.media.0.codec.color_trc">1</property>
  <property name="meta.media.0.codec.name">mjpeg</property>
  <property name="meta.media.0.codec.long_name">MJPEG (Motion JPEG)</property>
  <property name="meta.media.0.codec.bit_rate">1797495</property>
  <property name="meta.attr.0.stream.creation_time.markup">2017-09-27T21:02:49.000000Z</property>
  <property name="meta.attr.0.stream.handler_name.markup">Core Media Data Handler</property>
  <property name="meta.attr.0.stream.encoder.markup">Photo - JPEG</property>
  <property name="meta.media.1.stream.type">audio</property>
  <property name="meta.media.1.codec.sample_fmt">fltp</property>
  <property name="meta.media.1.codec.sample_rate">44100</property>
  <property name="meta.media.1.codec.channels">1</property>
  <property name="meta.media.1.codec.name">aac</property>
  <property name="meta.media.1.codec.long_name">AAC (Advanced Audio Coding)</property>
  <property name="meta.media.1.codec.bit_rate">1378</property>
  <property name="meta.attr.1.stream.creation_time.markup">2017-09-27T21:02:49.000000Z</property>
  <property name="meta.attr.1.stream.handler_name.markup">Core Media Data Handler</property>
  <property name="meta.attr.major_brand.markup">qt  </property>
  <property name="meta.attr.minor_version.markup">0</property>
  <property name="meta.attr.compatible_brands.markup">qt  </property>
  <property name="meta.attr.creation_time.markup">2017-09-27T21:02:49.000000Z</property>
  <property name="meta.media.sample_aspect_num">72</property>
  <property name="meta.media.sample_aspect_den">72</property>
  <property name="meta.media.frame_rate_num">52575</property>
  <property name="meta.media.frame_rate_den">8344</property>
  <property name="meta.media.colorspace">601</property>
  <property name="meta.media.color_trc">1</property>
  <property name="meta.media.width">640</property>
  <property name="meta.media.height">426</property>
  <property name="meta.media.top_field_first">0</property>
  <property name="meta.media.progressive">1</property>
 </producer>
 <playlist id="playlist4">
  <property name="kdenlive:track_name">Video 2</property>
  <blank length="1305"/>
  <entry producer="4_playlist4" in="7491" out="8314"/>
  <blank length="718"/>
  <entry producer="4_playlist4" in="12597" out="14084">
   <filter id="frei0r.scale0tilt">
    <property name="version">0.1</property>
    <property name="mlt_service">frei0r.scale0tilt</property>
    <property name="kdenlive_id">frei0r.scale0tilt</property>
    <property name="tag">frei0r.scale0tilt</property>
    <property name="kdenlive_ix">1</property>
    <property name="Clip left">0</property>
    <property name="Clip right">0</property>
    <property name="Clip top">0</property>
    <property name="Clip bottom">0</property>
    <property name="Scale X">0.67</property>
    <property name="Scale Y">0.75</property>
    <property name="Tilt X">0.5</property>
    <property name="Tilt Y">0.5</property>
    <property name="kdenlive_info"/>
   </filter>
   <filter id="qtblend">
    <property name="mlt_service">qtblend</property>
    <property name="kdenlive_id">qtblend</property>
    <property name="tag">qtblend</property>
    <property name="kdenlive_ix">2</property>
    <property name="rect">0=0 0 640 426 1</property>
    <property name="rotation">0=0</property>
    <property name="compositing">0</property>
    <property name="distort">0</property>
    <property name="kdenlive:sync_in_out">1</property>
    <property name="kdenlive_info"/>
   </filter>
  </entry>
 </playlist>
 <producer title="Anonymous Submission" id="1_playlist5" in="0" out="59614">
  <property name="length">00:04:08:095</property>
  <property name="eof">pause</property>
  <property name="resource">2017sept27film/Movie on 2017.09.27 at 16.46.53.75200.-0400.mov</property>
  <property name="audio_index">1</property>
  <property name="video_index">0</property>
  <property name="mute_on_pause">1</property>
  <property name="mlt_service">avformat-novalidate</property>
  <property name="seekable">1</property>
  <property name="aspect_ratio">1</property>
  <property name="kdenlive:file_size">41109412</property>
  <property name="kdenlive:file_hash">6350a6879af7164429069866162296a0</property>
  <property name="global_feed">1</property>
  <property name="xml">was here</property>
  <property name="meta.media.nb_streams">2</property>
  <property name="meta.media.0.stream.type">video</property>
  <property name="meta.media.0.stream.frame_rate">6.27673</property>
  <property name="meta.media.0.stream.sample_aspect_ratio">0</property>
  <property name="meta.media.0.codec.width">640</property>
  <property name="meta.media.0.codec.height">426</property>
  <property name="meta.media.0.codec.rotate">0</property>
  <property name="meta.media.0.codec.frame_rate">600</property>
  <property name="meta.media.0.codec.pix_fmt">yuvj420p</property>
  <property name="meta.media.0.codec.sample_aspect_ratio">1</property>
  <property name="meta.media.0.codec.colorspace">601</property>
  <property name="meta.media.0.codec.color_trc">1</property>
  <property name="meta.media.0.codec.name">mjpeg</property>
  <property name="meta.media.0.codec.long_name">MJPEG (Motion JPEG)</property>
  <property name="meta.media.0.codec.bit_rate">1321209</property>
  <property name="meta.attr.0.stream.creation_time.markup">2017-09-27T20:46:53.000000Z</property>
  <property name="meta.attr.0.stream.handler_name.markup">Core Media Data Handler</property>
  <property name="meta.attr.0.stream.encoder.markup">Photo - JPEG</property>
  <property name="meta.media.1.stream.type">audio</property>
  <property name="meta.media.1.codec.sample_fmt">fltp</property>
  <property name="meta.media.1.codec.sample_rate">44100</property>
  <property name="meta.media.1.codec.channels">1</property>
  <property name="meta.media.1.codec.name">aac</property>
  <property name="meta.media.1.codec.long_name">AAC (Advanced Audio Coding)</property>
  <property name="meta.media.1.codec.bit_rate">1378</property>
  <property name="meta.attr.1.stream.creation_time.markup">2017-09-27T20:46:54.000000Z</property>
  <property name="meta.attr.1.stream.handler_name.markup">Core Media Data Handler</property>
  <property name="meta.attr.major_brand.markup">qt  </property>
  <property name="meta.attr.minor_version.markup">0</property>
  <property name="meta.attr.compatible_brands.markup">qt  </property>
  <property name="meta.attr.creation_time.markup">2017-09-27T20:46:53.000000Z</property>
  <property name="meta.media.sample_aspect_num">72</property>
  <property name="meta.media.sample_aspect_den">72</property>
  <property name="meta.media.frame_rate_num">934800</property>
  <property name="meta.media.frame_rate_den">148931</property>
  <property name="meta.media.colorspace">601</property>
  <property name="meta.media.color_trc">1</property>
  <property name="meta.media.width">640</property>
  <property name="meta.media.height">426</property>
  <property name="meta.media.top_field_first">0</property>
  <property name="meta.media.progressive">1</property>
 </producer>
 <playlist id="playlist5">
  <property name="kdenlive:track_name">Video 3</property>
  <entry producer="1_playlist5" in="24961" out="25642"/>
  <entry producer="1_playlist5" in="18550" out="19172"/>
  <blank length="75376"/>
  <entry producer="1_playlist5" in="27201" out="42635"/>
 </playlist>
 <tractor title="Anonymous Submission" id="maintractor" global_feed="1" in="0" out="92116">
  <track producer="black_track"/>
  <track hide="video" producer="playlist1"/>
  <track hide="video" producer="playlist0"/>
  <track hide="video" producer="playlist2"/>
  <track producer="playlist3"/>
  <track producer="playlist4"/>
  <track producer="playlist5"/>
  <transition id="transition0">
   <property name="a_track">0</property>
   <property name="b_track">1</property>
   <property name="mlt_service">mix</property>
   <property name="always_active">1</property>
   <property name="combine">1</property>
   <property name="internal_added">237</property>
  </transition>
  <transition id="transition1">
   <property name="a_track">0</property>
   <property name="b_track">2</property>
   <property name="mlt_service">mix</property>
   <property name="always_active">1</property>
   <property name="combine">1</property>
   <property name="internal_added">237</property>
  </transition>
  <transition id="transition2">
   <property name="a_track">0</property>
   <property name="b_track">3</property>
   <property name="mlt_service">mix</property>
   <property name="always_active">1</property>
   <property name="combine">1</property>
   <property name="internal_added">237</property>
  </transition>
  <transition id="transition3">
   <property name="a_track">0</property>
   <property name="b_track">4</property>
   <property name="mlt_service">mix</property>
   <property name="always_active">1</property>
   <property name="combine">1</property>
   <property name="internal_added">237</property>
  </transition>
  <transition id="transition4">
   <property name="a_track">0</property>
   <property name="b_track">5</property>
   <property name="mlt_service">mix</property>
   <property name="always_active">1</property>
   <property name="combine">1</property>
   <property name="internal_added">237</property>
  </transition>
  <transition id="transition5">
   <property name="a_track">0</property>
   <property name="b_track">6</property>
   <property name="mlt_service">mix</property>
   <property name="always_active">1</property>
   <property name="combine">1</property>
   <property name="internal_added">237</property>
  </transition>
  <transition id="transition6">
   <property name="a_track">0</property>
   <property name="b_track">4</property>
   <property name="compositing">0</property>
   <property name="distort">0</property>
   <property name="mlt_service">qtblend</property>
   <property name="always_active">1</property>
   <property name="internal_added">237</property>
  </transition>
  <transition id="transition7">
   <property name="a_track">0</property>
   <property name="b_track">5</property>
   <property name="compositing">0</property>
   <property name="distort">0</property>
   <property name="mlt_service">qtblend</property>
   <property name="always_active">1</property>
   <property name="internal_added">237</property>
  </transition>
  <transition id="transition8">
   <property name="a_track">0</property>
   <property name="b_track">6</property>
   <property name="compositing">0</property>
   <property name="distort">0</property>
   <property name="mlt_service">qtblend</property>
   <property name="always_active">1</property>
   <property name="internal_added">237</property>
  </transition>
 </tractor>
</mlt>
