<?xml version="1.0" encoding="UTF-8" standalone="no"?>
<!-- Created with Inkscape (http://www.inkscape.org/) -->
<svg xmlns:rdf="http://www.w3.org/1999/02/22-rdf-syntax-ns#" xmlns="http://www.w3.org/2000/svg" height="40" width="590" version="1.1" xmlns:cc="http://creativecommons.org/ns#" xmlns:xlink="http://www.w3.org/1999/xlink" xmlns:dc="http://purl.org/dc/elements/1.1/">
<defs>
<clipPath id="clipPath864" clipPathUnits="userSpaceOnUse">
<path d="m0,841.89,595.28,0v-841.89h-595.28v841.89z"/>
</clipPath>
</defs>
<metadata>
<rdf:RDF>
<cc:Work rdf:about="">
<dc:format>image/svg+xml</dc:format>
<dc:type rdf:resource="http://purl.org/dc/dcmitype/StillImage"/>
<dc:title/>
</cc:Work>
</rdf:RDF>
</metadata>
<g transform="translate(-10,-7.3622272)">
<g transform="matrix(0.07661925,0,0,-0.07661925,9.3140187,1030.1883)" fill-rule="nonzero">
<path d="m8.9531,12827,522.06,0,0,522.07-522.06,0,0-522.07z" fill="#3d539f"/>
<path d="m305.56,12906,0,166.7,60.023,0,8.988,65-69.011,0,0,41.5c0,18.8,5.605,31.6,34.535,31.6h36.906v58.1c-6.383,0.8-28.289,2.6-53.773,2.6-53.207,0-89.633-30.3-89.633-85.9v-47.9h-60.172v-65h60.172v-166.7h71.965" fill="#FFF"/>
</g>
<g transform="matrix(0.07661867,0,0,-0.07661867,161.31422,1030.1806)" fill-rule="nonzero">
<path d="m635.43,12827,522.07,0,0,522.07-522.07,0,0-522.07z" fill="#52abe4"/>
<path d="m1079.2,13202c-13.44-6-27.89-10-43.06-11.8,15.49,9.3,27.37,24,32.97,41.5-14.49-8.6-30.53-14.9-47.61-18.2-13.68,14.6-33.168,23.7-54.734,23.7-41.398,0-74.973-33.6-74.973-75,0-5.9,0.665-11.6,1.942-17.1-62.313,3.1-117.56,33-154.54,78.3-6.453-11-10.149-23.9-10.149-37.7,0-26,13.235-48.9,33.356-62.4-12.297,0.4-23.856,3.8-33.961,9.4-0.004-0.3-0.004-0.6-0.004-0.9,0-36.4,25.84-66.7,60.14-73.5-6.292-1.8-12.917-2.7-19.75-2.7-4.839,0-9.531,0.5-14.105,1.4,9.539-29.8,37.223-51.5,70.035-52.1-25.66-20.1-57.988-32.1-93.117-32.1-6.055,0-12.023,0.4-17.887,1.1,33.18-21.3,72.594-33.7,114.93-33.7,137.91,0,213.32,114.2,213.32,213.3,0,3.2-0.07,6.5-0.22,9.7,14.65,10.6,27.37,23.8,37.41,38.8" fill="#FFF"/>
</g>
<g transform="matrix(0.07661867,0,0,-0.07661867,63.314122,1030.1806)" fill-rule="nonzero">
<path d="m1261.9,12827,522.07,0,0,522.07-522.07,0,0-522.07z" fill="#cd1e28"/>
<path d="m1497.7,13029c-9.6-50.3-21.18-98.5-55.95-123.7-10.79,76.1,15.7,133.3,27.97,193.8-21.03,35.2,2.62,106.1,46.62,88.6,54.37-21.5-47.03-131,21.07-144.5,71.21-14.5,100.19,123,56.02,168-63.61,64.5-185.4,1.4-170.4-91.2,3.57-22.5,26.98-29.4,9.36-60.7-40.81,9.1-52.83,41.2-51.52,84.2,2.66,70.2,63.15,119.1,123.86,126.1,76.72,8.5,148.82-28.3,158.65-100.5,11.22-81.5-34.56-169.7-116.72-163.4-22.04,1.7-31.55,12.7-48.96,23.3" fill="#FFF"/>
</g>
<g transform="matrix(0.07661867,0,0,-0.07661867,-84.68518,1030.1806)" fill-rule="nonzero">
<path d="m1888.4,12827,522.07,0,0,522.07-522.07,0,0-522.07z" fill="#df3832"/>
</g>
<g transform="matrix(0.07661867,0,0,-0.07661867,69.314722,1030.1806)" fill-rule="nonzero">
<path d="m3141.3,12827,522.07,0,0,522.07-522.07,0,0-522.07z" fill="#3479bd"/>
<path d="m3220.4,12914,78.33,0,0,235.6-78.33,0,0-235.6zm39.69,349.2c-26.81,0-44.34-17.6-44.34-40.7,0-22.7,17.03-40.8,43.3-40.8h0.52c27.33,0,44.32,18.1,44.32,40.8-0.51,23.1-16.99,40.7-43.8,40.7zm321.11-214.1,0-135.1-78.33,0,0,126c0,31.7-11.33,53.3-39.68,53.3-21.64,0-34.52-14.6-40.2-28.7-2.06-5-2.59-12-2.59-19.1v-131.5h-78.34s1.05,213.5,0,235.6h78.34v-33.4c-0.16-0.3-0.36-0.5-0.51-0.8h0.51v0.8c10.41,16,29,38.9,70.6,38.9,51.55,0,90.2-33.7,90.2-106" fill="#FFF"/>
</g>
<g transform="matrix(0.07661867,0,0,-0.07661867,265.90592,819.87787)" fill-rule="nonzero">
<path d="m-2034.8,10083,522.07,0,0,522.06-522.07,0,0-522.06z" fill="#314a6c"/>
<path d="m-1743.7,10228c-16.789,8.259-16.736,28.182-16.042,44.206,0.025,34.931,0.01,69.863,0.012,104.79h85.23v65.2h-85.23v84.5h-52.43c-3.206-35.429-20.631-72.648-54.286-88.262-8.151-7.056-28.764-3.861-25.054-18.39v-43.048h50.07c0.1927-46.662-0.4026-93.34,0.3302-139.99,0.01-19.695,8.1321-39.274,23.99-51.408,32.811-27.344,79.419-28.93,119.14-18.676,11.696,5.637,33.851,6.089,37.918,18.502v53.374c-23.848-15.515-57.098-25.678-83.65-10.8z" fill="#FFF"/>
</g>
<g transform="matrix(0.07661867,0,0,-0.07661867,411.31422,933.78647)" fill-rule="nonzero">
<path d="m635.43,11569,522.07,0,0,522.06-522.07,0,0-522.06z" fill="#e93c1f"/>
<path d="m1017.5,11822,0-47.8c0-10.7-8.76-19.2-19.188-19.2-10.629,0-19.352,8.5-19.352,19.2v48.9l-37.503-12-24.961,12v-48.9c0-45.1,36.695-81.6,81.816-81.6,44.958,0,81.758,36.5,81.758,81.6v47.8h-62.57zm-101,44.9,24.961-12.1,37.503,12.1,0,21.8c0,44.9-36.554,81.6-81.656,81.6-45.023,0-81.875-36.7-81.875-81.6v-114.5c0-10.7-8.465-19.2-19.129-19.2-10.547,0-19.07,8.5-19.07,19.2v47.8h-62.605v-47.8c0-45.1,36.476-81.6,81.675-81.6,45.258,0,81.813,36.5,81.813,81.6v114.5c0,10.6,8.586,19.2,19.211,19.2,10.707,0,19.172-8.6,19.172-19.2v-21.8" fill="#FFF"/>
</g>
<g transform="matrix(0.07661925,0,0,-0.07661925,23.31282,933.79347)">
<path fill="#100f0d" d="m4394.3,11569,522.06,0,0,522.06-522.06,0,0-522.06z" fill-rule="nonzero"/>
<path fill="#FFF" d="m4805.6,11793-28.42,0,0,65,28.42,0,0-65zm32.49,97.4-97.46,0,0-129.9,64.97,0,0-28.4-64.97,0,0-36.6,97.46,0,0,194.9zm-166.48-97.4,0,65,24.36,0,0-65-24.36,0zm60.9,97.4-97.45,0,0-129.9,60.91,0,0-28.4-60.91,0,0-36.6,97.45,0,0,194.9zm-150.24,65,36.55,0,0-36.5-36.55,0,0,36.5zm0-65,36.55,0,0-129.9-36.55,0,0,129.9zm-73.09-97.4,0,65,28.43,0,0-65-28.43,0zm28.43,162.4,0-65-64.97,0,0-129.9,38.06,0,25.74,0,37.71,0,0,194.9-36.54,0" fill-rule="evenodd"/>
</g>
<g transform="matrix(0.48875257,0,0,-0.48875257,316.26072,388.52894)">
<g transform="translate(4.0920633,-42.966559)">
<rect transform="scale(1,-1)" height="40.921" width="40.921" y="-822.84" x="187.7" fill="#f4f4f4"/>
<rect transform="scale(1,-1)" height="40.921" width="40.921" y="-822.84" x="228.62" fill="#1b5399"/>
<rect transform="scale(1,-1)" height="40.921" width="40.921" y="-781.92" x="187.7" fill="#444041"/>
<rect transform="scale(1,-1)" height="40.921" width="40.921" y="-781.92" x="228.62" fill="#cacbd1"/>
</g>
</g>
<g transform="matrix(0.07661867,0,0,-0.07661867,562.49982,701.01847)">
<g transform="translate(-4583.552,-4296.1088)" fill="#cee3f8">
<path fill="#cee3f8" d="m635.43,12827,522.07,0,0,522.07-522.07,0,0-522.07z" fill-rule="nonzero"/>
</g>
<g transform="matrix(3.7904201,0,0,3.7904201,-4917.0852,7734.5491)">
<g clip-path="url(#clipPath864)">
<g transform="translate(359.3516,305.6494)">
<path fill="#FFF" d="M0,0c-7.4218-0.48149-10.194,11.122-3.237,13.993,5.939,3.094,13.199-4.0145,9.7866-9.9216-1.212-2.4226-3.8029-4.1571-6.5496-4.0714zm-65.101-18.522c13.578,8.364,30.753,9.7992,46.016,5.8634,10.584-3.0338,21.819-9.2343,25.427-20.345,3.5178-9.5447-1.6509-19.993-9.4648-25.663-12.481-9.1913-29.08-11.151-44.049-8.6036-10.338,2.0492-20.983,6.7397-27.158,15.633-5.0603,7.3469-5.1238,17.774,0.42817,24.874,1.3345,2.9372-1.5579-4.3872-3.2291-4.5114-4.4143-0.41175-8.3487,4.0191-8.5011,8.3113-0.86713,8.0556,8.4743,14.608,15.798,11.31,2.352-0.90778,6.2328-4.4468,4.7329-6.8682zm72.293-13.87c5.6507-0.5612,10.955,4.5533,10.1,10.281-0.25287,8.1726-9.4541,14.755-17.163,11.352-2.3968-0.55901-6.7662-5.5136-4.7367-6.3256,2.1403,3.9349,5.8385,6.931,10.657,6.0904,7.1269-0.68576,12.947-8.9996,9.3758-15.704-1.585-3.309-6.0728-3.648-8.233-5.693zm-87.47-3.948c-0.82358,4.5129-8.2217,4.574-8.387,10.157-3.0006,10.213,7.7143,20.763,17.888,18.411,4.1461-0.095295,7.076-4.6899,9.3716-6.1208,7.0346,3.4344,14.809,5.2217,22.608,5.6285,0.86646,8.1633,1.1693,17.288,6.7639,23.824,5.0411,3.7786,11.16,0.14261,16.473-0.89367,4.0229-2.5564,8.3247-1.9077,10.978,1.9409,6.3242,3.32,15.086-1.77,14.905-9.0464,0.259-6.7554-7.0468-12.306-13.497-10.142-5.7869,1.8299-6.3742,9.9437-13.139,10.046-5.2631,1.8813-14.394,5.4795-14.12-3.4212,0.48028-4.0653-4.0368-11.404,1.6652-12.845,7.1167-0.066485,14.141-2.5006,20.498-5.6231,2.5926-0.36418,4.3996,5.9303,8.499,5.9985,8.517,3.0508,18.377-3.6475,19.122-12.576,1.0365-5.8137-2.6611-12.297-8.7213-13.241-2.7734-3.063,0.62026-8.9183-2.1877-12.905-4.9232-12.896-18.45-19.788-31.272-22.408-15.903-3.1779-33.545-0.41084-46.637,9.505-7.0411,5.5755-12.355,14.46-10.808,23.707m2.735,2.381c-3.2334-10.706,3.9176-21.762,13.116-26.881,16.833-10.196,39.073-10.236,56.36-1.1206,9.3262,4.903,17.497,15.046,15.36,26.13-2.4654,11.867-13.687,19.393-24.6,22.76-5.1293,2.2128-12.453,1.7513-16.656,3.3612,0.50505,6.86,0.47386,14.033,3.5042,20.373,4.3893,3.9394,10.428-0.38477,15.185-1.446,5.1724,0.039193,7.6456-3.3419,9.3859-7.5158,4.2797-4.6382,13.007-2.1613,13.89,4.1552,1.2653,6.1096-5.8103,11.793-11.374,8.9476-3.0433-2.528-5.0749-6.6367-9.3123-3.416-5.1574,1.821-10.477,3.5433-16,3.6049-6.0671-3.0167-5.6246-10.754-7.4515-16.338,0.16377-4.2758,0.63122-10.896-5.7393-9.3548-7.4495-0.76706-14.803-2.9052-21.329-6.6153-1.7803,7.4347-11.567,9.7099-17.416,5.5674-5.7754-3.4038-8.7491-12.126-3.8766-17.507,0.77329-3.0093,8.4857-2.0331,6.9523-4.7044z" fill-rule="nonzero"/>
</g>
<g transform="translate(359.3516,306.749)">
<path fill-rule="evenodd" d="m0,0c-3.445,0-6.238,2.793-6.238,6.241,0,3.442,2.793,6.237,6.238,6.237,3.444,0,6.235-2.795,6.235-6.237,0-3.448-2.791-6.241-6.235-6.241m-35.356-12.775c23.013,0,41.68-12.026,41.68-27.805s-18.667-27.733-41.68-27.733c-23.014,0-41.678,11.954-41.678,27.733s18.664,27.805,41.678,27.805m-30.381-5.953c-4.758-3.404-8.957-7.063-11.525-12.508l-0.063-0.165c-2.334,0.295-4.458,1.431-5.834,3.372-2.821,3.968-1.463,9.795,3.039,12.992,4.495,3.199,10.444,2.574,13.266-1.401,0.511-0.708,0.873-1.478,1.117-2.29m72.31-12.561,0.001,0.004c2.911-0.138,5.685,1.017,7.351,3.359,2.771,3.899,1.435,9.615-2.982,12.756-4.414,3.142-10.253,2.529-13.024-1.379-0.7-0.981-1.138-2.083-1.332-3.224l-0.015,0.002c3.635-2.62,6.594-5.687,8.677-9.069,0.492-0.8,0.933-1.618,1.324-2.449m-85.157-3.407c-0.51-1.909-0.831-3.868-0.831-5.884,0-16.686,19.729-30.212,44.059-30.212,24.328,0,44.065,13.526,44.065,30.212,0,1.946-0.275,3.853-0.793,5.697-0.015,0.053-0.032,0.108-0.046,0.162l-0.049,0.181c3.417,0.298,6.043,0.481,8.962,4.582s1.955,13.049-4.048,17.318c-5.995,4.266-13.914,3.426-17.679-1.871-0.718-1.005-1.23-2.1-1.554-3.243l-0.001-0.007c-7.144,4.251-16.301,6.956-26.363,7.343,0.223,4.553,1.251,20.552,4.776,20.552,5.273,0,16.228-4.101,18.987-5.169,0.622-4.473,4.462-7.912,9.099-7.912,5.077,0,9.185,4.118,9.185,9.188,0,5.072-4.108,9.184-9.185,9.184-3.749,0-6.979-2.254-8.403-5.478-4.097,1.536-14.211,5.102-19.683,5.102-7.859,0-9.415-20.597-9.674-25.464-9.358-0.34-17.949-2.695-24.859-6.436-0.325,0.869-0.758,1.713-1.315,2.482-3.837,5.399-11.904,6.252-18.014,1.906-6.115-4.345-7.955-12.246-4.12-17.635,1.789-2.523,4.505-4.054,7.516-4.521l-0.03-0.077h-0.002z" fill="#393536"/>
</g>
<g transform="translate(339.3271,279.2529)">
<path fill-rule="evenodd" d="m0,0c3.637,0,6.586-2.949,6.586-6.586,0-3.636-2.949-6.585-6.586-6.585s-6.585,2.949-6.585,6.585c0,3.637,2.948,6.586,6.585,6.586" fill="#ed1c24"/>
</g>
<g transform="translate(308.249,279.2529)">
<path fill-rule="evenodd" d="m0,0c3.637,0,6.585-2.949,6.585-6.586,0-3.636-2.948-6.585-6.585-6.585s-6.586,2.949-6.586,6.585c0,3.637,2.949,6.586,6.586,6.586" fill="#ed1c24"/>
</g>
<g transform="translate(321.208,248.0088)">
<path fill-rule="nonzero" d="M0,0c0.925-0.07,1.859-0.105,2.789-0.106,0.93,0.001,1.863,0.036,2.788,0.106,6.357,0.476,8.763,2.327,12.202,5.914,1.121,1.168,2.19,0.678,2.564,0.134,0.755-1.1-0.902-3.139-1.732-3.925-3.615-3.423-8.148-4.913-12.799-5.262-0.999-0.075-2.012-0.113-3.023-0.114-1.012,0.001-2.023,0.039-3.023,0.114-3.683,0.277-7.027,1.224-10.054,3.306-1.221,0.84-5.763,4.483-4.477,5.881,0.447,0.485,1.442,1.034,2.563-0.134,3.44-3.587,5.847-5.438,12.202-5.914" fill="#231f20"/>
</g>
</g>
</g>
</g>
<g transform="matrix(0.07661867,0,0,-0.07661867,849.47906,575.22847)">
<g transform="translate(-6919.5195,-5937.8756)" fill="#42678e">
<path fill="#42678e" d="m3141.3,12827,522.07,0,0,522.07-522.07,0,0-522.07z" fill-rule="nonzero"/>
</g>
<path d="m-3324.6,7061c-13.963,26.894-39.656,44.272-58.869,66.777-8.5307,14.495,7.9418,27.196,14.895,38.452,16.533,22.463,36.181,43.907,45.338,70.692,5.2415,14.876-13.912,16.111-23.891,14.433-19.599-0.1912-39.293-0.1655-58.829-0.4824-14.827-5.9322-13.568-27.944-23.05-39.483-11.115-19.784-21.707-41.026-39.36-55.859-19.129-7.181-16.621,22.786-16.057,34.655-0.8288,19.269,3.2463,38.893-0.5323,57.903-7.0491,16.683-29.266,12.007-44.147,13.455-15.989-0.8056-33.833,1.4685-47.879-7.5271-16.406-11.916,13.885-7.9988,14.489-21.023,6.5279-23.256,5.6034-48.482,0.1446-71.849-7.9105-20.191-28.072,2.8662-33.549,13.906-13.317,22.666-24.868,46.406-35.593,70.357-8.6235,9.9092-22.704,5.2903-34.158,6.2208-13.408-0.5155-26.996,0.7473-40.263-1.2044-13.685-7.3638,2.2528-23.716,4.8057-33.962,22.878-48.057,49.598-95.152,85.976-134.33,26.295-24.771,61.149-44.364,98.354-41.494,10.204,0.9225,22.558-3.0516,30.37,5.4747,4.583,13.377-0.072,30.501,11.346,41.531,12.711,11.548,25.618-8.0882,33.54-16.734,13.12-15.364,29.553-33.954,52.032-31.047,18.666,0.5786,37.421-0.032,56.025,1.4024,10.187,1.2297,12.826,11.461,8.8613,19.732z" fill="#FFF"/>
</g>
<g transform="matrix(0.07661867,0,0,-0.07661867,717.8216,687.14437)">
<g transform="translate(-7.9043125,0)">
<g transform="translate(-3339.9405,-3219.0874)" fill="#f6881f">
<path fill="#f6881f" d="m635.43,11569,522.07,0,0,522.06-522.07,0,0-522.06z" fill-rule="nonzero"/>
</g>
<g fill-rule="evenodd" clip-rule="evenodd" transform="matrix(4.0614552,0,0,-3.5436607,-2646.5502,8788.4258)" fill="#FFF">
<path d="M45.3,69.512c-7.402-0.772-14.076-2.594-19.79-7.064-0.709-0.556-1.441-1.092-2.088-1.713-2.501-2.402-2.753-5.153-0.774-7.988,1.693-2.426,4.535-3.075,7.489-1.682,0.572,0.27,1.117,0.608,1.639,0.969,10.649,7.317,25.277,7.519,35.967,0.329,1.059-0.811,2.191-1.474,3.503-1.811,2.551-0.656,4.93,0.282,6.299,2.513,1.564,2.549,1.544,5.037-0.383,7.016-2.956,3.034-6.511,5.228-10.461,6.761-3.735,1.448-7.826,2.176-11.875,2.661,0.611,0.665,0.899,0.992,1.281,1.376,5.498,5.524,11.02,11.025,16.5,16.566,1.867,1.888,2.257,4.229,1.229,6.425-1.124,2.4-3.64,3.978-6.108,3.809-1.563-0.108-2.782-0.885-3.865-1.976-4.149-4.175-8.376-8.274-12.441-12.527-1.183-1.238-1.752-1.003-2.796,0.071-4.174,4.297-8.416,8.528-12.683,12.735-1.916,1.889-4.196,2.229-6.418,1.151-2.362-1.145-3.865-3.556-3.749-5.98,0.08-1.639,0.886-2.891,2.011-4.014,5.441-5.432,10.867-10.879,16.295-16.322,0.36-0.361,0.695-0.745,1.218-1.305z"/>
<path d="M49.809,50.588c-13.205-0.045-24.033-10.992-23.956-24.218,0.076-13.372,10.911-24.148,24.246-24.111,13.362,0.036,24.087,10.967,24.02,24.478-0.068,13.199-10.971,23.897-24.31,23.851zm12.001-24.186c-0.023-6.567-5.253-11.795-11.806-11.801-6.609-0.007-11.886,5.316-11.835,11.943,0.049,6.542,5.324,11.733,11.896,11.709,6.551-0.023,11.767-5.285,11.745-11.851z"/>
</g>
</g>
</g>
<g transform="matrix(0.07661925,0,0,-0.07661925,9.3140187,1030.1883)" fill-rule="nonzero">
<path d="m8.9531,12827,522.06,0,0,522.07-522.06,0,0-522.07z" fill="#3d539f"/>
<path d="m305.56,12906,0,166.7,60.023,0,8.988,65-69.011,0,0,41.5c0,18.8,5.605,31.6,34.535,31.6h36.906v58.1c-6.383,0.8-28.289,2.6-53.773,2.6-53.207,0-89.633-30.3-89.633-85.9v-47.9h-60.172v-65h60.172v-166.7h71.965" fill="#FFF"/>
</g>
<g stroke-linejoin="round" fill-rule="evenodd" transform="matrix(1.9588293,0,0,1.9588293,65,11.660076)" stroke-miterlimit="1.41400003" fill="#FFF">
<g fill="#FFF">
<path d="m5.09,7.273,0,1.745,2.89,0c-0.116,0.75-0.873,2.197-2.887,2.197-1.737,0-3.155-1.44-3.155-3.215s1.415-3.215,3.152-3.215c0.99,0,1.652,0.422,2.03,0.786l1.382-1.33c-0.887-0.83-2.037-1.33-3.41-1.33-2.817-0.001-5.092,2.273-5.092,5.089s2.276,5.09,5.09,5.09c2.94,0,4.888-2.065,4.888-4.974,0-0.334-0.036-0.59-0.08-0.843zm9.8391,0-1.455,0,0-1.455-1.455,0,0,1.455-1.454,0,0,1.454,1.455,0,0,1.455,1.455,0,0-1.455,1.454,0" fill="#FFF"/>
</g>
</g>
</g>
</svg>
